<?xml version="1.0" encoding="utf-8"?>
<!-- Generator: Adobe Illustrator 22.1.0, SVG Export Plug-In . SVG Version: 6.00 Build 0)  -->
<svg version="1.1" id="Layer_1" xmlns="http://www.w3.org/2000/svg" xmlns:xlink="http://www.w3.org/1999/xlink" x="0px" y="0px"
	 viewBox="0 0 39 39" style="enable-background:new 0 0 39 39;" xml:space="preserve">
<style type="text/css">
	.st0{fill-rule:evenodd;clip-rule:evenodd;fill:#313536;}
	.st1{fill:#231F20;}
	.st2{fill:#F0D5A7;}
	.st3{fill:#353030;}
	.st4{fill:#FAFAFA;}
	.st5{fill:none;}
	.st6{fill-rule:evenodd;clip-rule:evenodd;fill:#F0D5A7;}
	.st7{opacity:0.5;fill:#221F1F;}
	.st8{fill-rule:evenodd;clip-rule:evenodd;fill:#E9C77E;}
	.st9{fill:#FFFFFF;}
</style>
<g>
	<circle class="st8" cx="19.5" cy="19.5" r="19.5"/>
	<g>
		<g>
			<path class="st1" d="M23.2,14.9c-0.3,2.6-0.6,3.9-0.6,5.9c-0.1,1.5-0.3,3.5,1.4,3.8c1.2,0.2,3.2-1.3,2.4-2.9
				c-1.1,1.1-2.6,0.7-2.7-1.2c-0.1-2.8,3-1.5,3.4,0.4c0.4,1.8-0.3,3.9-2.3,4.7c-1.9,0.8-3.1,0.3-4.2-1.4c-1,1.5-3.8,2.5-5.5,1.5
				c-2.2-1.4-2.3-3.3-2-5.9c0.2-2.2,1.1-4.8,2.9-6.2c0.7-0.6,2.2-1.1,3.1-0.6c0.6,0.3,0.9,0.4,1.3,1.4c0.3-0.9-0.2-2,0.5-1.8
				c1.6-0.1,0.8,0,2.4,0C23.8,12.5,23.5,13.3,23.2,14.9z M16.2,21.5c0,1.1-0.5,3.6,1.5,3.4c2.4-0.3,2.2-4.9,2.2-6.7
				c0.1-1.4-0.6-6.2-2.3-3.6C16.5,16.3,16.2,19.3,16.2,21.5z"/>
		</g>
	</g>
</g>
</svg>
