<?xml version="1.0" encoding="utf-8"?>
<!-- Generator: Adobe Illustrator 22.1.0, SVG Export Plug-In . SVG Version: 6.00 Build 0)  -->
<svg version="1.1" id="Layer_1" xmlns="http://www.w3.org/2000/svg" xmlns:xlink="http://www.w3.org/1999/xlink" x="0px" y="0px"
	 viewBox="0 0 39 39" style="enable-background:new 0 0 39 39;" xml:space="preserve">
<style type="text/css">
	.st0{fill-rule:evenodd;clip-rule:evenodd;fill:#313536;}
	.st1{fill:#231F20;}
	.st2{fill:#F0D5A7;}
	.st3{fill:#353030;}
	.st4{fill:#FAFAFA;}
	.st5{fill:none;}
	.st6{fill-rule:evenodd;clip-rule:evenodd;fill:#F0D5A7;}
	.st7{opacity:0.5;fill:#221F1F;}
	.st8{fill-rule:evenodd;clip-rule:evenodd;fill:#E9C77E;}
	.st9{fill:#FFFFFF;}
</style>
<g>
	<circle class="st8" cx="19.5" cy="19.5" r="19.5"/>
	<g>
		<g>
			<path class="st1" d="M21.3,16.9c0.7-0.5,1.8-0.6,2.5-0.1c1.5,1.1,2,3.6,1.8,5.3c-0.4,3.1-1.7,7.6-5.5,8c-0.8,0.1-1.8,0-2.3-0.7
				c-0.7-1-0.2-1.1-1.3-0.3c-0.8,0.4-1,0.6-1.9,0.6c-0.8-0.1-1.2-1.1-0.6-1.4c1.8-1,1.5-0.7,1.8-2.5c0.3-2.3,0.3-3.9,0.5-6.3
				c0.2-2.2,0.8-5.8,1-7.6c0.1-0.9,0.5-3.5,0.3-4.5c-0.2-1-2.9-0.7-2.9,0.7c0,2.2-0.1,1.7,0.9,2.9c0.1,0.6-0.5,0.8-1,0.7
				c-0.8-0.1-1.8-1-1.8-1.8c-0.7-4.9,5.2-5.3,8.1-4.1c0.3,0.1-0.3,5.1-0.4,6.1c-0.4,2-0.4,3.6-0.8,5.7
				C20.5,17.6,20.6,17.4,21.3,16.9z M20.8,28.4c1.5-1.2,1.9-2.5,2.3-4.9c0.2-1,1-4.6,0.1-5.6c-0.7-0.8-1.7,0-2.4,0.4
				c-2,1.4-1.6,3.6-2.1,6.9C18.4,27.5,18.9,29.8,20.8,28.4z"/>
		</g>
	</g>
</g>
</svg>
