<?xml version="1.0" encoding="utf-8"?>
<!-- Generator: Adobe Illustrator 22.1.0, SVG Export Plug-In . SVG Version: 6.00 Build 0)  -->
<svg version="1.1" id="Layer_1" xmlns="http://www.w3.org/2000/svg" xmlns:xlink="http://www.w3.org/1999/xlink" x="0px" y="0px"
	 viewBox="0 0 39 39" style="enable-background:new 0 0 39 39;" xml:space="preserve">
<style type="text/css">
	.st0{fill-rule:evenodd;clip-rule:evenodd;fill:#313536;}
	.st1{fill:#231F20;}
	.st2{fill:#F0D5A7;}
	.st3{fill:#353030;}
	.st4{fill:#FAFAFA;}
	.st5{fill:none;}
	.st6{fill-rule:evenodd;clip-rule:evenodd;fill:#F0D5A7;}
	.st7{opacity:0.5;fill:#221F1F;}
	.st8{fill-rule:evenodd;clip-rule:evenodd;fill:#E9C77E;}
	.st9{fill:#FFFFFF;}
</style>
<g>
	<circle class="st8" cx="19.5" cy="19.5" r="19.5"/>
	<g>
		<g>
			<path class="st1" d="M22.8,15.3c-0.1-1.4-1.1-2.6-3.2-0.5c-2.2,2.2-2.8,4.6-2.3,7.3c0.3,1.3,1,2.4,2.4,2.7c0.8,0,0.9-0.3,1.5-0.8
				c0.4-0.3,1-1.6,1.4-1.6c1.3,0-0.2,2.5-0.5,2.8c-1.3,1.2-3.6,1.4-5.1,0.4c-1.3-0.9-2.1-1.7-2.5-3.3c-0.4-1.5-0.4-1.8-0.1-3.4
				c0.6-3.7,4-7.8,8-5.9c3.1,1.4,2.3,6.1-0.8,7c-1.4-0.1-2.7-0.7-2.8-2.3c0.4-2,2.7-1.4,2.5,0.6C22.1,19.4,22.8,16.4,22.8,15.3z"/>
		</g>
	</g>
</g>
</svg>
