<?xml version="1.0" encoding="utf-8"?>
<!-- Generator: Adobe Illustrator 22.1.0, SVG Export Plug-In . SVG Version: 6.00 Build 0)  -->
<svg version="1.1" id="Layer_1" xmlns="http://www.w3.org/2000/svg" xmlns:xlink="http://www.w3.org/1999/xlink" x="0px" y="0px"
	 viewBox="0 0 39 39" style="enable-background:new 0 0 39 39;" xml:space="preserve">
<style type="text/css">
	.st0{fill-rule:evenodd;clip-rule:evenodd;fill:#313536;}
	.st1{fill:#231F20;}
	.st2{fill:#F0D5A7;}
	.st3{fill:#353030;}
	.st4{fill:#FAFAFA;}
	.st5{fill:none;}
	.st6{fill-rule:evenodd;clip-rule:evenodd;fill:#F0D5A7;}
	.st7{opacity:0.5;fill:#221F1F;}
	.st8{fill-rule:evenodd;clip-rule:evenodd;fill:#E9C77E;}
	.st9{fill:#FFFFFF;}
</style>
<g>
	<circle class="st8" cx="19.5" cy="19.5" r="19.5"/>
	<g>
		<g>
			<path class="st1" d="M23.4,10.8c-0.4,2.4-0.9,5.6-1.4,8c-0.5,3.6-0.7,5.5-0.7,7.3c0.3,0.8,0.7,2.9,2.5,2.8c1.7-0.1,3.3-1.6,4.4-3
				c1.1-1.5,1.6-3.3,1.5-5.3c-0.1-1.8-0.8-4-2.8-4.2c-1.4-0.2-1.4,1.6,0,1.5c1-0.1,0.6,0.4,0.4,1c-0.7,0.3-1.7,0.1-2.3-0.4
				c-1.5-1.2,0.7-3.2,2.1-3.2c1.7-0.1,3.5,0.9,4.1,2.5c0.7,2,0.4,7.1-2.2,9.7c-1.3,1.3-2.4,2.1-4.2,2.5c-2.4,0.5-3.8-0.1-4.5-2.1
				c-0.9,1.9-2.6,2.7-4.9,2.1c-2.4-0.6-3.3-3.8-3.1-6c-0.1-2.1,0.6-3.9,1.7-5.6c0.6-1,1.3-1.7,2.6-2c1-0.3,1.8,0,2.8,1.1
				c0.4-0.2,0.6-1,0.7-2c0.1-1.2,0.4-4,0.6-5.2c0.2-1.3,0.3-3.4,0.4-4.6c0.2-1,1.5-0.7,3-0.7C24.6,5,23.7,9,23.4,10.8z M18.6,20.2
				c0-0.6-0.3-2-0.8-2.5c-1.1-1-2.4,0.5-2.7,1.4c-0.7,2.2-0.8,5-0.7,7.4c0.1,0.9,0.4,1.6,1.4,2c1,0.4,1.9-0.2,2.2-0.8
				C18.6,25.6,18.6,22.4,18.6,20.2z"/>
		</g>
	</g>
</g>
</svg>
