<?xml version="1.0" encoding="utf-8"?>
<!-- Generator: Adobe Illustrator 22.1.0, SVG Export Plug-In . SVG Version: 6.00 Build 0)  -->
<svg version="1.1" id="Layer_1" xmlns="http://www.w3.org/2000/svg" xmlns:xlink="http://www.w3.org/1999/xlink" x="0px" y="0px"
	 viewBox="0 0 39 39" style="enable-background:new 0 0 39 39;" xml:space="preserve">
<style type="text/css">
	.st0{fill-rule:evenodd;clip-rule:evenodd;fill:#313536;}
	.st1{fill:#231F20;}
	.st2{fill:#F0D5A7;}
	.st3{fill:#353030;}
	.st4{fill:#FAFAFA;}
	.st5{fill:none;}
	.st6{fill-rule:evenodd;clip-rule:evenodd;fill:#F0D5A7;}
	.st7{opacity:0.5;fill:#221F1F;}
	.st8{fill-rule:evenodd;clip-rule:evenodd;fill:#E9C77E;}
	.st9{fill:#FFFFFF;}
</style>
<g>
	<circle class="st8" cx="19.5" cy="19.5" r="19.5"/>
	<g>
		<g>
			<path class="st1" d="M18.6,25.4c0.7,0.7,3-0.1,3.6-0.9c-0.4-0.7-0.3-1.5,0.3-2.1c0.3-0.1,0.4-0.5,1.3-0.4c0.6,0.1,1,0.6,0.8,1.4
				c-0.2,0.9-0.9,1.6-1.5,2.2c-1.4,1.5-4.4,1.7-5.6,1.4c-2.5-0.6-3.4-3.1-3.5-5.7c-0.1-3.5,1.1-8,6-8.1c2.7,0,3,3,3.1,5
				c-0.5,3.5-2,4-5.5,4.5C17.4,23.5,17.9,25,18.6,25.4z M17.9,20c-0.1,1.3,1.2,0.6,2.6,0.3c0.6-0.3,0.8-2.1,0.8-3.2
				c0-1.1-0.5-3.6-2-2.4C18.6,15.7,18,18.7,17.9,20z"/>
		</g>
	</g>
</g>
</svg>
