<?xml version="1.0" encoding="utf-8"?>
<!-- Generator: Adobe Illustrator 22.1.0, SVG Export Plug-In . SVG Version: 6.00 Build 0)  -->
<svg version="1.1" id="Layer_1" xmlns="http://www.w3.org/2000/svg" xmlns:xlink="http://www.w3.org/1999/xlink" x="0px" y="0px"
	 viewBox="0 0 39 39" style="enable-background:new 0 0 39 39;" xml:space="preserve">
<style type="text/css">
	.st0{fill-rule:evenodd;clip-rule:evenodd;fill:#313536;}
	.st1{fill:#231F20;}
	.st2{fill:#F0D5A7;}
	.st3{fill:#353030;}
	.st4{fill:#FAFAFA;}
	.st5{fill:none;}
	.st6{fill-rule:evenodd;clip-rule:evenodd;fill:#F0D5A7;}
	.st7{opacity:0.5;fill:#221F1F;}
	.st8{fill-rule:evenodd;clip-rule:evenodd;fill:#E9C77E;}
	.st9{fill:#FFFFFF;}
</style>
<g>
	<circle class="st8" cx="19.5" cy="19.5" r="19.5"/>
	<g>
		<g>
			<path class="st1" d="M21.3,19.6c-1.4-0.2-1.4,1.5-1.5,2.6c-0.2,2.1-0.3,4.8-0.5,6.9c-0.2,2.3-0.2,1.7-2.1,1.7
				c-1.1,0-1.2,0.1-1.2-0.9c0-1.3,0.2-2.7,0.3-4.1c0.2-4.2,0.5-8.3,0.8-12.6c0.2-2,0.5-5.1,2-6.5c1.4-1.3,3-1.9,4.7-0.8
				c1.9,1.1,2.4,2.8,2.2,5c-0.2,2.1-1.5,4.1-3.7,3.7c-1.5-0.3-2.2-1.1-1.2-3c0.7-1.4,2.6,0.1,1.8,0.9c3,0.3,1.3-7.2-1.1-4.7
				c-1.5,1.5-1.6,4.2-1.7,6.2c0,1.1-0.1,2.2-0.1,3.4c0,1.3,2.1,0.3,2.1,0.7C22.4,19,22.2,19.8,21.3,19.6z"/>
		</g>
	</g>
</g>
</svg>
