<?xml version="1.0" encoding="utf-8"?>
<!-- Generator: Adobe Illustrator 22.1.0, SVG Export Plug-In . SVG Version: 6.00 Build 0)  -->
<svg version="1.1" id="Layer_1" xmlns="http://www.w3.org/2000/svg" xmlns:xlink="http://www.w3.org/1999/xlink" x="0px" y="0px"
	 viewBox="0 0 143.8 46.1" style="enable-background:new 0 0 143.8 46.1;" xml:space="preserve">
<style type="text/css">
	.st0{fill-rule:evenodd;clip-rule:evenodd;fill:#313536;}
	.st1{fill:#231F20;}
	.st2{fill:#F0D5A7;}
	.st3{fill:#353030;}
	.st4{fill:#FAFAFA;}
	.st5{fill:none;}
	.st6{fill-rule:evenodd;clip-rule:evenodd;fill:#F0D5A7;}
	.st7{opacity:0.5;fill:#221F1F;}
	.st8{fill-rule:evenodd;clip-rule:evenodd;fill:#E9C77E;}
	.st9{fill:#FFFFFF;}
</style>
<g>
	<g>
		<path class="st4" d="M7.9,9C7.4,9,6.8,9,6.4,9c-0.2,0-1,0-1.1,0C5,9.1,5,9,4.9,9.4C4.6,10.2,4.3,11,4,11.8
			c-0.3,0.8-0.6,1.5-0.9,2.3c-0.1,0.2-0.5,0.8-0.3,1.1c0.2,0.2,0.5,0.1,0.5,0.5c-0.1,0.7-1,0.4-1.5,0.5c-0.5,0-1.6,0.3-1.7-0.4
			c-0.1-0.4,0.3-0.6,0.6-0.6c0.5,0,0.3,0,0.5-0.5c0.6-1.2,1.5-3.1,1.9-4.3C3.5,9.2,4,8,4.4,7c0.8-1.8,1.7-3.7,2.6-5.6
			c0.5-1,1.3-1.7,2.5-1.3c0.3,0.1,0.6,0.2,0.8,0.5c0.1,0.2,0.2,0.3,0.2,0.5c0.1,0.7,0.4,1.8,0.4,2.6c0,0.7,0.2,1.4,0.2,2
			c0,1.1,0.2,1.4,0.2,2.8c0.1,0.5,0.1,2.5,0.2,3.1c0.1,1,0,1.7,0.6,2.5c0.1,0.1,0.3,0.3,0.5,0.1c0.3-0.1,0.4-0.5,0.7-0.6
			c0.6-0.2,0.3,0.8,0.2,1c-0.3,0.6-0.9,1.4-1.5,1.8c-0.5,0.3-1.5,0.1-1.9-0.4c-0.5-0.6-0.9-2.9-0.9-3.2C9,11.3,9.1,11,9,10.1
			c0-0.7-0.1-0.5-0.1-1.1C8.5,9.1,8.3,9,7.9,9z M8.2,7.7c0.3,0,0.6,0.1,0.6-0.2c0-1,0-2.1,0-3.2c0-0.2,0-1.2,0-1.4
			c0-0.2,0-2-0.5-1.1C8.2,2.1,8,2.3,7.9,2.6c-0.4,0.7-0.6,1.1-1,2c-0.4,0.9-0.6,1.3-1,2.1c-0.2,0.4-0.2,0.7-0.3,1c0.4,0,0.5,0,0.9,0
			C7.1,7.7,7.6,7.7,8.2,7.7z"/>
		<path class="st4" d="M19.4,7.1c0-0.3,0-1.1,0.1-1.5c0-0.3,0.2-1.2,0.2-1.5c0-1,0.2-1.5,0.2-2.6c0-0.2,0-0.3,0.1-0.5
			c0.1-0.2,0.2-0.2,0.3-0.2c0.5,0,0.3,0,1,0c0.3,0,0.7-0.1,0.7,0.2c0,0.1,0,0,0,0.2c0,0.4-0.1,0.9-0.2,1.3c-0.1,0.8-0.1,1.5-0.2,2.2
			c-0.1,1.1-0.2,2.1-0.3,3c0,0.1-0.1,1.3-0.2,1.6c0,0.7-0.1,1.4-0.2,2.1c0,0.7-0.1,1.3-0.1,2c0,0.6-0.2,1.5,0.3,1.6
			c0.4,0.3,0.7-0.7,0.8-1.1c0-0.2,0-0.5,0.2-0.7c0.2-0.5,0.5,0.1,0.4,0.4c0,0.4-0.2,1-0.3,1.4c-0.2,0.4-0.4,0.9-0.8,1.2
			c-0.9,0.6-1.7-0.3-1.8-0.8c-0.2,0.3-0.3,0.3-0.5,0.6c-0.3,0.3-0.3,0.3-0.6,0.4c-0.7,0.3-1.6,0.1-2.2-0.2c-0.6-0.3-0.9-0.9-1.3-1.5
			C15,14,15,13.4,14.9,12.7c0-0.7,0.1-1.5,0.3-2.2c0.2-0.7,0.5-1.4,1.1-2c0.1-0.2,0.5-0.7,1.1-0.8c0.5-0.1,0.7,0,0.9,0
			c0.5,0.1,0.8,0.9,0.9,1.1C19.3,8.2,19.4,7.7,19.4,7.1z M18.9,13c0.1-0.6,0.1-1.3,0.1-1.9c0.1-0.5,0.1-2.7-0.8-2.6
			c-0.7,0.1-1.1,0.9-1.3,1.4c-0.3,0.8-0.4,1.7-0.4,2.6c-0.1,0.9-0.3,3.3,1.1,3.1C18.5,15.2,18.8,13.7,18.9,13z"/>
		<path class="st4" d="M28.9,7.1c0-0.3,0-1.1,0.1-1.5c0-0.3,0.2-1.2,0.2-1.5c0-1,0.2-1.5,0.2-2.6c0-0.2,0-0.3,0.1-0.5
			c0.1-0.2,0.2-0.2,0.3-0.2c0.5,0,0.3,0,1,0c0.3,0,0.7-0.1,0.7,0.2c0,0.1,0,0,0,0.2c0,0.4-0.1,0.9-0.2,1.3c-0.1,0.8-0.1,1.5-0.2,2.2
			c-0.1,1.1-0.2,2.1-0.3,3c0,0.1-0.1,1.3-0.2,1.6c0,0.7-0.1,1.4-0.2,2.1c0,0.7-0.1,1.3-0.1,2c0,0.6-0.2,1.5,0.3,1.6
			c0.4,0.3,0.7-0.7,0.8-1.1c0-0.2,0-0.5,0.2-0.7c0.2-0.5,0.5,0.1,0.4,0.4c0,0.4-0.2,1-0.3,1.4c-0.2,0.4-0.4,0.9-0.8,1.2
			c-0.9,0.6-1.7-0.3-1.8-0.8c-0.2,0.3-0.3,0.3-0.5,0.6c-0.3,0.3-0.3,0.3-0.6,0.4c-0.7,0.3-1.6,0.1-2.2-0.2c-0.6-0.3-0.9-0.9-1.3-1.5
			c-0.2-0.6-0.3-1.3-0.3-1.9c0-0.7,0.1-1.5,0.3-2.2c0.2-0.7,0.5-1.4,1.1-2c0.1-0.2,0.5-0.7,1.1-0.8c0.5-0.1,0.7,0,0.9,0
			c0.5,0.1,0.8,0.9,0.9,1.1C28.8,8.2,28.8,7.7,28.9,7.1z M28.3,13c0.1-0.6,0.1-1.3,0.1-1.9c0.1-0.5,0.1-2.7-0.8-2.6
			c-0.7,0.1-1.1,0.9-1.3,1.4C26,10.7,26,11.5,26,12.4c-0.1,0.9-0.3,3.3,1.1,3.1C27.9,15.2,28.3,13.7,28.3,13z"/>
		<path class="st4" d="M34.7,9.3c0.7-1.4,1.9-2.2,3.4-1.8c1.6,0.4,1.7,2.2,1.5,3.8c-0.2,1.4-2.3,1.9-3.4,2c-0.4,0.4-0.2,1.2,0,1.7
			c0.4,0.7,1.6,0.1,2.1-0.3c0.7-0.5,1-1.1,1.2-1.9c0.2-0.9,1-0.7,0.7,0.2c-0.5,1.6-1.3,2.9-3,3.3c-1.4,0.3-3.2-0.5-3.4-2.1
			C33.6,11.8,33.9,10.9,34.7,9.3z M37,8.2c-0.6,0.5-0.7,1.7-0.8,2.5c0,0.3-0.1,0.7-0.1,1.1c0,0.5,1,0.3,1.3,0.2
			c0.8-0.1,0.9-2.4,0.9-3.1C38.3,8.3,37.7,7.7,37,8.2z"/>
		<path class="st4" d="M46.9,7.1c0-0.3,0-1.1,0.1-1.5c0-0.3,0.2-1.2,0.2-1.5c0-1,0.2-1.5,0.2-2.6c0-0.2,0-0.3,0.1-0.5
			c0.1-0.2,0.2-0.2,0.3-0.2c0.5,0,0.3,0,1,0c0.3,0,0.7-0.1,0.7,0.2c0,0.1,0,0,0,0.2c0,0.4-0.1,0.9-0.2,1.3c-0.1,0.8-0.1,1.5-0.2,2.2
			c-0.1,1.1-0.2,2.1-0.3,3c0,0.1-0.1,1.3-0.2,1.6c0,0.7-0.1,1.4-0.2,2.1c0,0.7-0.1,1.3-0.1,2c0,0.6-0.2,1.5,0.3,1.6
			c0.4,0.3,0.7-0.7,0.8-1.1c0-0.2,0-0.5,0.2-0.7c0.2-0.5,0.5,0.1,0.4,0.4c0,0.4-0.2,1-0.3,1.4c-0.2,0.4-0.4,0.9-0.8,1.2
			c-0.9,0.6-1.7-0.3-1.8-0.8c-0.2,0.3-0.3,0.3-0.5,0.6c-0.3,0.3-0.3,0.3-0.6,0.4c-0.7,0.3-1.6,0.1-2.2-0.2c-0.6-0.3-0.9-0.9-1.3-1.5
			c-0.2-0.6-0.3-1.3-0.3-1.9c0-0.7,0.1-1.5,0.3-2.2c0.2-0.7,0.5-1.4,1.1-2c0.1-0.2,0.5-0.7,1.1-0.8c0.5-0.1,0.7,0,0.9,0
			c0.5,0.1,0.8,0.9,0.9,1.1C46.7,8.2,46.8,7.7,46.9,7.1z M46.3,13c0.1-0.6,0.1-1.3,0.1-1.9c0.1-0.5,0.1-2.7-0.8-2.6
			c-0.7,0.1-1.1,0.9-1.3,1.4c-0.3,0.8-0.4,1.7-0.4,2.6c-0.1,0.9-0.3,3.3,1.1,3.1C45.9,15.2,46.2,13.7,46.3,13z"/>
		<path class="st4" d="M60.6,7.5C61,7.4,61,7.9,60.7,8.1c-0.4,0.4-0.6,0.1-0.8,0.8c-0.3,1.2-0.2,1.4-0.5,2.6
			c-0.1,0.7-0.2,1.2-0.3,1.8c-0.1,0.4-0.3,1.6,0,1.8c0.3,0.3,0.9-1.3,1.2-1.2c0.7,0.3-1,2.2-1.8,2.5c-2.8,0.9-1.9-2.5-1.7-4
			c0.2-1,0.2-1.4,0.4-2.6c0.1-0.5,0.1-0.7,0.2-1.2c-0.4-0.1-1.4,0-1.3-0.5c-0.1-0.5,0.4-0.5,0.7-0.6c1.1-0.2,1-0.3,1.6-1.8
			c0.4-1.3,0.7-1.1,2-1.1C61.2,4.6,59.6,7.7,60.6,7.5z"/>
		<path class="st4" d="M69.7,10.9c0.1,1.3,0.1,2.5-0.5,3.6c-0.5,0.8-1.2,1.4-2.2,1.7c-0.6,0.2-1.2,0.2-1.8,0c-0.5-0.1-1-0.3-1.3-0.7
			c-0.3-0.4-0.4-0.6-0.5-1.1c-0.1-0.3-0.2-0.8-0.2-1.1c0-0.3,0-0.7,0.1-1c0.1-0.5,0.2-1,0.4-1.5c0.1-0.2,0.1-0.3,0.3-0.6
			c0.1-0.1,0.3-0.6,0.4-0.8c0.6-0.9,1.1-1.3,2.1-1.6c0.4-0.2,0.9-0.1,1.3,0.1c0.1,0,0.8,0.3,1.4,1.2C69.5,9.6,69.6,10.3,69.7,10.9z
			 M65.8,15.4c0.5,0.1,0.8,0,1.1-0.2c0.5-0.3,0.5-0.9,0.6-1.4c0.1-0.7,0.2-1.5,0.2-2.2c0-0.8,0-1.9-0.3-2.6
			c-0.3-0.5-0.7-0.9-1.1-0.4c-0.4,0.4-0.4,1.4-0.5,1.9c-0.2,0.7-0.2,1.4-0.3,2.1c-0.1,0.8-0.2,1.7,0,2.5
			C65.5,15.3,65.6,15.4,65.8,15.4z"/>
		<path class="st4" d="M76.2,8.7c0.3-0.3,0.5-0.7,0.9-0.8c0.9-0.2,1.3,0.2,1.4,0.9c0.1-0.1,0.1-0.1,0.2-0.2c0.2-0.2,0.5-0.5,0.6-0.6
			c0.2-0.2,0.2-0.2,0.7-0.5c0.4-0.2,0.6-0.2,1-0.2c1.1,0,1.8,0.8,1.9,1.9c0.1,0.4,0,0.7,0,1.3c-0.1,0.4-0.1,0.5-0.2,1
			c0,0.4-0.1,0.9-0.2,1.4c-0.2,0.6-0.3,1.4-0.4,2.1c0,0.2,0.1,0.3,0.4,0.4c0.1-0.1,0.2-0.2,0.3-0.2c0.2,0,0.2,0,0.1,0.2
			c-0.1,0.5-0.9,1.1-1.4,1.1c-0.4-0.1-0.5-0.1-0.7-0.3c-0.3-0.4-0.3-0.6-0.2-1c0-0.4,0.1-0.6,0-1c0.1-0.4,0-0.8,0.1-1
			c0-0.3,0-0.5,0-0.8c0-0.2,0-0.6,0-0.8c0.1-0.6,0.1-1.2,0.1-1.9c0-0.6-0.4-1.7-0.7-1.7c-0.3,0-0.7,0.6-0.7,0.8
			c-0.2,1.2-0.4,2.5-0.5,3.6c-0.1,1.2-0.2,2.2-0.3,3.4c-0.1,0.4-0.2,0.6-0.5,0.5c-0.4,0-0.7,0-1.3-0.1c-0.3,0,0-1,0-1.4
			c0.1-0.5,0.1-0.7,0.2-1.2c0.1-0.5,0.1-1.1,0.2-1.7c0.1-0.6,0.2-1.1,0.3-1.7c0-0.5,0.1-1.1,0.1-1.5c-0.2-0.4-0.7,0-0.9,0.3
			c-0.1,0.3-0.3,0.8-0.6,1.2c-0.3,0.1-0.4-0.1-0.4-0.1c-0.2-0.3,0-0.5,0.1-0.9C75.9,9.1,76.1,8.8,76.2,8.7z"/>
		<path class="st4" d="M91.4,10.9c0.1,1.3,0.1,2.5-0.5,3.6c-0.5,0.8-1.2,1.4-2.2,1.7c-0.6,0.2-1.2,0.2-1.8,0c-0.5-0.1-1-0.3-1.3-0.7
			c-0.3-0.4-0.4-0.6-0.6-1.1c-0.1-0.3-0.2-0.8-0.2-1.1c0-0.3,0-0.7,0.1-1c0.1-0.5,0.2-1,0.4-1.5c0.1-0.2,0.1-0.3,0.3-0.6
			c0.1-0.1,0.3-0.6,0.4-0.8c0.6-0.9,1.1-1.3,2.1-1.6c0.4-0.2,0.9-0.1,1.3,0.1c0.1,0,0.8,0.3,1.4,1.2C91.1,9.6,91.2,10.3,91.4,10.9z
			 M87.5,15.4c0.5,0.1,0.8,0,1.1-0.2c0.5-0.3,0.5-0.9,0.6-1.4c0.1-0.7,0.2-1.5,0.2-2.2c0-0.8,0-1.9-0.3-2.6
			c-0.3-0.5-0.7-0.9-1.1-0.4c-0.4,0.4-0.4,1.4-0.5,1.9c-0.2,0.7-0.2,1.4-0.3,2.1c-0.1,0.8-0.2,1.7,0,2.5
			C87.1,15.3,87.3,15.4,87.5,15.4z"/>
		<path class="st4" d="M98.4,7.5c0.3-0.1,0.4,0.4,0.1,0.6c-0.4,0.4-0.6,0.1-0.8,0.8c-0.3,1.2-0.2,1.4-0.5,2.6
			c-0.1,0.7-0.2,1.2-0.3,1.8c-0.1,0.4-0.3,1.6,0,1.8c0.3,0.3,0.9-1.3,1.2-1.2c0.7,0.3-1,2.2-1.8,2.5c-2.8,0.9-1.9-2.5-1.7-4
			c0.2-1,0.2-1.4,0.4-2.6c0.1-0.5,0.1-0.7,0.2-1.2c-0.4-0.1-1.4,0-1.3-0.5c-0.1-0.5,0.4-0.5,0.7-0.6c1.1-0.2,1-0.3,1.6-1.8
			c0.4-1.3,0.7-1.1,2-1.1C98.9,4.6,97.4,7.7,98.4,7.5z"/>
		<path class="st4" d="M101.9,9.3c0.7-1.4,1.9-2.2,3.4-1.8c1.6,0.4,1.7,2.2,1.5,3.8c-0.2,1.4-2.3,1.9-3.4,2c-0.4,0.4-0.2,1.2,0,1.7
			c0.4,0.7,1.6,0.1,2.1-0.3c0.7-0.5,1-1.1,1.2-1.9c0.2-0.9,1-0.7,0.7,0.2c-0.5,1.6-1.3,2.9-3,3.3c-1.4,0.3-3.2-0.5-3.4-2.1
			C100.8,11.8,101.1,10.9,101.9,9.3z M104.2,8.2c-0.6,0.5-0.7,1.7-0.8,2.5c0,0.3-0.1,0.7-0.1,1.1c0,0.5,1,0.3,1.3,0.2
			c0.8-0.1,0.9-2.4,0.9-3.1C105.4,8.3,104.9,7.7,104.2,8.2z"/>
		<path class="st4" d="M113.6,7.7c0,0.3,0,0.6-0.1,0.8c0.2-0.1,0.4-0.3,0.6-0.5c0.3-0.2,0.6-0.4,0.9-0.5c0.4-0.1,0.7-0.1,1.1,0.1
			c0.3,0.2,0.6,0.4,0.8,0.8c0.8,1.3,0.4,3.1,0,4.4c-0.2,0.5-0.4,1-0.6,1.4c-0.2,0.4-0.6,1.1-1.1,1.4c-0.2,0.1-0.3,0.3-0.5,0.4
			c-0.3,0.1-1.1,0.2-1.4,0.1c-0.4-0.2-0.6-0.6-0.9-0.9c-0.1,0-0.3-0.4-0.3-0.5c-0.1,0.1-0.2,0.2-0.2,0.3c-0.1,0.2-0.2,0.3-0.4,0.5
			c-0.4,0.5-0.9,0.6-1.4,0.4c-0.5-0.1-0.8-0.4-1-0.8c-0.2-0.3-0.6-1.4-0.1-1.7c0.3-0.1,0.5,1.1,0.8,1.2c0.3,0.2,0.6-0.1,0.7-0.4
			c0.1-0.3,0.2-0.7,0.3-1.1c0-0.1,0.1-0.1,0.1-0.5c0-0.3,0-0.4,0.1-0.6c0-0.5,0.1-0.7,0.1-1.3c0-0.6,0-1.1,0.1-1.7
			c0.2-2.1,0.5-4.2,0.6-6.3c0.1-0.7,0.1-1.3,0.2-2c0-0.4,0.8-0.2,1.1-0.2c0.4,0,0.5-0.1,0.9,0c0.3,0.1,0.1,1.3,0,1.5
			c-0.1,0.5-0.1,1.1-0.2,1.6c0,0.2-0.2,2.7-0.2,3C113.6,7.1,113.6,7.6,113.6,7.7z M115.8,11.7c0.2-0.7,0.7-3.8-0.6-3.5
			c-0.3,0.1-0.6,0.2-0.8,0.4c-0.2,0.2-0.5,0.6-0.5,0.8c-0.3,0.6-0.4,1.1-0.5,1.7c0,0.5,0,0.9-0.1,1.4c0,0.4,0,0.5-0.1,0.7
			c0,0.3,0,0.4,0,0.5c0,0.4,0,0.6,0.2,0.9c0.1,0.2,0.2,0.3,0.4,0.4c0.2,0.1,0.3,0.1,0.5,0C115.4,14.3,115.6,12.8,115.8,11.7z"/>
		<path class="st4" d="M125.9,10.9c0.1,1.3,0.1,2.5-0.5,3.6c-0.5,0.8-1.2,1.4-2.2,1.7c-0.6,0.2-1.2,0.2-1.8,0
			c-0.5-0.1-1-0.3-1.3-0.7c-0.3-0.4-0.4-0.6-0.6-1.1c-0.1-0.3-0.2-0.8-0.2-1.1c0-0.3,0-0.7,0.1-1c0.1-0.5,0.2-1,0.4-1.5
			c0.1-0.2,0.1-0.3,0.3-0.6c0.1-0.1,0.3-0.6,0.4-0.8c0.6-0.9,1.1-1.3,2.1-1.6c0.4-0.2,0.9-0.1,1.3,0.1c0.1,0,0.8,0.3,1.4,1.2
			C125.6,9.6,125.8,10.3,125.9,10.9z M122,15.4c0.5,0.1,0.8,0,1.1-0.2c0.5-0.3,0.5-0.9,0.6-1.4c0.1-0.7,0.2-1.5,0.2-2.2
			c0-0.8,0-1.9-0.3-2.6c-0.3-0.5-0.7-0.9-1.1-0.4c-0.4,0.4-0.4,1.4-0.5,1.9c-0.2,0.7-0.2,1.4-0.3,2.1c-0.1,0.8-0.2,1.7,0,2.5
			C121.7,15.3,121.8,15.4,122,15.4z"/>
		<path class="st4" d="M134.7,10.9c0.1,1.3,0.1,2.5-0.5,3.6c-0.5,0.8-1.2,1.4-2.2,1.7c-0.6,0.2-1.2,0.2-1.8,0
			c-0.5-0.1-1-0.3-1.3-0.7c-0.3-0.4-0.4-0.6-0.5-1.1c-0.1-0.3-0.2-0.8-0.2-1.1c0-0.3,0-0.7,0.1-1c0.1-0.5,0.2-1,0.4-1.5
			c0.1-0.2,0.1-0.3,0.3-0.6c0.1-0.1,0.3-0.6,0.4-0.8c0.6-0.9,1.1-1.3,2.1-1.6c0.4-0.2,0.9-0.1,1.3,0.1c0.1,0,0.8,0.3,1.4,1.2
			C134.5,9.6,134.6,10.3,134.7,10.9z M130.8,15.4c0.5,0.1,0.8,0,1.1-0.2c0.5-0.3,0.5-0.9,0.6-1.4c0.1-0.7,0.2-1.5,0.2-2.2
			c0-0.8,0-1.9-0.3-2.6c-0.3-0.5-0.7-0.9-1.1-0.4c-0.4,0.4-0.4,1.4-0.5,1.9c-0.2,0.7-0.2,1.4-0.3,2.1c-0.1,0.8-0.2,1.7,0,2.5
			C130.5,15.3,130.6,15.4,130.8,15.4z"/>
		<path class="st4" d="M141.4,9c-0.3,0.8-0.7,1.7-1.2,2.5c0.3,0,0.5,0,0.8,0c0.5,0,0.9,0.4,0.8,0.3c0.8,0.8,0.6,1.9,0.4,2.9
			c0,0.5,0.2,1.1,0.7,1.1c0.4,0,0.5-0.5,0.8-0.2c0,0.7-0.6,1.1-1,1.2c-0.7,0.3-1.2,0.3-1.9-0.1c-0.4-0.3-0.7-0.9-0.8-1.4
			c-0.2-0.7,0.2-1.4,0-2.1c-0.2-0.6-0.5-0.6-0.8-0.1c-0.2,0.3-0.2,0.5-0.3,0.8c0,0.3-0.1,0.7-0.1,1.1c-0.1,0.3,0,0.7-0.2,1
			c0,0.3,0,0.2-0.2,0.2c-0.4,0-0.7,0-1.1,0c-0.3,0-0.4,0.1-0.7,0c0-0.7,0-0.4,0-0.8c0.1-0.6,0.1-1.2,0.2-1.9c0.1-0.7,0.1-1,0.2-1.6
			c0-0.3,0.1-0.6,0.1-0.9c0.2-0.9,0.2-1.7,0.2-2.7c0.1-0.8,0.2-2.2,0.2-2.8c0-0.6,0.1-1.8,0.1-2.5c0-0.5-0.3-0.4-0.7-0.5
			c-0.5-0.1-0.4-0.4,0-0.6c0.5-0.3,1.1,0.1,1.6,0c0.3-0.1,0.8-0.4,1-0.2c0.3,0.3,0.1,1.1,0.1,1.6c-0.1,0.7-0.2,2-0.3,2.7
			c-0.1,1.4-0.2,3.6-0.2,5c0.2-0.3,0.5-1.1,0.6-1.4c0.4-0.7,0.4-1.1,0.8-1.6c0.3-0.5,0.9-0.9,1.4-0.9c0.5-0.1,1.2,0.2,1.4,0.9
			c0.2,0.6,0.3,1.2-0.1,1.8c-0.4,0.6-1.1,0.5-1.2-0.2c-0.1-0.5,0-0.9,0.2-1.4c0-0.1,0.2-0.3,0.1-0.4c-0.1-0.2-0.5,0-0.5,0
			C141.8,7.9,141.6,8.7,141.4,9z"/>
	</g>
	<g>
		<path class="st5" d="M126,28.5c-9.7-0.1-19.3,0.1-28.9,0.4c-9.6,0.3-19.2,0.7-28.8,1.3c-9.6,0.6-19.2,1.2-28.8,2.2
			c-2.4,0.2-4.8,0.5-7.2,0.7c-2.4,0.3-4.8,0.5-7.2,0.9l-3.6,0.5l-3.6,0.6c-2.4,0.3-4.9,0.9-7.4,1.4l2.3,9.5c2.2-0.4,4.4-1,6.7-1.3
			l3.4-0.6l3.5-0.5c2.3-0.3,4.7-0.6,7-0.9c2.3-0.3,4.7-0.5,7.1-0.7c9.4-0.9,18.9-1.6,28.4-2.1c9.5-0.5,19-1,28.5-1.3
			c9.5-0.3,19-0.5,28.4-0.4L126,28.5z"/>
		<path class="st6" d="M35.2,41.8c-0.1,0-0.2,0.1-0.3,0.1C34.9,41.8,35.1,41.8,35.2,41.8z"/>
		<path class="st6" d="M29.9,35.7c-0.1,0-0.4,0.1-0.4,0C29.7,35.7,29.8,35.7,29.9,35.7z"/>
		<path class="st6" d="M29.4,35.6c0,0.1-0.2,0-0.3,0.1C29,35.6,29.3,35.6,29.4,35.6z"/>
		<path class="st6" d="M28.1,36.8c-0.1,0-0.3,0.1-0.3,0.1C27.8,36.8,28,36.8,28.1,36.8z"/>
		<path class="st6" d="M27.3,35.8c-0.1,0.1-0.3,0.1-0.6,0.1C26.8,35.9,27.1,35.9,27.3,35.8z"/>
		<path class="st6" d="M26.3,41.2c-0.3,0-0.9,0.2-1.1,0.1C25.5,41.4,26,41.2,26.3,41.2z"/>
		<path class="st6" d="M25.2,39.1c-0.4,0.2-1.1,0.1-1.5,0.3c-0.1-0.1,0.7-0.1,0.8-0.2c0.1,0,0.2,0,0.3,0C24.9,39.1,25,39,25.2,39.1z
			"/>
		<path class="st6" d="M20.5,39.4c0,0.1,0,0.1-0.1,0.1c0,0-0.1,0-0.1-0.1L20.5,39.4z"/>
		<path class="st6" d="M18.7,40.5c-0.3,0.2-1,0.3-1.4,0.3c0,0,0,0.1-0.1,0.1c-0.2,0.1-0.7,0.1-0.2,0C17.6,40.7,18.1,40.7,18.7,40.5z
			"/>
		<path class="st6" d="M18.3,39.4c-0.1,0-0.2,0.1-0.3,0.1C18,39.4,18.2,39.4,18.3,39.4z"/>
		<path class="st6" d="M18.4,42.6c0,0.1-0.3,0.1-0.4,0.1C18,42.6,18.3,42.5,18.4,42.6z"/>
		<path class="st6" d="M18,39.8c-0.1,0.1-0.4,0.1-0.5,0.2C17.3,39.9,17.8,39.9,18,39.8z"/>
		<path class="st6" d="M17.7,39.5c-0.1,0.1-0.4,0.1-0.6,0.2C17.2,39.6,17.5,39.6,17.7,39.5z"/>
		<path class="st6" d="M18,43.2c0,0.1-0.2,0.1-0.3,0.1C17.7,43.3,17.9,43.2,18,43.2z"/>
		<path class="st6" d="M17.7,42.7c-0.1,0.1-0.7,0.2-1,0.2C17.1,42.7,17.3,42.7,17.7,42.7z"/>
		<path class="st6" d="M17,39.7c-0.2,0.1-0.6,0.1-0.8,0.2C16.4,39.8,16.8,39.8,17,39.7z"/>
		<path class="st6" d="M16.6,40.9c-0.1,0.1-0.2,0.1-0.4,0.1C16.2,41,16.4,41,16.6,40.9z"/>
		<path class="st6" d="M16.1,40.8c-0.1,0.1-0.2,0.1-0.4,0.1C15.8,40.8,16,40.8,16.1,40.8z"/>
		<path class="st6" d="M15.6,40.6c0,0.1-0.4,0.2-0.3,0c0.1,0,0.1,0,0.1,0.1C15.5,40.6,15.5,40.6,15.6,40.6z"/>
		<path class="st6" d="M15,42.6C15.2,42.5,15.6,42.5,15,42.6L15,42.6z"/>
		<path class="st6" d="M14.6,43.6c-0.2,0.1-0.4,0.1-0.6,0.1C14.2,43.7,14.5,43.6,14.6,43.6z"/>
		<path class="st6" d="M14.5,43.7c0.1,0.1-0.3,0.1-0.2,0L14.5,43.7z"/>
		<path class="st6" d="M14.3,45.1c-0.1,0.1-0.2,0.1-0.3,0.1C14,45.1,14.3,45.1,14.3,45.1z"/>
		<path class="st6" d="M13,45.2C12.7,45.4,12.5,45.3,13,45.2L13,45.2z"/>
		<path class="st6" d="M23.7,43.3c-0.1,0-0.2,0.1-0.2,0.1c-0.2-0.1-0.4,0-0.6,0C23.1,43.4,23.4,43.5,23.7,43.3z"/>
		<path class="st6" d="M18,42.2c-0.1,0-0.1,0-0.2,0c0,0,0,0,0-0.1c-0.2,0-0.4,0.1-0.6,0.1c0,0,0,0,0-0.1c-0.3,0.2-0.6,0-1.2,0.2
			c0.5-0.3,1.7-0.4,2.2-0.5c-0.1,0.1-0.5,0.1-0.5,0.2C17.8,42.2,18,42.1,18,42.2z"/>
		<path class="st6" d="M17.1,40C17,40,17,40.1,17.1,40c0,0.1-0.2,0.1-0.2,0.1C16.9,40,17.5,39.9,17.1,40z"/>
		<path class="st6" d="M13.5,41L13.5,41c-0.3,0-0.8,0.1-1.1,0.1c0.4-0.1,1.2-0.1,1.4-0.3c0.1,0,0.2,0,0.3,0c0.8-0.3,1.8-0.4,2.7-0.6
			c-0.4,0.3-1.3,0.2-1.7,0.5c-0.1,0,0,0,0,0C14.7,40.7,14,40.8,13.5,41z"/>
		<path class="st6" d="M14.4,43.9c-0.1,0.1-0.2,0.1-0.3,0.2C14.1,44.1,14.3,43.9,14.4,43.9z"/>
		<path class="st6" d="M113.4,38.3c0.2,0,0.5-0.1,0.7-0.1c0.5,0,1,0.1,1.6,0c0.5,0,0.9-0.2,1.4-0.2c0.4,0,0.5-0.1,0.7-0.1
			c0.7-0.1,1.3-0.1,1.6-0.3c0.5-0.2,1.2-0.3,1.6-0.4c0.1,0,0.2,0,0.2,0c1.1-0.4,1.8-1,3.2-1.3c0.1-0.1,0.2-0.3,0.4-0.5
			c0.1-0.1,0.3-0.1,0.4-0.2c0.3-0.3,0-0.7,0.6-0.9c0-0.1-0.1-0.1-0.1-0.1c0-0.6-0.2-1.1,0-1.6c-0.4-0.3-0.3-0.6-0.5-0.9
			c-0.2-0.2-0.5-0.3-0.7-0.5c-0.2-0.2-0.5-0.3-0.7-0.5c0-0.2-0.3-0.2-0.4-0.4c-0.4-0.1-0.7-0.3-1.1-0.4c0-0.1-0.1-0.1-0.1-0.2
			c-0.8-0.3-1.7-0.7-2.8-0.8c-0.1,0-0.3,0-0.5,0c-0.8,0-2.2,0-2.6-0.3c-0.2,0-0.2,0-0.3,0c-0.1-0.1-0.6-0.3-0.9-0.3
			c-0.1,0-0.4,0.2-0.7,0.2c-0.4,0-0.9-0.2-1.3-0.1c-0.2,0-0.4,0.2-0.6,0.2c-0.5,0.1-1.5,0-1.9,0c-0.3,0-0.5-0.1-0.7-0.1
			c-0.2,0-0.4,0.2-0.4,0.3c-0.6,0.4-2.3,0.1-3.3,0.3c-0.7-0.1-1.4,0.1-2.1,0.1c-0.1,0-0.3,0-0.4,0c-0.2,0-0.6,0.1-0.9,0.1
			c-0.5,0.1-1,0.1-1.4,0.1c-0.7-0.2-1.1,0.1-1.7,0.1c-0.2,0-0.4-0.1-0.6-0.1c-0.2,0-0.4,0.1-0.6,0.1c-0.2,0-0.4-0.1-0.6-0.1
			c-0.2,0-0.3,0.1-0.4,0.1c-0.2,0-0.3-0.1-0.4,0c-0.2,0-0.4,0.1-0.6,0.1c-0.7,0.1-1.4,0-2.1,0.2c-1.2-0.1-2.2,0.2-3.6,0.1
			c-0.3,0.1-0.6,0.1-1,0.1c-0.1,0-0.1,0.1-0.2,0.1c-0.7,0-1.5,0.2-2.2,0.1c0,0-0.1,0.1-0.1,0.1c-1-0.1-2.3,0-3.1,0.1
			c-0.6-0.1-1.3,0.1-2.1,0.1c-0.4,0-0.7,0-1.1,0c-0.7,0.1-1.5,0.1-2.2,0.1c-0.2,0-0.4,0.1-0.6,0.1c-0.3,0-0.7,0-1,0
			c-1.4,0.2-2.9,0.2-4.2,0.3c-0.4,0-0.7,0.1-1.1,0.2c-0.7,0.1-1.4,0-2.1,0.1c-0.2,0-0.3,0.1-0.5,0.1c-0.4,0-0.8,0-1.2,0.1
			c-1.1,0.1-2.1,0.3-3.2,0.2c-1.3,0.2-3.2,0.3-4.6,0.4c-0.3,0.2-0.7,0.1-1,0.1c-1.1,0.1-2.4,0.4-3.5,0.4c-4.7,0.6-9.6,0.9-14.2,1.5
			c-0.4-0.1-0.9,0.1-1.2,0.2c-0.1-0.1-0.3,0-0.5,0c-0.6,0.2-1.3,0.2-2,0.3c-0.2,0.2-0.6,0.1-0.9,0.2c-0.1-0.1,0.2-0.1-0.1-0.1
			c-0.4,0.3-2.1,0.4-2.8,0.5c0.1,0,0.1,0,0,0c-0.2-0.1-0.2,0.1-0.4,0.1c-1.3,0.2-2.2,0.6-3.3,0.8c-0.1,0-0.5-0.1-0.7,0
			c0.2,0,0.5,0,0.5,0.1c-0.3,0-0.8,0.1-1,0.2c-0.4,0.1-0.6,0-1,0.2c-0.1,0,0.1,0.1-0.1,0.1c-0.6,0-0.9,0.2-1.4,0.2
			c-0.1,0.1-0.7,0.2-0.9,0.2c-0.2,0.1,0.2,0.1,0.1,0.1c-0.5,0.1-0.9,0.2-1.3,0.2c-0.1,0.1-0.2,0.1-0.3,0.2c-0.1,0,0-0.1-0.2-0.1
			c-0.2,0.1,0.1,0.1,0.1,0.2c-0.2,0.1-0.2,0.1-0.3,0.2c-0.3,0-0.5,0.1-0.8,0.2c-0.3,0.1-0.6,0.1-0.9,0.2c-0.2,0.1-0.3,0.2-0.6,0.2
			c-0.2,0-0.4,0-0.7,0c-0.1,0,0.1,0.1-0.1,0.1c-0.9,0.2-1.8,0.4-2.5,0.6c1-0.4,1.8-0.3,2.7-0.6c0.2,0.1,0.4-0.1,0.6,0
			c0.1-0.1-0.2-0.1,0-0.1c0.1,0,0.1,0,0.2,0c-0.1,0.1,0.1,0.1,0.2,0.2c0.8-0.1,1.4-0.3,2-0.4c0.1,0-0.1-0.1,0-0.1
			c0.3-0.1,0.4-0.1,0.7-0.1c0.1,0.1,0.3,0.1,0.2,0.2c-0.9,0.1-2.1,0.4-3.2,0.6c-0.3,0.1-0.7,0-0.8,0.2c0.5-0.1,0.9,0,1.3-0.1
			c0.5-0.1,1.1-0.3,1.6-0.3c0.1,0,0.2,0,0.4,0c0.1,0,0.3-0.1,0.4-0.1c0.1,0,0.1,0,0.3,0c0.2,0,0.4-0.1,0.6-0.2
			c0.4-0.1,0.8,0,1.3-0.1c0.1,0,0.1,0.1,0,0.2c-0.5,0.1-0.6,0.1-1.2,0.2c0.1,0,0.1,0,0.1,0.1c-0.2,0-0.2,0-0.3,0.1
			c0.4-0.1,0.4,0.1,0.3,0.2c-1,0.1-2.3,0.4-3.1,0.4c-0.1,0.1-0.1,0.1-0.3,0.2c-0.9,0.2-2,0.3-3,0.5c1.2,0,2.4-0.3,3.7-0.6
			c0.1,0,0,0.1,0.2,0.1c0.6-0.1,1.2-0.2,1.7-0.3c0.2,0.1,0.4,0.2,0.6,0.2c1.4-0.3,2.5,0,3.8-0.2c0,0.1,0.1,0.1,0.2,0.1
			c-0.1,0.1-0.2,0.2-0.3,0.2c-0.2,0-0.4,0.1-0.6,0.1c-1.1,0.4-2.7,0.4-4.1,0.7c-0.2,0.1,0,0.2,0.1,0.3c0.7,0,1.3-0.3,2-0.2
			c0.3,0.2,0.1,0.5-0.5,0.6c-0.9,0.1-2.5,0.3-3.1,0.4c-1.3,0.3-2.6,0.5-4,0.8c-0.7,0.1-1.3,0.2-2,0.4c-0.6,0.2-1.3,0.3-2,0.5
			c0.7-0.1,1.4-0.3,2.1-0.5c0.7-0.1,1.4-0.3,2.1-0.3c0-0.1,0-0.1,0.1-0.1c1.3-0.2,2.8-0.5,4-0.7c0.5,0.1,1.4-0.2,2-0.1
			c-0.1,0.3-0.5,0.5-1,0.6c0.5-0.1,1-0.1,1.5-0.1c0.4,0,1-0.2,1.2-0.2c0,0,0,0.1,0.1,0.1c-0.1,0,0.3-0.1,0.3-0.1
			c0.2-0.1,0.2-0.1,0.4-0.1c0.3,0,0.3,0,0.5,0c1-0.1,2-0.3,3.1-0.4c0.1,0,0.3,0,0.3,0c0.1,0,0,0.1,0.2,0.1c0.1,0,0-0.1,0.1-0.1
			c0.4,0,0.9-0.1,1.3-0.1c1-0.1,2.2-0.2,3-0.3c0.2,0,0,0.1,0.2,0.1c1.4-0.1,3-0.2,4.5-0.3c0.1,0,0,0.1,0.2,0.1
			c0.2,0,0.2-0.1,0.3-0.1c0.1,0,0.2,0,0.3,0.1c1.8-0.1,3.6-0.3,5.4-0.5c1.7-0.2,3.4-0.3,5-0.5c1.3-0.1,2.5-0.3,3.6-0.3
			c1.5-0.2,2.8-0.3,4.3-0.4c1-0.1,2.2-0.1,3-0.2c0.1,0,0.3-0.1,0.5-0.1c0.3,0,0.5,0,0.8,0c0.7,0,1.4-0.2,2.1-0.2
			c0.8,0,1.6-0.1,2.3-0.1c0.4,0,0.9-0.1,1.3-0.2c0.3,0,0.6,0,0.9,0c0.8,0,1.7-0.2,2.5-0.2c1.1,0,2.2,0,3.2-0.2
			c1.2,0,2.6-0.1,3.8-0.2c0.9,0.1,1.9-0.1,2.9-0.1c0.1,0,0.2,0,0.3,0c1.6,0.1,3.3-0.3,4.6-0.2c0.5-0.1,0.9,0,1.3,0
			c0.5,0,0.9-0.1,1.4-0.1c0.2,0,0.3,0,0.4,0c0.5,0,0.9-0.1,1.4-0.1c0.8-0.1,1.6,0.1,2.5,0c0.7,0.1,1.7,0.1,2.5,0
			c1.3,0.1,2.7-0.1,4-0.1c0.5,0,0.9,0.1,1.3,0c0.5,0.1,1.1,0,1.6,0c0.6,0,1.2,0.1,1.8,0.1c0.9,0,1.9-0.1,2.6,0.1
			c0.3,0.5,0.9-0.3,1.5-0.2c0.4,0.1,0.3,0.3,0.5,0.5c0.3,0.1,0.6,0,0.9,0C112.6,38.1,112.9,38.3,113.4,38.3z M26,37.8
			C26,37.8,26,37.8,26,37.8C26,37.7,26.3,37.8,26,37.8z M25.9,37.9c-0.4,0.1-1,0.3-1.3,0.2c-0.1,0,0.1,0.1,0,0.2
			c-0.2,0-0.4-0.1-0.7,0c0-0.2,0.6-0.2,0.6-0.3c0.2,0,0.4,0,0.4-0.1c0.5,0,0.6-0.1,0.9-0.1C25.7,37.8,25.9,37.8,25.9,37.9z"/>
	</g>
</g>
</svg>
