<?xml version="1.0" encoding="utf-8"?>
<!-- Generator: Adobe Illustrator 22.1.0, SVG Export Plug-In . SVG Version: 6.00 Build 0)  -->
<svg version="1.1" id="Layer_1" xmlns="http://www.w3.org/2000/svg" xmlns:xlink="http://www.w3.org/1999/xlink" x="0px" y="0px"
	 viewBox="0 0 44.8 11.8" style="enable-background:new 0 0 44.8 11.8;" xml:space="preserve">
<style type="text/css">
	.st0{fill-rule:evenodd;clip-rule:evenodd;fill:#313536;}
	.st1{fill:#231F20;}
	.st2{fill:#F0D5A7;}
	.st3{fill:#353030;}
	.st4{fill-rule:evenodd;clip-rule:evenodd;fill:#231F20;}
	.st5{fill:#FAFAFA;}
	.st6{fill:none;}
	.st7{fill-rule:evenodd;clip-rule:evenodd;fill:#F0D5A7;}
	.st8{opacity:0.5;fill:#221F1F;}
	.st9{fill-rule:evenodd;clip-rule:evenodd;fill:#E9C77E;}
	.st10{fill:#FFFFFF;}
</style>
<g>
	<g>
		<path class="st1" d="M5.1,0.2c0.9,0,1.8,0,2.6,0.5c0.9,0.6,1.4,1.4,1.4,2.5c0,1.3-0.9,2.2-2.1,2.5v0C8.5,6,9.5,7.1,9.5,8.6
			c0,1-0.6,1.9-1.4,2.5c-0.8,0.6-2,0.6-2.9,0.6H0V0.2H5.1z M2.7,4.7h1.8c0.5,0,1,0,1.4-0.3c0.3-0.2,0.5-0.7,0.5-1
			c0-0.4-0.2-0.8-0.6-1C5.5,2.2,4.8,2.2,4.3,2.2H2.7V4.7z M2.7,9.5h1.9c0.5,0,1.1,0,1.5-0.3C6.5,9,6.7,8.6,6.7,8.1
			C6.7,7.7,6.4,7.2,6,7C5.6,6.8,5.1,6.8,4.7,6.8h-2V9.5z"/>
		<path class="st1" d="M21.3,11.7h-2.9l-0.7-2.4H14l-0.7,2.4h-2.4l3.7-11.5h3.1L21.3,11.7z M17.1,7.2l-1.2-4l-1.2,4H17.1z"/>
		<path class="st1" d="M29.9,4.6c0-1.3-0.5-2.5-1.9-2.5c-1.9,0-2.1,2.5-2.1,3.9c0,1.6,0.2,3.6,2.2,3.6c1.3,0,1.8-1.1,2-2.2l2.6,0.2
			c-0.3,2.6-2.1,4.2-4.7,4.2c-3.4,0-5.1-2.8-5.1-5.9c0-3.2,1.7-5.9,5.2-5.9c2.9,0,4.4,1.7,4.7,4.4L29.9,4.6z"/>
		<path class="st1" d="M38,5.6l3.6-5.4h2.6l-2.8,4.1l3.5,7.4h-3l-2.3-5L38,9v2.6h-2.6V0.2H38V5.6z"/>
	</g>
</g>
</svg>
