<?xml version="1.0" encoding="utf-8"?>
<!-- Generator: Adobe Illustrator 22.1.0, SVG Export Plug-In . SVG Version: 6.00 Build 0)  -->
<svg version="1.1" id="Layer_1" xmlns="http://www.w3.org/2000/svg" xmlns:xlink="http://www.w3.org/1999/xlink" x="0px" y="0px"
	 viewBox="0 0 150.6 46.1" style="enable-background:new 0 0 150.6 46.1;" xml:space="preserve">
<style type="text/css">
	.st0{fill-rule:evenodd;clip-rule:evenodd;fill:#313536;}
	.st1{fill:#231F20;}
	.st2{fill:#F0D5A7;}
	.st3{fill:#353030;}
	.st4{fill:#FAFAFA;}
	.st5{fill:none;}
	.st6{fill-rule:evenodd;clip-rule:evenodd;fill:#F0D5A7;}
	.st7{opacity:0.5;fill:#221F1F;}
	.st8{fill-rule:evenodd;clip-rule:evenodd;fill:#E9C77E;}
	.st9{fill:#FFFFFF;}
</style>
<g>
	<g>
		<path class="st4" d="M11.3,8.7c0.5,0.8,0.8,1.4,0.8,2.4c0,0.3,0,0.8-0.1,1.5c-0.1,0.8-0.3,1.7-0.8,2.3c-0.4,0.4-1,0.9-1.6,1.2
			c-0.2,0.1-1.4,0.2-1.7,0.2c-0.9,0-2.8-0.1-3.8,0c-0.3,0-0.6,0-0.9,0c-0.6,0-1.3,0-2,0c-0.5,0-1.1,0-1.2-0.7
			c-0.1-0.7,1.4-0.5,1.7-0.6C2.3,14.7,2,14,2.2,13.4c0-1,0.2-1.4,0.2-2.2C2.6,9.6,2.8,8,2.9,6.4c0.1-1.5,0.3-2.5,0.4-4
			c0-0.4,0.1-0.8,0.1-1.2c-0.1-0.7-1,0.1-1.2-0.5C1.8,0.1,2.8,0,3.2,0.1C4,0.1,4.7,0,5.6,0c0.6,0,1,0,1.7,0c0.5,0,0.9,0,1.4,0
			c1.1-0.1,2.3,0.5,2.8,1.6c0.3,0.5,0.4,0.6,0.5,1.4c0,0.3,0,1,0,1.1c0,0.3-0.1,0.9-0.2,1.2c-0.2,0.6-0.3,0.8-0.7,1.3
			c-0.2,0.3-1,0.9-1.4,1.1C9.6,7.7,11,8.3,11.3,8.7z M4.7,14.1c0,0.3-0.1,0.5-0.1,0.8c0,0.5,2.8,0.3,3,0.3c0.4,0,1.1-0.2,1.3-0.3
			C9,14.7,9.3,14.5,9.5,14c0.2-0.4,0.3-0.5,0.4-1.3c0.1-1-0.3-2-0.7-2.9s-1.2-1-2-1.1c-0.8,0-1.4-0.1-2,0.1C5.1,9.3,5.1,9.7,5,10.2
			c0,0-0.1,1.1-0.1,1.8C4.8,12.6,4.8,13.3,4.7,14.1z M10,5c0.2-1.1,0.3-2.9-0.8-3.7C8.7,1,7.8,0.7,7.1,0.9C6.7,1,6.7,1,6.5,1.4
			C6.4,1.6,6.4,2,6.3,2.3C6.2,3.2,6.1,4,6,4.9C5.9,5.7,5.8,6.3,5.8,7c0.3,0,0.7,0.2,1.1,0.1c0,0,1.3-0.1,1.9-0.3
			C9.3,6.5,9.9,5.7,10,5z"/>
		<path class="st4" d="M15.2,9.3c0.7-1.4,1.9-2.2,3.4-1.8c1.6,0.4,1.7,2.2,1.5,3.8c-0.2,1.4-2.3,1.9-3.4,2c-0.4,0.4-0.2,1.2,0,1.7
			c0.4,0.7,1.6,0.1,2.1-0.3c0.7-0.5,1-1.1,1.2-1.9c0.2-0.9,1-0.7,0.7,0.2c-0.5,1.6-1.3,2.9-3,3.3c-1.4,0.3-3.2-0.5-3.4-2.1
			C14.1,11.8,14.5,10.9,15.2,9.3z M17.6,8.3c-0.6,0.5-0.7,1.7-0.8,2.5c0,0.3-0.1,0.7-0.1,1.1c0,0.5,1,0.3,1.3,0.2
			c0.8-0.1,0.9-2.4,0.9-3.1C18.8,8.4,18.3,7.7,17.6,8.3z"/>
		<path class="st4" d="M24.5,19.5c0.2-0.2,0.5,0.6,0.5,0.8c0.7,1.1,0.9,1.1,1.3,0.6c0.4-0.4,0.5-1.6,0.6-2.1c0-0.5,0.1-1.4,0.1-2.1
			c0.1-0.7-0.1-1.1-0.3-1c-0.4,0.3-0.5,0.3-0.9,0.4s-0.6,0-0.9,0c-0.6-0.1-1-0.3-1.4-0.7c-0.9-0.7-0.7-1.9-0.7-3
			c0-0.6,0.1-0.4,0.1-0.9c0.2-0.8,0.5-1.1,0.7-1.5c0.5-0.9,1.3-1.5,2.4-1.7c0.7-0.1,1.1,0.2,1.6,0.6c0,0,0.1-1.4,0.2-1.5
			c0.2-0.3,0.8-0.2,1-0.2c0.3,0,0.8-0.2,0.8,0.3c0,0.5-0.1,1-0.2,1.5c-0.1,0.7-0.1,1.3-0.2,1.9c-0.1,0.9-0.2,2.1-0.3,3
			c-0.1,1.3-0.3,2.7-0.4,3.9c-0.1,0.6-0.1,1.2-0.2,1.8c-0.1,0.7-0.1,1.1-0.4,1.6c-0.4,0.5-0.7,0.9-1.2,1.2c-0.3,0.1-0.5,0.1-0.8,0.1
			c-0.3,0-0.7-0.1-1-0.3C24.1,21.7,24.1,20.5,24.5,19.5z M26.4,15c0.6-0.8,0.6-0.8,0.7-2.2c0.1-1.5,0.5-3.8-0.8-3.9
			c-0.5,0.2-0.8,0.8-1,1.3c-0.4,0.8-0.5,1.7-0.5,2.5c0,0.5-0.1,1.9,0.2,2.3C25.2,15.6,26.2,15.4,26.4,15z"/>
		<path class="st4" d="M34.2,11.1c-0.2,1-0.4,2.5-0.3,3.5c0.1,0.9,0.9-0.7,1.2-0.8c0.9-0.3-0.4,1.8-0.7,2.1
			c-0.7,0.9-2.5,0.5-2.6-0.5c-0.1-1.3,0-1.7,0.3-3.6c0.2-1.5,0.3-2,0.3-3c0-0.6,0-1.1,0.8-1.2c0.5,0,1.6-0.3,1.6,0.3
			C34.6,9.2,34.3,10,34.2,11.1z M33.6,6.3c-1-0.6,0.2-1.9,1-1.3C35.3,5.7,34.4,6.7,33.6,6.3z"/>
		<path class="st4" d="M37.7,8.7C38,8.4,38.2,8,38.6,7.9c0.9-0.2,1.3,0.2,1.4,0.9c0.1-0.1,0.1-0.1,0.2-0.2c0.2-0.2,0.5-0.5,0.6-0.6
			c0.2-0.2,0.2-0.2,0.7-0.5c0.4-0.2,0.6-0.2,1-0.2c1.1,0,1.8,0.8,1.9,1.9c0.1,0.4,0,0.7,0,1.3c-0.1,0.4-0.1,0.5-0.2,1
			c0,0.4-0.1,0.9-0.2,1.4c-0.2,0.6-0.3,1.4-0.4,2.1c0,0.2,0.1,0.3,0.4,0.4c0.1-0.1,0.2-0.2,0.3-0.2c0.2,0,0.2,0,0.1,0.2
			c-0.1,0.5-0.9,1.1-1.4,1.1c-0.4-0.1-0.6-0.1-0.7-0.3c-0.3-0.4-0.3-0.6-0.2-1c0-0.4,0.1-0.6,0-1c0.1-0.4,0-0.8,0.1-1
			c0-0.3,0-0.5,0-0.8c0-0.2,0-0.6,0-0.8c0.1-0.6,0.1-1.2,0.1-1.9C42.4,9.1,42,8,41.7,8c-0.3,0-0.7,0.6-0.7,0.8
			c-0.2,1.2-0.4,2.5-0.5,3.6c-0.1,1.2-0.2,2.2-0.3,3.4c-0.1,0.4-0.2,0.6-0.5,0.5c-0.4,0-0.7,0-1.3-0.1c-0.3,0,0-1,0-1.4
			c0.1-0.5,0.1-0.7,0.2-1.2c0.1-0.5,0.1-1.1,0.2-1.7s0.2-1.1,0.3-1.7c0-0.5,0.1-1.1,0.1-1.5c-0.2-0.4-0.7,0-0.9,0.3
			c-0.1,0.3-0.3,0.8-0.6,1.2c-0.3,0.1-0.4-0.1-0.4-0.1c-0.2-0.3,0-0.5,0.1-0.9C37.4,9.2,37.6,8.8,37.7,8.7z"/>
		<path class="st4" d="M52.9,11.1c-0.2,1-0.4,2.5-0.3,3.5c0.1,0.9,0.9-0.7,1.2-0.8c0.9-0.3-0.4,1.8-0.7,2.1
			c-0.7,0.9-2.5,0.5-2.6-0.5c-0.1-1.3,0-1.7,0.3-3.6c0.2-1.5,0.3-2,0.3-3c0-0.6,0-1.1,0.8-1.2c0.5,0,1.6-0.3,1.6,0.3
			C53.4,9.2,53.1,10,52.9,11.1z M52.4,6.3c-1-0.6,0.2-1.9,1-1.3C54,5.7,53.2,6.7,52.4,6.3z"/>
		<path class="st4" d="M56.5,8.7C56.7,8.4,57,8,57.4,7.9c0.9-0.2,1.3,0.2,1.4,0.9c0.1-0.1,0.1-0.1,0.2-0.2c0.2-0.2,0.5-0.5,0.6-0.6
			c0.2-0.2,0.2-0.2,0.7-0.5c0.4-0.2,0.6-0.2,1-0.2c1.1,0,1.8,0.8,1.9,1.9c0.1,0.4,0,0.7,0,1.3c-0.1,0.4-0.1,0.5-0.2,1
			c0,0.4-0.1,0.9-0.2,1.4c-0.2,0.6-0.3,1.4-0.4,2.1c0,0.2,0.1,0.3,0.4,0.4c0.1-0.1,0.2-0.2,0.3-0.2c0.2,0,0.2,0,0.1,0.2
			c-0.1,0.5-0.9,1.1-1.4,1.1c-0.4-0.1-0.6-0.1-0.7-0.3c-0.3-0.4-0.3-0.6-0.2-1c0-0.4,0.1-0.6,0-1c0.1-0.4,0-0.8,0.1-1
			c0-0.3,0-0.5,0-0.8c0-0.2,0-0.6,0-0.8c0.1-0.6,0.1-1.2,0.1-1.9c0-0.6-0.4-1.7-0.7-1.7c-0.3,0-0.7,0.6-0.7,0.8
			c-0.2,1.2-0.4,2.5-0.5,3.6c-0.1,1.2-0.2,2.2-0.3,3.4c-0.1,0.4-0.2,0.6-0.5,0.5c-0.4,0-0.7,0-1.3-0.1c-0.3,0,0-1,0-1.4
			c0.1-0.5,0.1-0.7,0.2-1.2c0.1-0.5,0.1-1.1,0.2-1.7s0.2-1.1,0.3-1.7c0-0.5,0.1-1.1,0.1-1.5c-0.2-0.4-0.7,0-0.9,0.3
			c-0.1,0.3-0.3,0.8-0.6,1.2c-0.3,0.1-0.4-0.1-0.4-0.1c-0.2-0.3,0-0.5,0.1-0.9C56.2,9.2,56.4,8.8,56.5,8.7z"/>
		<path class="st4" d="M71.6,10.3c0.1-0.5,0.4-2.8-0.8-2.1c-0.9,0.6,0.8,1.6,0.3,2.3c-0.8,1.2-1.7-0.5-1.7-1.2
			c0-1.2,1.2-2.2,2.3-1.6c1,0.5,1,1.8,0.9,2.8c-0.2,1.4-0.9,2.5-1.6,3.6c-0.7,1-1.6,1.7-2.7,2c-0.5,0.2-1.1,0.3-1.6,0.2
			c-0.8-0.1-1.1-0.4-1.1-1.1c0.1-1.2,0.3-2.4,0.3-3.6c0-1,0.4-2.7-0.3-3.4c-0.2-0.2-0.6,0.1-0.6-0.2c0-0.3,0.6-0.4,0.9-0.4
			c0.9,0,1.7,0.3,1.8,1.3c0.2,1.1,0.1,1.8,0,3c-0.1,1.3-0.4,2.4-0.4,3.6C69.8,15.4,71.3,12.1,71.6,10.3z"/>
		<path class="st4" d="M75.3,9.3c0.7-1.4,1.9-2.2,3.4-1.8c1.6,0.4,1.7,2.2,1.5,3.8c-0.2,1.4-2.3,1.9-3.4,2c-0.4,0.4-0.2,1.2,0,1.7
			c0.4,0.7,1.6,0.1,2.1-0.3c0.7-0.5,1-1.1,1.2-1.9c0.2-0.9,1-0.7,0.7,0.2c-0.5,1.6-1.3,2.9-3,3.3c-1.4,0.3-3.2-0.5-3.4-2.1
			C74.2,11.8,74.5,10.9,75.3,9.3z M77.6,8.3c-0.6,0.5-0.7,1.7-0.8,2.5c0,0.3-0.1,0.7-0.1,1.1c0,0.5,1,0.3,1.3,0.2
			c0.8-0.1,0.9-2.4,0.9-3.1C78.9,8.4,78.3,7.7,77.6,8.3z"/>
		<path class="st4" d="M86.1,7.4c0.5-0.1,1,0,1.5,0.4c0.4,0.3,0.5,0.7,0.4,0.9c0,0.6-0.1,1-0.4,1.1c-0.5,0.1-0.8,0.2-1.1-0.2
			c-0.1-0.2-0.2-0.4,0-0.7c0-0.2,0.2-0.5,0.3-0.6c0.5-0.6-1-0.3-1.3,0c-0.4,0.3-0.3,0.3-0.5,0.7c-0.2,0.5,0,0.8,0.4,1.1
			c0.4,0.3,0.7,0.5,1.1,0.8c0.3,0.3,0.7,0.7,1,1.1c0.6,0.8,0.9,1.6,0.5,2.6c-0.3,0.8-1.1,1.3-1.8,1.6c-0.7,0.3-1.6,0.3-2.3-0.1
			c-0.4-0.2-0.7-0.5-0.9-0.9c-0.2-0.4-0.3-1.1-0.2-1.6c0.2-0.4,0.3-0.6,0.6-0.8c0.6-0.3,0.7-0.2,1.2,0.1c0.3,0.2,0.3,0.3,0,0.9
			c-0.3,0.6-0.8,0.4-1.1,0.1c-0.3,0.4,0.1,1,0.3,1.2c0.3,0.3,0.4,0.3,0.9,0.3c0.2,0,0.4-0.1,0.6-0.2c0.2-0.1,0.5-0.3,0.6-0.6
			c0.2-0.4,0.1-0.5,0-0.8c0-0.4-0.2-0.7-0.4-1c-0.3-0.6-0.8-1-1.2-1.6c-0.4-0.6-0.5-2,0.1-2.9C84.8,7.6,86.1,7.4,86.1,7.4z"/>
		<path class="st4" d="M95.2,7.5c0.3-0.1,0.4,0.4,0.1,0.6c-0.4,0.4-0.6,0.1-0.8,0.8c-0.3,1.2-0.2,1.4-0.5,2.6
			c-0.1,0.7-0.2,1.2-0.3,1.8c-0.1,0.4-0.3,1.6,0,1.8c0.3,0.3,0.9-1.3,1.2-1.2c0.7,0.3-1,2.2-1.8,2.5c-2.8,0.9-1.9-2.5-1.7-4
			c0.2-1,0.2-1.4,0.4-2.6C92,9.2,92,9.1,92.1,8.6c-0.4-0.1-1.4,0-1.3-0.5c-0.1-0.5,0.4-0.5,0.7-0.6c1.1-0.2,1-0.3,1.6-1.8
			c0.4-1.3,0.7-1.1,2-1.1C95.8,4.6,94.2,7.8,95.2,7.5z"/>
		<path class="st4" d="M100.3,11.1c-0.2,1-0.4,2.5-0.3,3.5c0.1,0.9,0.9-0.7,1.2-0.8c0.9-0.3-0.4,1.8-0.7,2.1
			c-0.7,0.9-2.5,0.5-2.6-0.5c-0.1-1.3,0-1.7,0.3-3.6c0.2-1.5,0.3-2,0.3-3c0-0.6,0-1.1,0.8-1.2c0.5,0,1.6-0.3,1.6,0.3
			C100.7,9.2,100.5,10,100.3,11.1z M99.7,6.3c-1-0.6,0.2-1.9,1-1.3C101.4,5.7,100.5,6.7,99.7,6.3z"/>
		<path class="st4" d="M105.4,19.5c0.2-0.2,0.5,0.6,0.5,0.8c0.7,1.1,0.9,1.1,1.3,0.6c0.4-0.4,0.5-1.6,0.6-2.1c0-0.5,0.1-1.4,0.1-2.1
			c0.1-0.7-0.1-1.1-0.3-1c-0.4,0.3-0.6,0.3-0.9,0.4s-0.6,0-0.9,0c-0.6-0.1-1-0.3-1.4-0.7c-0.9-0.7-0.7-1.9-0.7-3
			c0-0.6,0.1-0.4,0.1-0.9c0.2-0.8,0.5-1.1,0.7-1.5c0.5-0.9,1.3-1.5,2.4-1.7c0.7-0.1,1.1,0.2,1.6,0.6c0,0,0.1-1.4,0.2-1.5
			c0.2-0.3,0.8-0.2,1-0.2c0.3,0,0.8-0.2,0.8,0.3c0,0.5-0.1,1-0.2,1.5c-0.1,0.7-0.1,1.3-0.2,1.9c-0.1,0.9-0.2,2.1-0.3,3
			c-0.1,1.3-0.3,2.7-0.4,3.9c-0.1,0.6-0.1,1.2-0.2,1.8c-0.1,0.7-0.1,1.1-0.4,1.6c-0.4,0.5-0.7,0.9-1.2,1.2c-0.3,0.1-0.5,0.1-0.8,0.1
			c-0.3,0-0.7-0.1-1-0.3C105.1,21.7,105.1,20.5,105.4,19.5z M107.3,15c0.6-0.8,0.6-0.8,0.7-2.2c0.1-1.5,0.5-3.8-0.8-3.9
			c-0.5,0.2-0.8,0.8-1,1.3c-0.4,0.8-0.5,1.7-0.5,2.5c0,0.5-0.1,1.9,0.2,2.3C106.2,15.6,107.1,15.4,107.3,15z"/>
		<path class="st4" d="M119.2,9.6c-0.1,0.6-0.2,1.1-0.3,1.6c-0.1,0.5-0.2,1.1-0.2,1.7c0,0.1,0,0.6-0.1,0.9c-0.1,0.5-0.1,0.9,0,1.3
			c0.5,0.2,0.4-1.3,1-1.7c0.5-0.3,0.1,1.1,0.1,1.2c-0.2,0.7-0.5,1.3-1.3,1.5c-0.3,0.1-0.5,0.1-0.7,0.1c-0.2,0-0.5-0.1-0.7-0.3
			c-0.3-0.4-0.2-0.2-0.3-0.6c0,0-0.1-0.3-0.1-0.3c-0.2,0.2-0.3,0.3-0.5,0.5c-0.3,0.3-0.6,0.5-0.9,0.5c-0.8,0.1-1.4-0.2-1.8-0.6
			c-0.9-0.8-0.8-2.4-0.6-3.5c0.1-0.5,0.1-1.1,0.3-1.7c0.3-0.8,0.5-1.2,1-1.9c0.4-0.5,1-1,1.7-1c0.7,0,1.4,0.4,1.6,1.1
			c0.1-0.3,0.1-0.7,0.2-1c0-0.2,0.2-0.3,0.4-0.3c0.4-0.1,0.7,0,1.1,0c0.3,0,0.8,0,0.8,0.2C119.8,7.5,119.4,8.9,119.2,9.6z
			 M115.8,8.2c-0.4,0.2-0.7,0.6-0.8,1c-0.1,0.5-0.1,0.8-0.2,1.3c0,0.5-0.2,1-0.2,1.5c0,0.3-0.1,0.9-0.1,1.2c0,0.5,0,1.2,0.2,1.7
			c0.2,0.4,0.6,0.4,1,0.1c0.6-0.5,0.9-1.2,1.1-2c0-0.4,0.1-0.7,0.1-1.2c0-0.2,0-0.7,0.1-1.1c0-0.3,0-0.7,0-0.8c0-0.3,0.1-0.4,0-0.6
			c-0.1-0.2-0.1-0.5-0.2-0.7C116.5,8.3,116.2,8,115.8,8.2z"/>
		<path class="st4" d="M126.5,7.5c0.3-0.1,0.4,0.4,0.1,0.6c-0.4,0.4-0.6,0.1-0.8,0.8c-0.3,1.2-0.2,1.4-0.5,2.6
			c-0.1,0.7-0.2,1.2-0.3,1.8c-0.1,0.4-0.3,1.6,0,1.8c0.3,0.3,0.9-1.3,1.2-1.2c0.7,0.3-1,2.2-1.8,2.5c-2.8,0.9-1.9-2.5-1.7-4
			c0.2-1,0.2-1.4,0.4-2.6c0.1-0.5,0.1-0.7,0.2-1.2c-0.4-0.1-1.4,0-1.3-0.5c-0.1-0.5,0.4-0.5,0.7-0.6c1.1-0.2,1-0.3,1.6-1.8
			c0.4-1.3,0.7-1.1,2-1.1C127,4.6,125.5,7.8,126.5,7.5z"/>
		<path class="st4" d="M131.5,11.1c-0.2,1-0.4,2.5-0.3,3.5c0.1,0.9,0.9-0.7,1.2-0.8c0.9-0.3-0.4,1.8-0.7,2.1
			c-0.7,0.9-2.5,0.5-2.6-0.5c-0.1-1.3,0-1.7,0.3-3.6c0.2-1.5,0.3-2,0.3-3c0-0.6,0-1.1,0.8-1.2c0.5,0,1.6-0.3,1.6,0.3
			C131.9,9.2,131.7,10,131.5,11.1z M131,6.3c-1-0.6,0.2-1.9,1-1.3C132.6,5.7,131.8,6.7,131,6.3z"/>
		<path class="st4" d="M141.5,10.9c0.1,1.3,0.1,2.5-0.5,3.6c-0.5,0.8-1.2,1.4-2.2,1.7c-0.6,0.2-1.2,0.2-1.8,0
			c-0.5-0.1-1-0.3-1.3-0.7c-0.3-0.4-0.4-0.6-0.6-1.1c-0.1-0.3-0.2-0.8-0.2-1.1c0-0.3,0-0.7,0.1-1c0.1-0.5,0.2-1,0.4-1.5
			c0.1-0.2,0.1-0.3,0.3-0.6c0.1-0.1,0.3-0.6,0.4-0.8c0.6-0.9,1.1-1.3,2.1-1.6c0.4-0.2,0.9-0.1,1.3,0.1c0.1,0,0.8,0.3,1.4,1.2
			C141.3,9.6,141.4,10.3,141.5,10.9z M137.6,15.5c0.5,0.1,0.8,0,1.1-0.2c0.5-0.3,0.5-0.9,0.6-1.4c0.1-0.7,0.2-1.5,0.2-2.2
			c0-0.8,0-1.9-0.3-2.6c-0.3-0.5-0.7-0.9-1.1-0.4c-0.4,0.4-0.4,1.4-0.5,1.9c-0.2,0.7-0.2,1.4-0.3,2.1c-0.1,0.8-0.2,1.7,0,2.5
			C137.3,15.3,137.4,15.4,137.6,15.5z"/>
		<path class="st4" d="M143.9,8.7c0.3-0.3,0.6-0.7,0.9-0.8c0.9-0.2,1.3,0.2,1.4,0.9c0.1-0.1,0.1-0.1,0.2-0.2
			c0.2-0.2,0.5-0.5,0.6-0.6c0.2-0.2,0.2-0.2,0.7-0.5c0.4-0.2,0.6-0.2,1-0.2c1.1,0,1.8,0.8,1.9,1.9c0.1,0.4,0,0.7,0,1.3
			c-0.1,0.4-0.1,0.5-0.2,1c0,0.4-0.1,0.9-0.2,1.4c-0.2,0.6-0.3,1.4-0.4,2.1c0,0.2,0.1,0.3,0.4,0.4c0.1-0.1,0.2-0.2,0.3-0.2
			c0.2,0,0.2,0,0.1,0.2c-0.1,0.5-0.9,1.1-1.4,1.1c-0.4-0.1-0.6-0.1-0.7-0.3c-0.3-0.4-0.3-0.6-0.2-1c0-0.4,0.1-0.6,0-1
			c0.1-0.4,0-0.8,0.1-1c0-0.3,0-0.5,0-0.8c0-0.2,0-0.6,0-0.8c0.1-0.6,0.1-1.2,0.1-1.9c0-0.6-0.4-1.7-0.7-1.7c-0.3,0-0.7,0.6-0.7,0.8
			c-0.2,1.2-0.4,2.5-0.5,3.6c-0.1,1.2-0.2,2.2-0.3,3.4c-0.1,0.4-0.2,0.6-0.5,0.5c-0.4,0-0.7,0-1.3-0.1c-0.3,0,0-1,0-1.4
			c0.1-0.5,0.1-0.7,0.2-1.2c0.1-0.5,0.1-1.1,0.2-1.7s0.2-1.1,0.3-1.7c0-0.5,0.1-1.1,0.1-1.5c-0.2-0.4-0.7,0-0.9,0.3
			c-0.1,0.3-0.3,0.8-0.6,1.2c-0.3,0.1-0.4-0.1-0.4-0.1c-0.2-0.3,0-0.5,0.1-0.9C143.6,9.2,143.8,8.8,143.9,8.7z"/>
	</g>
	<g>
		<path class="st5" d="M131.6,28.5c-9.7-0.1-19.3,0.1-28.9,0.4c-9.6,0.3-19.2,0.7-28.8,1.3c-9.6,0.6-19.2,1.2-28.8,2.2
			c-2.4,0.2-4.8,0.5-7.2,0.7c-2.4,0.3-4.8,0.5-7.2,0.9l-3.6,0.5l-3.6,0.6c-2.4,0.3-4.9,0.9-7.4,1.4l2.3,9.5c2.2-0.4,4.4-1,6.7-1.3
			l3.4-0.6l3.5-0.5c2.3-0.3,4.7-0.6,7-0.9c2.3-0.3,4.7-0.5,7.1-0.7c9.4-0.9,18.9-1.6,28.4-2.1c9.5-0.5,19-1,28.5-1.3
			c9.5-0.3,19-0.5,28.4-0.4L131.6,28.5z"/>
		<path class="st6" d="M40.7,41.8c-0.1,0-0.2,0.1-0.3,0.1C40.5,41.8,40.6,41.8,40.7,41.8z"/>
		<path class="st6" d="M35.4,35.7c-0.1,0-0.4,0.1-0.4,0C35.3,35.7,35.3,35.7,35.4,35.7z"/>
		<path class="st6" d="M34.9,35.6c0,0.1-0.2,0-0.3,0.1C34.6,35.6,34.9,35.6,34.9,35.6z"/>
		<path class="st6" d="M33.7,36.8c-0.1,0-0.3,0.1-0.3,0.1C33.3,36.8,33.6,36.8,33.7,36.8z"/>
		<path class="st6" d="M32.9,35.8c-0.1,0.1-0.3,0.1-0.6,0.1C32.4,35.9,32.7,35.9,32.9,35.8z"/>
		<path class="st6" d="M31.8,41.3c-0.3,0-0.9,0.2-1.1,0.1C31.1,41.4,31.5,41.2,31.8,41.3z"/>
		<path class="st6" d="M30.7,39.1c-0.4,0.2-1.1,0.1-1.5,0.3c-0.1-0.1,0.7-0.1,0.8-0.2c0.1,0,0.2,0,0.3,0
			C30.5,39.1,30.6,39,30.7,39.1z"/>
		<path class="st6" d="M26,39.4c0,0.1,0,0.1-0.1,0.1c0,0-0.1,0-0.1-0.1L26,39.4z"/>
		<path class="st6" d="M24.3,40.5c-0.3,0.2-1,0.3-1.4,0.3c0,0,0,0.1-0.1,0.1c-0.2,0.1-0.7,0.1-0.2,0C23.1,40.7,23.6,40.7,24.3,40.5z
			"/>
		<path class="st6" d="M23.8,39.4c-0.1,0-0.2,0.1-0.3,0.1C23.5,39.4,23.8,39.4,23.8,39.4z"/>
		<path class="st6" d="M23.9,42.6c0,0.1-0.3,0.1-0.4,0.1C23.6,42.6,23.8,42.5,23.9,42.6z"/>
		<path class="st6" d="M23.5,39.9C23.4,39.9,23.1,40,23,40C22.8,40,23.3,39.9,23.5,39.9z"/>
		<path class="st6" d="M23.2,39.6c-0.1,0.1-0.4,0.1-0.6,0.2C22.8,39.6,23.1,39.6,23.2,39.6z"/>
		<path class="st6" d="M23.5,43.2c0,0.1-0.2,0.1-0.3,0.1C23.2,43.3,23.4,43.3,23.5,43.2z"/>
		<path class="st6" d="M23.2,42.7c-0.1,0.1-0.7,0.2-1,0.2C22.6,42.7,22.9,42.7,23.2,42.7z"/>
		<path class="st6" d="M22.6,39.7c-0.2,0.1-0.6,0.1-0.8,0.2C21.9,39.8,22.3,39.8,22.6,39.7z"/>
		<path class="st6" d="M22.1,41c-0.1,0.1-0.2,0.1-0.4,0.1C21.7,41,22,41,22.1,41z"/>
		<path class="st6" d="M21.6,40.8c-0.1,0.1-0.2,0.1-0.4,0.1C21.3,40.8,21.5,40.8,21.6,40.8z"/>
		<path class="st6" d="M21.2,40.6c0,0.1-0.4,0.2-0.3,0c0.1,0,0.1,0,0.1,0.1C21,40.7,21,40.6,21.2,40.6z"/>
		<path class="st6" d="M20.5,42.6C20.7,42.5,21.2,42.5,20.5,42.6L20.5,42.6z"/>
		<path class="st6" d="M20.2,43.6c-0.2,0.1-0.4,0.1-0.6,0.1C19.7,43.7,20.1,43.6,20.2,43.6z"/>
		<path class="st6" d="M20.1,43.8c0.1,0.1-0.3,0.1-0.2,0L20.1,43.8z"/>
		<path class="st6" d="M19.9,45.1c-0.1,0.1-0.2,0.1-0.3,0.1C19.6,45.1,19.8,45.1,19.9,45.1z"/>
		<path class="st6" d="M18.6,45.2C18.2,45.4,18,45.3,18.6,45.2L18.6,45.2z"/>
		<path class="st6" d="M29.2,43.4c-0.1,0-0.2,0.1-0.2,0.1c-0.2-0.1-0.4,0-0.6,0C28.6,43.4,28.9,43.5,29.2,43.4z"/>
		<path class="st6" d="M23.5,42.2c-0.1,0-0.1,0-0.2,0c0,0,0,0,0-0.1c-0.2,0-0.4,0.1-0.6,0.1c0,0,0,0,0-0.1c-0.3,0.2-0.6,0-1.2,0.2
			c0.5-0.3,1.7-0.4,2.2-0.5c-0.1,0.1-0.5,0.1-0.5,0.2C23.3,42.2,23.6,42.1,23.5,42.2z"/>
		<path class="st6" d="M22.6,40C22.5,40.1,22.6,40.1,22.6,40c0,0.1-0.2,0.1-0.2,0.1C22.4,40,23.1,40,22.6,40z"/>
		<path class="st6" d="M19,41L19,41c-0.3,0-0.8,0.1-1.1,0.1c0.4-0.1,1.2-0.1,1.4-0.3c0.1,0,0.2,0,0.3,0c0.8-0.3,1.8-0.4,2.7-0.6
			c-0.4,0.3-1.3,0.2-1.7,0.5c-0.1,0,0,0,0,0C20.2,40.7,19.5,40.8,19,41z"/>
		<path class="st6" d="M20,44c-0.1,0.1-0.2,0.1-0.3,0.2C19.7,44.1,19.9,43.9,20,44z"/>
		<path class="st6" d="M118.9,38.4c0.2,0,0.5-0.1,0.7-0.1c0.5,0,1,0.1,1.6,0c0.5,0,0.9-0.2,1.4-0.2c0.4,0,0.5-0.1,0.7-0.1
			c0.7-0.1,1.3-0.1,1.6-0.3c0.5-0.2,1.2-0.3,1.6-0.4c0.1,0,0.2,0,0.2,0c1.1-0.4,1.8-1,3.2-1.3c0.1-0.1,0.2-0.3,0.4-0.5
			c0.1-0.1,0.3-0.1,0.4-0.2c0.3-0.3,0-0.7,0.6-0.9c0-0.1-0.1-0.1-0.1-0.1c0-0.6-0.2-1.1,0-1.6c-0.4-0.3-0.3-0.6-0.5-0.9
			c-0.2-0.2-0.5-0.3-0.7-0.5c-0.2-0.2-0.5-0.3-0.7-0.5c0-0.2-0.3-0.2-0.4-0.4c-0.4-0.1-0.7-0.3-1.1-0.4c0-0.1-0.1-0.1-0.1-0.2
			c-0.8-0.3-1.7-0.7-2.8-0.8c-0.1,0-0.3,0-0.5,0c-0.8,0-2.2,0-2.6-0.3c-0.2,0-0.2,0-0.3,0c-0.1-0.1-0.6-0.3-0.9-0.3
			c-0.1,0-0.4,0.2-0.7,0.2c-0.4,0-0.9-0.2-1.3-0.1c-0.2,0-0.4,0.2-0.6,0.2c-0.5,0.1-1.5,0-1.9,0c-0.3,0-0.5-0.1-0.7-0.1
			c-0.2,0-0.4,0.2-0.4,0.3c-0.6,0.4-2.3,0.1-3.3,0.3c-0.7-0.1-1.4,0.1-2.1,0.1c-0.1,0-0.3,0-0.4,0c-0.2,0-0.6,0.1-0.9,0.1
			c-0.5,0.1-1,0.1-1.4,0.1c-0.7-0.2-1.1,0.1-1.7,0.1c-0.2,0-0.4-0.1-0.6-0.1c-0.2,0-0.4,0.1-0.6,0.1c-0.2,0-0.4-0.1-0.6-0.1
			c-0.2,0-0.3,0.1-0.4,0.1c-0.2,0-0.3-0.1-0.4,0c-0.2,0-0.4,0.1-0.6,0.1c-0.7,0.1-1.4,0-2.1,0.2c-1.2-0.1-2.2,0.2-3.6,0.1
			c-0.3,0.1-0.6,0.1-1,0.1c-0.1,0-0.1,0.1-0.2,0.1c-0.7,0-1.5,0.2-2.2,0.1c0,0-0.1,0.1-0.1,0.1c-1-0.1-2.3,0-3.1,0.1
			c-0.6-0.1-1.3,0.1-2.1,0.1c-0.4,0-0.7,0-1.1,0c-0.7,0.1-1.5,0.1-2.2,0.1c-0.2,0-0.4,0.1-0.6,0.1c-0.3,0-0.7,0-1,0
			c-1.4,0.2-2.9,0.2-4.2,0.3c-0.4,0-0.7,0.1-1.1,0.2c-0.7,0.1-1.4,0-2.1,0.1c-0.2,0-0.3,0.1-0.5,0.1c-0.4,0-0.8,0-1.2,0.1
			c-1.1,0.1-2.1,0.3-3.2,0.2c-1.3,0.2-3.2,0.3-4.6,0.4c-0.3,0.2-0.7,0.1-1,0.1c-1.1,0.1-2.4,0.4-3.5,0.4c-4.7,0.6-9.6,0.9-14.2,1.5
			c-0.4-0.1-0.9,0.1-1.2,0.2c-0.1-0.1-0.3,0-0.5,0c-0.6,0.2-1.3,0.2-2,0.3c-0.2,0.2-0.6,0.1-0.9,0.2c-0.1-0.1,0.2-0.1-0.1-0.1
			c-0.4,0.3-2.1,0.4-2.8,0.5c0.1,0,0.1,0,0,0c-0.2-0.1-0.2,0.1-0.4,0.1c-1.3,0.2-2.2,0.6-3.3,0.8c-0.1,0-0.5-0.1-0.7,0
			c0.2,0,0.5,0,0.5,0.1c-0.3,0-0.8,0.1-1,0.2c-0.4,0.1-0.6,0-1,0.2c-0.1,0,0.1,0.1-0.1,0.1c-0.6,0-0.9,0.2-1.4,0.2
			c-0.1,0.1-0.7,0.2-0.9,0.2c-0.2,0.1,0.2,0.1,0.1,0.1c-0.5,0.1-0.9,0.2-1.3,0.2c-0.1,0.1-0.2,0.1-0.3,0.2c-0.1,0,0-0.1-0.2-0.1
			c-0.2,0.1,0.1,0.1,0.1,0.2c-0.2,0.1-0.2,0.1-0.3,0.2c-0.3,0-0.5,0.1-0.8,0.2c-0.3,0.1-0.6,0.1-0.9,0.2c-0.2,0.1-0.3,0.2-0.6,0.2
			c-0.2,0-0.4,0-0.7,0c-0.1,0,0.1,0.1-0.1,0.1c-0.9,0.2-1.8,0.4-2.5,0.6c1-0.4,1.8-0.3,2.7-0.6c0.2,0.1,0.4-0.1,0.6,0
			c0.1-0.1-0.2-0.1,0-0.1c0.1,0,0.1,0,0.2,0c-0.1,0.1,0.1,0.1,0.2,0.2c0.8-0.1,1.4-0.3,2-0.4c0.1,0-0.1-0.1,0-0.1
			c0.3-0.1,0.4-0.1,0.7-0.1c0.1,0.1,0.3,0.1,0.2,0.2c-0.9,0.1-2.1,0.4-3.2,0.6c-0.3,0.1-0.7,0-0.8,0.2c0.5-0.1,0.9,0,1.3-0.1
			c0.5-0.1,1.1-0.3,1.6-0.3c0.1,0,0.2,0,0.4,0c0.1,0,0.3-0.1,0.4-0.1c0.1,0,0.1,0,0.3,0c0.2,0,0.4-0.1,0.6-0.2
			c0.4-0.1,0.8,0,1.3-0.1c0.1,0,0.1,0.1,0,0.2c-0.5,0.1-0.6,0.1-1.2,0.2c0.1,0,0.1,0,0.1,0.1c-0.2,0-0.2,0-0.3,0.1
			c0.4-0.1,0.4,0.1,0.3,0.2c-1,0.1-2.3,0.4-3.1,0.4c-0.1,0.1-0.1,0.1-0.3,0.2c-0.9,0.2-2,0.3-3,0.5c1.2,0,2.4-0.3,3.7-0.6
			c0.1,0,0,0.1,0.2,0.1c0.6-0.1,1.2-0.2,1.7-0.3c0.2,0.1,0.4,0.2,0.6,0.2c1.4-0.3,2.5,0,3.8-0.2c0,0.1,0.1,0.1,0.2,0.1
			c-0.1,0.1-0.2,0.2-0.3,0.2c-0.2,0-0.4,0.1-0.6,0.1c-1.1,0.4-2.7,0.4-4.1,0.7c-0.2,0.1,0,0.2,0.1,0.3c0.7,0,1.3-0.3,2-0.2
			c0.3,0.2,0.1,0.5-0.5,0.6c-0.9,0.1-2.5,0.3-3.1,0.4c-1.3,0.3-2.6,0.5-4,0.8c-0.7,0.1-1.3,0.2-2,0.4c-0.6,0.2-1.3,0.3-2,0.5
			c0.7-0.1,1.4-0.3,2.1-0.5c0.7-0.1,1.4-0.3,2.1-0.3c0-0.1,0-0.1,0.1-0.1c1.3-0.2,2.8-0.5,4-0.7c0.5,0.1,1.4-0.2,2-0.1
			c-0.1,0.3-0.5,0.5-1,0.6c0.5-0.1,1-0.1,1.5-0.1c0.4,0,1-0.2,1.2-0.2c0,0,0,0.1,0.1,0.1c-0.1,0,0.3-0.1,0.3-0.1
			c0.2-0.1,0.2-0.1,0.4-0.1c0.3,0,0.3,0,0.5,0c1-0.1,2-0.3,3.1-0.4c0.1,0,0.3,0,0.3,0c0.1,0,0,0.1,0.2,0.1c0.1,0,0-0.1,0.1-0.1
			c0.4,0,0.9-0.1,1.3-0.1c1-0.1,2.2-0.2,3-0.3c0.2,0,0,0.1,0.2,0.1c1.4-0.1,3-0.2,4.5-0.3c0.1,0,0,0.1,0.2,0.1
			c0.2,0,0.2-0.1,0.3-0.1c0.1,0,0.2,0,0.3,0.1c1.8-0.1,3.6-0.3,5.4-0.5c1.7-0.2,3.4-0.3,5-0.5c1.3-0.1,2.5-0.3,3.6-0.3
			c1.5-0.2,2.8-0.3,4.3-0.4c1-0.1,2.2-0.1,3-0.2c0.1,0,0.3-0.1,0.5-0.1c0.3,0,0.5,0,0.8,0c0.7,0,1.4-0.2,2.1-0.2
			c0.8,0,1.6-0.1,2.3-0.1c0.4,0,0.9-0.1,1.3-0.2c0.3,0,0.6,0,0.9,0c0.8,0,1.7-0.2,2.5-0.2c1.1,0,2.2,0,3.2-0.2
			c1.2,0,2.6-0.1,3.8-0.2c0.9,0.1,1.9-0.1,2.9-0.1c0.1,0,0.2,0,0.3,0c1.6,0.1,3.3-0.3,4.6-0.2c0.5-0.1,0.9,0,1.3,0
			c0.5,0,0.9-0.1,1.4-0.1c0.2,0,0.3,0,0.4,0c0.5,0,0.9-0.1,1.4-0.1c0.8-0.1,1.6,0.1,2.5,0c0.7,0.1,1.7,0.1,2.5,0
			c1.3,0.1,2.7-0.1,4-0.1c0.5,0,0.9,0.1,1.3,0c0.5,0.1,1.1,0,1.6,0c0.6,0,1.2,0.1,1.8,0.1c0.9,0,1.9-0.1,2.6,0.1
			c0.3,0.5,0.9-0.3,1.5-0.2c0.4,0.1,0.3,0.3,0.5,0.5c0.3,0.1,0.6,0,0.9,0C118.1,38.1,118.4,38.4,118.9,38.4z M31.5,37.9
			C31.5,37.8,31.5,37.8,31.5,37.9C31.6,37.7,31.8,37.8,31.5,37.9z M31.4,37.9c-0.4,0.1-1,0.3-1.3,0.2c-0.1,0,0.1,0.1,0,0.2
			c-0.2,0-0.4-0.1-0.7,0c0-0.2,0.6-0.2,0.6-0.3c0.2,0,0.4,0,0.4-0.1c0.5,0,0.6-0.1,0.9-0.1C31.3,37.8,31.4,37.8,31.4,37.9z"/>
	</g>
</g>
</svg>
