<?xml version="1.0" encoding="utf-8"?>
<!-- Generator: Adobe Illustrator 22.1.0, SVG Export Plug-In . SVG Version: 6.00 Build 0)  -->
<svg version="1.1" id="Layer_1" xmlns="http://www.w3.org/2000/svg" xmlns:xlink="http://www.w3.org/1999/xlink" x="0px" y="0px"
	 viewBox="0 0 244.4 20.3" style="enable-background:new 0 0 244.4 20.3;" xml:space="preserve">
<style type="text/css">
	.st0{fill-rule:evenodd;clip-rule:evenodd;fill:#313536;}
	.st1{fill:#231F20;}
	.st2{fill:#F0D5A7;}
	.st3{fill:#353030;}
	.st4{fill-rule:evenodd;clip-rule:evenodd;fill:#231F20;}
	.st5{fill:#FAFAFA;}
	.st6{fill:none;}
	.st7{fill-rule:evenodd;clip-rule:evenodd;fill:#F0D5A7;}
	.st8{opacity:0.5;fill:#221F1F;}
	.st9{fill-rule:evenodd;clip-rule:evenodd;fill:#E9C77E;}
	.st10{fill:#FFFFFF;}
</style>
<g>
	<g>
		<path class="st1" d="M9.8,16.9c2.9,0,5.6-1.9,6.5-4.9c0-0.1,0.1-0.3,0.4-0.3c0.2,0,0.4,0.1,0.4,0.3c0,0-0.5,3.9-0.6,4
			c-0.1,0.4-0.4,0.4-0.5,0.4h0h-0.7c-0.6,0-0.6,0.2-1.2,0.5c-1.6,0.9-3.2,1.2-4.6,1.2c-2.3,0-4.6-0.9-6.3-2.6
			c-1.7-1.6-2.7-4-2.7-6.4c0-2.5,1.1-4.9,2.8-6.4c1.7-1.6,4-2.5,6.3-2.5h0c3,0,4.5,1.3,4.9,1.3c0.4,0,0.2-0.8,0.7-0.9
			c0.1,0,0.2,0,0.3,0c0.2,0,0.3,0.1,0.3,0.3c0,0,0.7,5,0.7,5.3c0,0.2-0.1,0.4-0.5,0.4c-0.6,0-0.6-0.2-0.7-1.2
			c-0.1-0.7-0.2-1.1-0.6-1.6c-1-1.3-2.8-2.4-5.1-2.4c-3.4,0-6.7,2.8-6.7,7.4C2.9,13.3,6,16.9,9.8,16.9z"/>
		<path class="st1" d="M30.5,17.7c-0.4,0-0.5-0.3-0.5-0.5c0-0.7,0.4-0.6,1.1-0.7c0.8-0.1,1-0.3,1.4-1.2c1.2-2.7,2.5-5.3,3.8-7.9
			c3.7-7.1,3.6-6.8,3.9-7.1C40.4,0.1,40.6,0,40.8,0c0.6,0,0.9,0.7,1,0.9l3.6,8.2c2.7,6.6,2.6,6.4,2.8,6.7c0.6,0.9,1.7,0.4,1.9,1
			c0,0.1,0,0.3,0,0.3c0,0.3-0.2,0.5-0.5,0.5c-0.1,0-1.3-0.1-2.9-0.1c-1.8,0-2.7,0.1-3,0.1c-0.3,0-0.5-0.2-0.5-0.4
			c0-0.8,0.3-0.7,1.5-0.8c0.1,0,0.5,0,0.5-0.5c0-0.4-0.9-3.4-1.9-5.6c-0.1-0.2-0.2-0.2-0.4-0.2h-5.8c-0.3,0-0.4,0-0.6,0.3
			c-1.2,2.3-2.2,4.9-2.2,5.4c0,0.7,0.5,0.7,1.6,0.8c0.2,0,0.5,0.1,0.5,0.6c0,0.3-0.2,0.5-0.5,0.5c-0.3,0-1.1-0.1-2.7-0.1
			C31.8,17.5,30.6,17.7,30.5,17.7z M42.7,8.6c0-0.2-1.8-4.5-2.2-5.1c-0.1-0.1-0.1-0.2-0.3-0.2c-0.2,0-0.4,0.2-0.5,0.4
			c-1.5,2.9-2.5,4.8-2.5,4.9c0,0,0,0.1,0.1,0.1h5.1C42.6,8.8,42.7,8.8,42.7,8.6z"/>
		<path class="st1" d="M67.9,0.5c2,0,2.9,1,3.2,1c0.4,0,0.4-1,1-1c0.2,0,0.4,0.2,0.4,0.5c0,0.2-0.1,0.8-0.1,2.1c0,1.2,0.1,1.8,0.1,2
			c0,0.2-0.2,0.4-0.4,0.4h0c-0.8,0-0.5-0.9-1.7-2.3c-0.7-0.7-1.6-1.4-2.7-1.4c-1.4,0-2.4,1-2.4,2.3c0,0.9,0.5,1.7,1.3,2.3
			c1.3,1,3.1,0.9,4.7,1.6c1.8,0.8,3.1,2.4,3.1,4.6c0,3-2.4,5.3-5.4,5.3c-1.4,0-2.8-0.5-3.8-1.4c-0.2-0.2-0.4-0.3-0.8-0.3
			c-0.2,0-0.4,0.1-0.6,0.1c-0.3,0-0.4-0.2-0.4-0.4c0-0.3,0.3-1.2,0.6-4c0-0.3,0.1-0.5,0.5-0.5c0.5,0,0.5,0.2,0.7,1.4
			c0.2,1.7-0.1,1.1,0.6,2.1c0.6,0.8,1.7,1.6,3.2,1.6c2,0,3.6-1.5,3.6-3.5c0-1.1-0.5-2.1-1.4-2.7c-1.4-1-3-1-4.7-1.6
			c-2-0.8-3-2.4-3-4C63.4,2.5,65.3,0.5,67.9,0.5z"/>
		<path class="st1" d="M98.8,5.5v4.6c0,0.3,0,0.7-0.7,0.7c-0.6,0-0.7-0.3-0.7-0.5V8.9c0-0.5-0.3-0.5-0.6-0.5h-3.4
			c-0.6,0-1.2,0-1.2,1v5.7c0,0.4,0.1,0.8,0.8,0.9c0.8,0.1,1.5,0.2,2.3,0.2c0.8,0,3.1-0.1,3.6-0.5c0.4-0.3,1.3-2.4,1.7-2.7
			c0.1,0,0.2-0.1,0.2-0.1c0.2,0,0.4,0.1,0.4,0.6v0c0,0.1,0,0.2-0.8,3.5c-0.1,0.4-0.2,0.5-0.7,0.5h-8.5c-1.9,0-2.6,0.3-3.1,0.3
			c-0.5,0-0.6-0.6-0.6-0.7c0-0.4,0.2-0.4,1.9-1.1c0.5-0.2,0.5-0.4,0.5-1V2.1c0-0.4-0.1-0.4-0.7-0.5c-1-0.1-1.6,0-1.6-0.7
			c0-0.5,0.2-0.5,0.5-0.5h11.4c0.3,0,0.5,0.1,0.5,0.4c0.2,1.1,0.7,3.2,0.7,3.3c0,0.1-0.1,0.4-0.5,0.4c-0.4,0-0.6-0.3-0.7-0.4
			c-1.2-2.2-1.2-2.3-1.9-2.3H93c-0.7,0-0.8,0.5-0.8,0.9v3.8c0,0.2,0,0.5,0.5,0.5h3.8c0.4,0,0.9,0,0.9-0.8V5.3c0-0.2,0.1-0.5,0.7-0.5
			C98.8,4.8,98.8,5.2,98.8,5.5z"/>
		<path class="st1" d="M143.8,7.9c0,1.4,0.1,2.1,0.1,2.3c0,0.5-0.4,0.6-0.7,0.6c-0.6,0-0.5-0.4-0.7-1.9c0-0.3-0.1-0.3-0.4-0.3h-4
			c-0.5,0-0.5,0.3-0.5,0.7v6.2c0,0.4,0,0.9,1,0.9c1.6,0,2.2-0.1,2.2,0.6v0.2c0,0.3-0.1,0.5-0.4,0.5c-0.1,0-1.6-0.1-3.4-0.1
			c-1.8,0-3.3,0.1-3.4,0.1c-0.4,0-0.6-0.2-0.6-0.6c0-0.7,0.3-0.6,1.4-0.7c0.6-0.1,0.7-0.3,0.7-0.8V2.5c0-0.8-0.4-0.7-1.6-0.8
			c-0.1,0-0.6,0-0.6-0.5c0-0.6,0.2-0.7,0.4-0.7c0.2,0,0.8,0.1,2.1,0.1c0.9,0,2.7-0.1,4-0.1h4.7h0.1c0.3,0,0.7,0,0.8,0.6
			c0.1,0.7,0.6,2.5,0.6,2.7c0,0.3-0.2,0.6-0.5,0.6c-0.5,0-0.6-0.4-1.6-2.1c-0.2-0.4-0.4-0.5-0.9-0.5h-4.6c-0.7,0-0.7,0.4-0.7,0.9
			v4.1c0,0.2,0.1,0.4,0.4,0.4h4.1c0.5,0,0.4-0.2,0.7-1.5c0-0.3,0.2-0.7,0.6-0.7c0.3,0,0.6,0.2,0.6,0.5
			C143.9,5.8,143.8,6.5,143.8,7.9z"/>
		<path class="st1" d="M162.7,0.8c1.6,0,2.3-0.1,2.6-0.1c0.2,0,0.4,0.1,0.4,0.5c0,0.7-0.3,0.7-1.6,0.8c-0.3,0-0.4,0.2-0.4,0.4v13.4
			c0,0.2,0,0.6,0.4,0.6c1.4,0.1,2,0,2,0.6c0,0.3-0.1,0.7-0.5,0.7c-0.1,0-1.5-0.1-3.2-0.1c-1.7,0-3.1,0.1-3.2,0.1
			c-0.4,0-0.4-0.3-0.4-0.6c0-0.1,0-0.1,0-0.2c0-0.5,0.3-0.4,2.1-0.5c0.4,0,0.5-0.3,0.5-0.7V2.7c0-0.1,0-0.3,0-0.3
			c0-0.5-0.3-0.4-1.6-0.5c-0.3,0-0.6-0.1-0.6-0.5c0-0.3,0.1-0.7,0.5-0.7C160,0.6,161.2,0.8,162.7,0.8z"/>
		<path class="st1" d="M185.8,0.7c0.4,0,0.4,0.3,0.4,0.7c0,0.5-0.3,0.6-0.5,0.6c-1.7,0-2-0.1-2,0.7v12.6c0,0.4,0,0.8,0.6,0.8h4.7
			h0.1c0.4,0,0.9,0,1.4-0.7c0.2-0.4,0.9-1.9,1-2.1c0.1-0.1,0.2-0.2,0.4-0.2c0.1,0,0.7,0.1,0.7,0.6c0,0.1-0.3,2.3-0.5,3.5
			c0,0.3-0.1,0.5-0.7,0.5c-0.3,0-4.8-0.1-10.4-0.1h-1.3c-0.3,0-0.4-0.2-0.4-0.4c0-0.5,0.3-0.5,1.4-0.7c0.5-0.1,0.6-0.5,0.6-0.8v-0.1
			v-13c0-0.7-0.3-0.6-1.4-0.6c-0.3,0-0.6-0.1-0.6-0.6c0-0.5,0.2-0.6,0.5-0.6c0.3,0,1.1,0,2.8,0.1h0.2C184.6,0.8,185.5,0.7,185.8,0.7
			z"/>
		<path class="st1" d="M217,5.5v4.6c0,0.3,0,0.7-0.7,0.7c-0.6,0-0.7-0.3-0.7-0.5V8.9c0-0.5-0.3-0.5-0.6-0.5h-3.4c-0.6,0-1.2,0-1.2,1
			v5.7c0,0.4,0.1,0.8,0.8,0.9c0.8,0.1,1.5,0.2,2.3,0.2c0.8,0,3.1-0.1,3.6-0.5c0.4-0.3,1.3-2.4,1.7-2.7c0.1,0,0.2-0.1,0.2-0.1
			c0.2,0,0.4,0.1,0.4,0.6v0c0,0.1,0,0.2-0.8,3.5c-0.1,0.4-0.2,0.5-0.7,0.5h-8.5c-1.9,0-2.6,0.3-3.1,0.3c-0.5,0-0.6-0.6-0.6-0.7
			c0-0.4,0.2-0.4,1.9-1.1c0.5-0.2,0.5-0.4,0.5-1V2.1c0-0.4-0.1-0.4-0.7-0.5c-1-0.1-1.6,0-1.6-0.7c0-0.5,0.2-0.5,0.5-0.5h11.4
			c0.3,0,0.5,0.1,0.5,0.4c0.2,1.1,0.7,3.2,0.7,3.3c0,0.1-0.1,0.4-0.5,0.4c-0.4,0-0.6-0.3-0.7-0.4c-1.2-2.2-1.2-2.3-1.9-2.3h-4.7
			c-0.7,0-0.8,0.5-0.8,0.9v3.8c0,0.2,0,0.5,0.5,0.5h3.8c0.4,0,0.9,0,0.9-0.8V5.3c0-0.2,0.1-0.5,0.7-0.5C216.9,4.8,217,5.2,217,5.5z"
			/>
		<path class="st1" d="M237.5,0.5c2,0,2.9,1,3.2,1c0.4,0,0.4-1,1-1c0.2,0,0.4,0.2,0.4,0.5c0,0.2-0.1,0.8-0.1,2.1
			c0,1.2,0.1,1.8,0.1,2c0,0.2-0.2,0.4-0.4,0.4h0c-0.8,0-0.5-0.9-1.7-2.3c-0.7-0.7-1.6-1.4-2.7-1.4c-1.4,0-2.4,1-2.4,2.3
			c0,0.9,0.5,1.7,1.3,2.3c1.3,1,3.1,0.9,4.7,1.6c1.8,0.8,3.1,2.4,3.1,4.6c0,3-2.4,5.3-5.4,5.3c-1.4,0-2.8-0.5-3.8-1.4
			c-0.2-0.2-0.4-0.3-0.8-0.3c-0.2,0-0.4,0.1-0.6,0.1c-0.3,0-0.4-0.2-0.4-0.4c0-0.3,0.3-1.2,0.6-4c0-0.3,0.1-0.5,0.5-0.5
			c0.5,0,0.5,0.2,0.7,1.4c0.2,1.7-0.1,1.1,0.6,2.1c0.6,0.8,1.7,1.6,3.2,1.6c2,0,3.6-1.5,3.6-3.5c0-1.1-0.5-2.1-1.4-2.7
			c-1.4-1-3-1-4.7-1.6c-2-0.8-3-2.4-3-4C233,2.5,234.8,0.5,237.5,0.5z"/>
		<path class="st1" d="M0,20.3v-1.1h232.2v1.1H0z"/>
		<path class="st1" d="M232.2,20.3v-1.1h12.2v1.1H232.2z"/>
	</g>
</g>
</svg>
