<?xml version="1.0" encoding="utf-8"?>
<!-- Generator: Adobe Illustrator 22.1.0, SVG Export Plug-In . SVG Version: 6.00 Build 0)  -->
<svg version="1.1" id="Layer_1" xmlns="http://www.w3.org/2000/svg" xmlns:xlink="http://www.w3.org/1999/xlink" x="0px" y="0px"
	 viewBox="0 0 117.9 46.3" style="enable-background:new 0 0 117.9 46.3;" xml:space="preserve">
<style type="text/css">
	.st0{fill-rule:evenodd;clip-rule:evenodd;fill:#313536;}
	.st1{fill:#231F20;}
	.st2{fill:#F0D5A7;}
	.st3{fill:#353030;}
	.st4{fill:#FAFAFA;}
	.st5{fill:none;}
	.st6{fill-rule:evenodd;clip-rule:evenodd;fill:#F0D5A7;}
	.st7{opacity:0.5;fill:#221F1F;}
	.st8{fill-rule:evenodd;clip-rule:evenodd;fill:#E9C77E;}
	.st9{fill:#FFFFFF;}
</style>
<g>
	<g>
		<path class="st4" d="M14.7,2.6c0.1-0.3,0.3-0.8,0.2-1.1c-0.1-0.4-0.6-0.6-1-0.6c-1.6-0.3-3,1.1-3.5,2.4c-0.3,0.9-0.6,1.8-0.8,2.8
			C9.5,6.8,9.5,7.5,9.5,8.3c0,0.8,0.1,4.3,0.3,5c0.2,0.8,0.4,1.5,0.8,1.9c0.5,0.5,1.6,0.5,2.2,0.2c0.6-0.3,1.2-0.6,1.6-1.2
			c0.1-0.2,0.4-0.7,0.6-0.7c0.5,0,0.3,0.7,0.1,1c-0.4,0.8-0.9,1.3-1.7,1.7c-0.8,0.4-1.8,0.7-2.7,0.7c-0.6,0-0.7-0.1-1-0.2
			c-0.3-0.1-0.6-0.3-0.9-0.5c-0.3-0.2-0.6-0.5-0.8-0.8c-0.3-0.4-0.6-0.7-1-1.2c-0.5-0.8-0.7-1.3-1-2.3c-0.1-0.3-0.2-0.8-0.3-1.2
			C5.6,10,5.6,10.2,5.6,9.5c0-0.5-0.1-0.3,0-1.1c0-0.7,0-0.5,0.2-1.2C6,6.2,6,5.9,6.4,5.1c0.1-0.3,0.2-0.5,0.5-1.1
			c0.3-0.7,0.5-0.9,0.7-1.3C8,2,8.5,1.4,9.3,0.9c0.8-0.5,1.5-0.7,2.3-0.8C12.1,0,12.5,0,13,0c0.6,0,1.3,0.3,1.9,0.5
			c0.3,0.2,0.4,0.1,0.7-0.1c0.7-0.6,0.9,0.3,0.7,0.8c-0.2,0.5-0.5,1-0.7,1.6c-0.2,0.5-0.4,1.2-1,1.4C13.9,4.1,14.5,2.9,14.7,2.6z"/>
		<path class="st4" d="M23.5,9.9c-0.1,0.6-0.2,1.1-0.3,1.6C23.1,12,23,12.5,23,13.2c0,0.1,0,0.6-0.1,0.9c-0.1,0.5-0.1,0.9,0,1.3
			c0.5,0.2,0.4-1.3,1-1.7c0.5-0.3,0.1,1.1,0.1,1.2c-0.2,0.7-0.5,1.3-1.3,1.5c-0.3,0.1-0.5,0.1-0.7,0.1c-0.2,0-0.5-0.1-0.7-0.3
			c-0.3-0.4-0.2-0.2-0.3-0.6c0,0-0.1-0.3-0.1-0.3c-0.2,0.2-0.3,0.3-0.5,0.5c-0.3,0.3-0.6,0.5-0.9,0.5c-0.8,0.1-1.4-0.2-1.8-0.6
			c-0.9-0.8-0.8-2.4-0.6-3.5c0.1-0.5,0.1-1.1,0.3-1.7c0.3-0.8,0.5-1.2,1-1.9c0.4-0.5,1-1,1.7-1c0.7,0,1.4,0.4,1.6,1.1
			c0.1-0.3,0.1-0.7,0.2-1c0-0.2,0.2-0.3,0.4-0.3c0.4-0.1,0.7,0,1.1,0c0.3,0,0.8,0,0.8,0.2C24.1,7.8,23.7,9.1,23.5,9.9z M20.1,8.4
			c-0.4,0.2-0.7,0.6-0.8,1c-0.1,0.5-0.1,0.8-0.2,1.3c0,0.5-0.2,1-0.2,1.5c0,0.3-0.1,0.9-0.1,1.2c0,0.5,0,1.2,0.2,1.7
			c0.2,0.4,0.6,0.4,1,0.1c0.6-0.5,0.9-1.2,1.1-2c0-0.4,0.1-0.7,0.1-1.2c0-0.2,0-0.7,0.1-1.1c0-0.3,0-0.7,0-0.8c0-0.3,0.1-0.4,0-0.6
			C21.1,9.4,21.1,9,21,8.9C20.8,8.5,20.5,8.2,20.1,8.4z"/>
		<path class="st4" d="M29.3,7.6c0.5-0.1,1,0,1.5,0.4c0.4,0.3,0.5,0.7,0.4,0.9c0,0.6-0.1,1-0.4,1.1c-0.5,0.1-0.8,0.2-1.1-0.2
			c-0.1-0.2-0.2-0.4,0-0.7c0-0.2,0.2-0.5,0.3-0.6c0.5-0.6-1-0.3-1.3,0c-0.4,0.3-0.3,0.3-0.5,0.7c-0.2,0.5,0,0.8,0.4,1.1
			c0.4,0.3,0.7,0.5,1.1,0.8c0.3,0.3,0.7,0.7,1,1.1c0.6,0.8,0.9,1.6,0.5,2.6c-0.3,0.8-1.1,1.3-1.8,1.6c-0.7,0.3-1.6,0.3-2.3-0.1
			c-0.4-0.2-0.7-0.5-0.9-0.9c-0.2-0.4-0.3-1.1-0.2-1.6c0.2-0.4,0.3-0.6,0.6-0.8c0.6-0.3,0.7-0.2,1.2,0.1c0.3,0.2,0.3,0.3,0,0.9
			c-0.3,0.6-0.8,0.4-1.1,0.1c-0.3,0.4,0.1,1,0.3,1.2c0.3,0.3,0.4,0.3,0.9,0.3c0.2,0,0.4-0.1,0.6-0.2c0.2-0.1,0.5-0.3,0.6-0.6
			c0.2-0.4,0.1-0.5,0-0.8c0-0.4-0.2-0.7-0.4-1c-0.3-0.6-0.8-1-1.2-1.6c-0.4-0.6-0.5-2,0.1-2.9C28,7.8,29.2,7.6,29.3,7.6z"/>
		<path class="st4" d="M38.4,7.8c0.3-0.1,0.4,0.4,0.1,0.6c-0.4,0.4-0.6,0.1-0.8,0.8c-0.3,1.2-0.2,1.4-0.5,2.6
			c-0.1,0.7-0.2,1.2-0.3,1.8c-0.1,0.4-0.3,1.6,0,1.8c0.3,0.3,0.9-1.3,1.2-1.2c0.7,0.3-1,2.2-1.8,2.5c-2.8,0.9-1.9-2.5-1.7-4
			c0.2-1,0.2-1.4,0.4-2.6c0.1-0.5,0.1-0.7,0.2-1.2c-0.4-0.1-1.4,0-1.3-0.5c-0.1-0.5,0.4-0.5,0.7-0.6c1.1-0.2,1-0.3,1.6-1.8
			c0.4-1.3,0.7-1.1,2-1.1C38.9,4.9,37.4,8,38.4,7.8z"/>
		<path class="st4" d="M47.7,7.5c0.7,0.1,0.7,0.6,0.7,1.3c0,1.2-0.1,1.5-0.3,2.7c-0.2,1.2-0.3,1.7-0.3,2.8c0,0.3,0,1.1,0.2,1.3
			c0.2,0.2,0.6,0.3,1.1-0.2c0.5-0.5,0.6-1.8,0.8-2.5c0.1-0.6,0.2-1,0.3-1.6c0.2-1.3,0.3-2.1,0.5-3.5c0.1-0.1,1.7-0.5,1.6,0.3
			c-0.1,0.8-0.2,0.9-0.3,1.6c-0.1,1-0.1,0.9-0.3,1.6c-0.2,1.3-0.5,3.1-0.6,4.4c-0.1,1.3-0.5,4.4-0.7,4.9c-0.1,0.3-0.1,0.6-0.3,1
			c-0.3,0.6-0.3,0.6-0.7,1c-0.3,0.3-0.5,0.3-0.8,0.3c-1.1,0.2-2.3-0.5-2.1-1.7c0.1-0.7,0.4-0.2,0.6,0c0.4,0.3,1.2,0.3,1.5-0.5
			c0.6-0.7,0.8-3.6,0.8-4.5c-0.6,0.4-0.8,0.4-1.5,0.4c-0.6,0-1.4-0.2-1.6-0.7c-0.3-0.7,0-1.8,0-2.6c0-0.9,0.2-1.7,0.2-2.6
			c0-0.4,0.1-0.6,0.1-1c0-0.3,0.1-0.7-0.1-1c-0.4-0.5-0.7,0.8-0.8,1c0,0.2-0.1,0.4-0.3,0.5c-0.3,0.2-0.3-0.3-0.3-0.5
			c0-0.4,0.2-0.8,0.3-1.2c0-0.1,0.2-0.5,0.3-0.5C46.2,7.3,47,7.3,47.7,7.5z"/>
		<path class="st4" d="M61,11.1c0.1,1.3,0.1,2.5-0.5,3.6c-0.5,0.8-1.2,1.4-2.2,1.7c-0.6,0.2-1.2,0.2-1.8,0c-0.5-0.1-1-0.3-1.3-0.7
			c-0.3-0.4-0.4-0.6-0.5-1.1c-0.1-0.3-0.2-0.8-0.2-1.1c0-0.3,0-0.7,0.1-1c0.1-0.5,0.2-1,0.4-1.5c0.1-0.2,0.1-0.3,0.3-0.6
			c0.1-0.1,0.3-0.6,0.4-0.8c0.6-0.9,1.1-1.3,2.1-1.6C58.1,7.9,58.6,8,59,8.1c0.1,0,0.8,0.3,1.4,1.2C60.7,9.9,60.9,10.6,61,11.1z
			 M57.1,15.7c0.5,0.1,0.8,0,1.1-0.2c0.5-0.3,0.5-0.9,0.6-1.4c0.1-0.7,0.2-1.5,0.2-2.2c0-0.8,0-1.9-0.3-2.6
			c-0.3-0.5-0.7-0.9-1.1-0.4c-0.4,0.4-0.4,1.4-0.5,1.9c-0.2,0.7-0.2,1.4-0.3,2.1c-0.1,0.8-0.2,1.7,0,2.5
			C56.8,15.5,56.9,15.6,57.1,15.7z"/>
		<path class="st4" d="M65,8.9c0.1-0.5-0.3-1-0.8-0.5c-0.3,0.3-0.4,0.6-0.5,1.1c-0.1,0.1-0.1,0.3-0.3,0.5c0,0-0.3,0.3-0.5,0.2
			c-0.3-0.2-0.2-0.4,0-0.7C63,9,63.2,8.6,63.4,8.3C63.8,8,64,7.7,64.3,7.5c0.4-0.3,1.7-0.4,2-0.3c0.9,0.5,0.8,2.2,0.7,3.2
			c-0.2,1.4-0.5,2.7-0.6,4.1c0,0.3,0,1.2,0.5,1.4c0.3,0.2,1.1-0.3,1.3-0.5c0.8-1,0.8-1.7,1-3c0-0.3,0.1-1,0.2-1.7
			c0.1-0.6,0.1-0.8,0.2-1.5c0.1-0.4,0.1-1,0.2-1.4c0.2-0.5,0.8-0.3,1.1-0.3c0.9,0,0.6,1.2,0.6,1.7c-0.1,0.9-0.2,1.3-0.3,2.6
			c-0.1,0.5-0.1,1.1-0.3,1.8c-0.1,0.3-0.1,0.8-0.2,1.2c0,0.5-0.2,0.8,0,1c0.4,0.2,0.5-0.9,0.8-1.2c0-0.2,0.3-0.3,0.4-0.2
			c0.1,0.2,0,0.5-0.1,0.8c-0.2,0.6-0.3,1.3-1,1.6c-1,0.5-1.7-0.3-1.7-1.1c-0.4,0.6-1.1,1.1-1.9,1.2c-0.5,0.1-0.8,0-1.3,0
			c-0.4,0-0.8-0.4-1-0.9c-0.1-0.3-0.2-0.5-0.3-0.9c-0.2-0.9-0.1-1.2-0.1-1.6c0-0.5,0.1-1.2,0.1-1.5C64.8,10.6,64.8,9.5,65,8.9z"/>
		<path class="st4" d="M78.9,7.6c0.8-0.2,1.9,0.7,1.9,1.8c-0.1,2-2.9,2.6-2.4,0.6c0.2-0.5,1.3-1.5,0.4-1.6c-0.9-0.1-1.6,1-1.8,1.7
			c-0.3,1.8-0.2,3.3-0.3,5.1c-0.1,1.1,0,1.2-1.2,1.1c-1-0.1-1.1,0.4-1-0.8c0.1-0.8,0.1-1,0.2-1.7c0.1-1,0.1-1.5,0.3-2.7
			c0.4-2.5,0-3.6-0.4-2.5C74,9.5,73,9.3,73.5,8.1c1.4-1.7,2.3-1.9,3.4,0.7C77.7,8.1,78,7.8,78.9,7.6z"/>
		<path class="st4" d="M92.6,10.6c0.1-0.5,0.4-2.8-0.8-2.1c-0.9,0.6,0.8,1.6,0.3,2.3c-0.8,1.2-1.7-0.5-1.7-1.2
			c0-1.2,1.2-2.2,2.3-1.6c1,0.5,1,1.8,0.9,2.8c-0.2,1.4-0.9,2.5-1.7,3.6c-0.7,1-1.6,1.7-2.7,2c-0.5,0.2-1.1,0.3-1.6,0.2
			c-0.8-0.1-1.1-0.4-1.1-1.1c0.1-1.2,0.3-2.4,0.3-3.6c0-1,0.4-2.7-0.3-3.4c-0.2-0.2-0.6,0.1-0.6-0.2c0-0.3,0.6-0.4,0.9-0.4
			C88,7.7,88.8,8.1,89,9c0.2,1.1,0.1,1.8,0,3c-0.1,1.3-0.4,2.4-0.4,3.6C90.8,15.6,92.3,12.4,92.6,10.6z"/>
		<path class="st4" d="M102,11.1c0.1,1.3,0.1,2.5-0.5,3.6c-0.5,0.8-1.2,1.4-2.2,1.7c-0.6,0.2-1.2,0.2-1.8,0c-0.5-0.1-1-0.3-1.3-0.7
			c-0.3-0.4-0.4-0.6-0.5-1.1c-0.1-0.3-0.2-0.8-0.2-1.1c0-0.3,0-0.7,0.1-1c0.1-0.5,0.2-1,0.4-1.5c0.1-0.2,0.1-0.3,0.3-0.6
			c0.1-0.1,0.3-0.6,0.4-0.8c0.6-0.9,1.1-1.3,2.1-1.6c0.4-0.2,0.9-0.1,1.3,0.1c0.1,0,0.8,0.3,1.4,1.2C101.7,9.9,101.9,10.6,102,11.1z
			 M98.1,15.7c0.5,0.1,0.8,0,1.1-0.2c0.5-0.3,0.6-0.9,0.6-1.4c0.1-0.7,0.2-1.5,0.2-2.2c0-0.8,0-1.9-0.3-2.6
			c-0.3-0.5-0.7-0.9-1.1-0.4c-0.4,0.4-0.4,1.4-0.5,1.9c-0.2,0.7-0.2,1.4-0.3,2.1c-0.1,0.8-0.2,1.7,0,2.5
			C97.8,15.5,97.9,15.6,98.1,15.7z"/>
		<path class="st4" d="M109,7.8c0.3-0.1,0.4,0.4,0.1,0.6c-0.4,0.4-0.6,0.1-0.8,0.8c-0.3,1.2-0.2,1.4-0.5,2.6
			c-0.1,0.7-0.2,1.2-0.3,1.8c-0.1,0.4-0.3,1.6,0,1.8c0.3,0.3,0.9-1.3,1.2-1.2c0.7,0.3-1,2.2-1.8,2.5c-2.8,0.9-1.9-2.5-1.7-4
			c0.2-1,0.2-1.4,0.4-2.6c0.1-0.5,0.1-0.7,0.2-1.2c-0.4-0.1-1.4,0-1.3-0.5c-0.1-0.5,0.4-0.5,0.7-0.6c1.1-0.2,1-0.3,1.6-1.8
			c0.4-1.3,0.7-1.1,2-1.1C109.6,4.9,108,8,109,7.8z"/>
		<path class="st4" d="M112.5,9.6c0.7-1.4,1.9-2.2,3.4-1.8c1.6,0.4,1.7,2.2,1.5,3.8c-0.2,1.4-2.3,1.9-3.4,2c-0.4,0.4-0.2,1.2,0,1.7
			c0.4,0.7,1.6,0.1,2.1-0.3c0.7-0.5,1-1.1,1.2-1.9c0.2-0.9,1-0.7,0.7,0.2c-0.5,1.6-1.3,2.9-3,3.3c-1.4,0.3-3.2-0.5-3.4-2.1
			C111.4,12,111.7,11.1,112.5,9.6z M114.8,8.5c-0.6,0.5-0.7,1.7-0.8,2.5c0,0.3-0.1,0.7-0.1,1.1c0,0.5,1,0.3,1.3,0.2
			c0.8-0.1,0.9-2.4,0.9-3.1C116,8.6,115.5,7.9,114.8,8.5z"/>
	</g>
	<g>
		<path class="st5" d="M115.5,28.8c-9.7-0.1-19.3,0.1-28.9,0.4c-9.6,0.3-19.2,0.7-28.8,1.3C48.2,31,38.6,31.7,29,32.6
			c-2.4,0.2-4.8,0.5-7.2,0.7c-2.4,0.3-4.8,0.5-7.2,0.9L11,34.7l-3.6,0.6c-2.4,0.3-4.9,0.9-7.4,1.4l2.3,9.5c2.2-0.4,4.4-1,6.7-1.3
			l3.4-0.6l3.5-0.5c2.3-0.3,4.7-0.6,7-0.9c2.3-0.3,4.7-0.5,7.1-0.7c9.4-0.9,18.9-1.6,28.4-2.1c9.5-0.5,19-1,28.5-1.3
			c9.5-0.3,19-0.5,28.4-0.4L115.5,28.8z"/>
		<path class="st6" d="M24.6,42.1c-0.1,0-0.2,0.1-0.3,0.1C24.4,42.1,24.5,42,24.6,42.1z"/>
		<path class="st6" d="M19.4,36c-0.1,0-0.4,0.1-0.4,0C19.2,36,19.2,36,19.4,36z"/>
		<path class="st6" d="M18.8,35.9c0,0.1-0.2,0-0.3,0.1C18.5,35.9,18.8,35.9,18.8,35.9z"/>
		<path class="st6" d="M17.6,37.1c-0.1,0-0.3,0.1-0.3,0.1C17.2,37.1,17.5,37.1,17.6,37.1z"/>
		<path class="st6" d="M16.8,36.1c-0.1,0.1-0.3,0.1-0.6,0.1C16.3,36.1,16.6,36.1,16.8,36.1z"/>
		<path class="st6" d="M15.7,41.5c-0.3,0-0.9,0.2-1.1,0.1C15,41.7,15.4,41.5,15.7,41.5z"/>
		<path class="st6" d="M14.6,39.3c-0.4,0.2-1.1,0.1-1.5,0.3c-0.1-0.1,0.7-0.1,0.8-0.2c0.1,0,0.2,0,0.3,0
			C14.4,39.4,14.5,39.3,14.6,39.3z"/>
		<path class="st6" d="M10,39.7c0,0.1,0,0.1-0.1,0.1c0,0-0.1,0-0.1-0.1L10,39.7z"/>
		<path class="st6" d="M8.2,40.8c-0.3,0.2-1,0.3-1.4,0.3c0,0,0,0.1-0.1,0.1c-0.2,0.1-0.7,0.1-0.2,0C7,41,7.5,41,8.2,40.8z"/>
		<path class="st6" d="M7.7,39.6c-0.1,0-0.2,0.1-0.3,0.1C7.4,39.7,7.7,39.6,7.7,39.6z"/>
		<path class="st6" d="M7.8,42.8c0,0.1-0.3,0.1-0.4,0.1C7.5,42.9,7.7,42.8,7.8,42.8z"/>
		<path class="st6" d="M7.4,40.1c-0.1,0.1-0.4,0.1-0.5,0.2C6.8,40.2,7.3,40.1,7.4,40.1z"/>
		<path class="st6" d="M7.2,39.8c-0.1,0.1-0.4,0.1-0.6,0.2C6.7,39.9,7,39.9,7.2,39.8z"/>
		<path class="st6" d="M7.4,43.5c0,0.1-0.2,0.1-0.3,0.1C7.1,43.5,7.3,43.5,7.4,43.5z"/>
		<path class="st6" d="M7.1,42.9c-0.1,0.1-0.7,0.2-1,0.2C6.5,43,6.8,43,7.1,42.9z"/>
		<path class="st6" d="M6.5,40c-0.2,0.1-0.6,0.1-0.8,0.2C5.9,40,6.2,40.1,6.5,40z"/>
		<path class="st6" d="M6,41.2c-0.1,0.1-0.2,0.1-0.4,0.1C5.6,41.3,5.9,41.2,6,41.2z"/>
		<path class="st6" d="M5.6,41c-0.1,0.1-0.2,0.1-0.4,0.1C5.2,41.1,5.4,41.1,5.6,41z"/>
		<path class="st6" d="M5.1,40.8c0,0.1-0.4,0.2-0.3,0c0.1,0,0.1,0,0.1,0.1C5,40.9,4.9,40.9,5.1,40.8z"/>
		<path class="st6" d="M4.4,42.9C4.6,42.7,5.1,42.8,4.4,42.9L4.4,42.9z"/>
		<path class="st6" d="M4.1,43.8c-0.2,0.1-0.4,0.1-0.6,0.1C3.6,43.9,4,43.8,4.1,43.8z"/>
		<path class="st6" d="M4,44c0.1,0.1-0.3,0.1-0.2,0L4,44z"/>
		<path class="st6" d="M3.8,45.3c-0.1,0.1-0.2,0.1-0.3,0.1C3.5,45.4,3.7,45.3,3.8,45.3z"/>
		<path class="st6" d="M2.5,45.5C2.1,45.7,1.9,45.6,2.5,45.5L2.5,45.5z"/>
		<path class="st6" d="M13.2,43.6c-0.1,0-0.2,0.1-0.2,0.1c-0.2-0.1-0.4,0-0.6,0C12.5,43.6,12.8,43.7,13.2,43.6z"/>
		<path class="st6" d="M7.4,42.4c-0.1,0-0.1,0-0.2,0c0,0,0,0,0-0.1c-0.2,0-0.4,0.1-0.6,0.1c0,0,0,0,0-0.1c-0.3,0.2-0.6,0-1.2,0.2
			c0.5-0.3,1.7-0.4,2.2-0.5c-0.1,0.1-0.5,0.1-0.5,0.2C7.2,42.4,7.5,42.3,7.4,42.4z"/>
		<path class="st6" d="M6.5,40.3C6.5,40.3,6.5,40.3,6.5,40.3c0,0.1-0.2,0.1-0.2,0.1C6.3,40.3,7,40.2,6.5,40.3z"/>
		<path class="st6" d="M2.9,41.3L2.9,41.3c-0.3,0-0.8,0.1-1.1,0.1c0.4-0.1,1.2-0.1,1.4-0.3c0.1,0,0.2,0,0.3,0
			c0.8-0.3,1.8-0.4,2.7-0.6c-0.4,0.3-1.3,0.2-1.7,0.5c-0.1,0,0,0,0,0C4.1,40.9,3.4,41,2.9,41.3z"/>
		<path class="st6" d="M3.9,44.2c-0.1,0.1-0.2,0.1-0.3,0.2C3.6,44.4,3.8,44.2,3.9,44.2z"/>
		<path class="st6" d="M102.8,38.6c0.2,0,0.5-0.1,0.7-0.1c0.5,0,1,0.1,1.6,0c0.5,0,0.9-0.2,1.4-0.2c0.4,0,0.5-0.1,0.7-0.1
			c0.7-0.1,1.3-0.1,1.6-0.3c0.5-0.2,1.2-0.3,1.6-0.4c0.1,0,0.2,0,0.2,0c1.1-0.4,1.8-1,3.2-1.3c0.1-0.1,0.2-0.3,0.4-0.5
			c0.1-0.1,0.3-0.1,0.4-0.2c0.3-0.3,0-0.7,0.6-0.9c0-0.1-0.1-0.1-0.1-0.1c0-0.6-0.2-1.1,0-1.6c-0.4-0.3-0.3-0.6-0.5-0.9
			c-0.2-0.2-0.5-0.3-0.7-0.5c-0.2-0.2-0.5-0.3-0.7-0.5c0-0.2-0.3-0.2-0.4-0.4c-0.4-0.1-0.7-0.3-1.1-0.4c0-0.1-0.1-0.1-0.1-0.2
			c-0.8-0.3-1.7-0.7-2.8-0.8c-0.1,0-0.3,0-0.5,0c-0.8,0-2.2,0-2.6-0.3c-0.2,0-0.2,0-0.3,0c-0.1-0.1-0.6-0.3-0.9-0.3
			c-0.1,0-0.4,0.2-0.7,0.2c-0.4,0-0.9-0.2-1.3-0.1c-0.2,0-0.4,0.2-0.6,0.2c-0.5,0.1-1.5,0-1.9,0c-0.3,0-0.5-0.1-0.7-0.1
			c-0.2,0-0.4,0.2-0.4,0.3c-0.6,0.4-2.3,0.1-3.3,0.3c-0.7-0.1-1.4,0.1-2.1,0.1c-0.1,0-0.3,0-0.4,0c-0.2,0-0.6,0.1-0.9,0.1
			c-0.5,0.1-1,0.1-1.4,0.1c-0.7-0.2-1.1,0.1-1.7,0.1c-0.2,0-0.4-0.1-0.6-0.1C88.4,30,88.3,30,88,30c-0.2,0-0.4-0.1-0.6-0.1
			C87.2,30,87.1,30,87,30c-0.2,0-0.3-0.1-0.4,0c-0.2,0-0.4,0.1-0.6,0.1c-0.7,0.1-1.4,0-2.1,0.2c-1.2-0.1-2.2,0.2-3.6,0.1
			c-0.3,0.1-0.6,0.1-1,0.1c-0.1,0-0.1,0.1-0.2,0.1c-0.7,0-1.5,0.2-2.2,0.1c0,0-0.1,0.1-0.1,0.1c-1-0.1-2.3,0-3.1,0.1
			c-0.6-0.1-1.3,0.1-2.1,0.1c-0.4,0-0.7,0-1.1,0c-0.7,0.1-1.5,0.1-2.2,0.1c-0.2,0-0.4,0.1-0.6,0.1c-0.3,0-0.7,0-1,0
			c-1.4,0.2-2.9,0.2-4.2,0.3c-0.4,0-0.7,0.1-1.1,0.2c-0.7,0.1-1.4,0-2.1,0.1c-0.2,0-0.3,0.1-0.5,0.1c-0.4,0-0.8,0-1.2,0.1
			c-1.1,0.1-2.1,0.3-3.2,0.2c-1.3,0.2-3.2,0.3-4.6,0.4c-0.3,0.2-0.7,0.1-1,0.1c-1.1,0.1-2.4,0.4-3.5,0.4c-4.7,0.6-9.6,0.9-14.2,1.5
			c-0.4-0.1-0.9,0.1-1.2,0.2c-0.1-0.1-0.3,0-0.5,0c-0.6,0.2-1.3,0.2-2,0.3c-0.2,0.2-0.6,0.1-0.9,0.2c-0.1-0.1,0.2-0.1-0.1-0.1
			c-0.4,0.3-2.1,0.4-2.8,0.5c0.1,0,0.1,0,0,0c-0.2-0.1-0.2,0.1-0.4,0.1c-1.3,0.2-2.2,0.6-3.3,0.8c-0.1,0-0.5-0.1-0.7,0
			c0.2,0,0.5,0,0.5,0.1c-0.3,0-0.8,0.1-1,0.2c-0.4,0.1-0.6,0-1,0.2c-0.1,0,0.1,0.1-0.1,0.1c-0.6,0-0.9,0.2-1.4,0.2
			c-0.1,0.1-0.7,0.2-0.9,0.2c-0.2,0.1,0.2,0.1,0.1,0.1c-0.5,0.1-0.9,0.2-1.3,0.2C14,37.9,13.9,38,13.8,38c-0.1,0,0-0.1-0.2-0.1
			c-0.2,0.1,0.1,0.1,0.1,0.2c-0.2,0.1-0.2,0.1-0.3,0.2c-0.3,0-0.5,0.1-0.8,0.2c-0.3,0.1-0.6,0.1-0.9,0.2c-0.2,0.1-0.3,0.2-0.6,0.2
			c-0.2,0-0.4,0-0.7,0c-0.1,0,0.1,0.1-0.1,0.1c-0.9,0.2-1.8,0.4-2.5,0.6c1-0.4,1.8-0.3,2.7-0.6c0.2,0.1,0.4-0.1,0.6,0
			c0.1-0.1-0.2-0.1,0-0.1c0.1,0,0.1,0,0.2,0c-0.1,0.1,0.1,0.1,0.2,0.2c0.8-0.1,1.4-0.3,2-0.4c0.1,0-0.1-0.1,0-0.1
			c0.3-0.1,0.4-0.1,0.7-0.1c0.1,0.1,0.3,0.1,0.2,0.2c-0.9,0.1-2.1,0.4-3.2,0.6c-0.3,0.1-0.7,0-0.8,0.2c0.5-0.1,0.9,0,1.3-0.1
			c0.5-0.1,1.1-0.3,1.6-0.3c0.1,0,0.2,0,0.4,0c0.1,0,0.3-0.1,0.4-0.1c0.1,0,0.1,0,0.3,0c0.2,0,0.4-0.1,0.6-0.2
			c0.4-0.1,0.8,0,1.3-0.1c0.1,0,0.1,0.1,0,0.2c-0.5,0.1-0.6,0.1-1.2,0.2c0.1,0,0.1,0,0.1,0.1c-0.2,0-0.2,0-0.3,0.1
			c0.4-0.1,0.4,0.1,0.3,0.2c-1,0.1-2.3,0.4-3.1,0.4c-0.1,0.1-0.1,0.1-0.3,0.2c-0.9,0.2-2,0.3-3,0.5c1.2,0,2.4-0.3,3.7-0.6
			c0.1,0,0,0.1,0.2,0.1c0.6-0.1,1.2-0.2,1.7-0.3c0.2,0.1,0.4,0.2,0.6,0.2c1.4-0.3,2.5,0,3.8-0.2c0,0.1,0.1,0.1,0.2,0.1
			c-0.1,0.1-0.2,0.2-0.3,0.2c-0.2,0-0.4,0.1-0.6,0.1c-1.1,0.4-2.7,0.4-4.1,0.7c-0.2,0.1,0,0.2,0.1,0.3c0.7,0,1.3-0.3,2-0.2
			c0.3,0.2,0.1,0.5-0.5,0.6c-0.9,0.1-2.5,0.3-3.1,0.4c-1.3,0.3-2.6,0.5-4,0.8c-0.7,0.1-1.3,0.2-2,0.4c-0.6,0.2-1.3,0.3-2,0.5
			c0.7-0.1,1.4-0.3,2.1-0.5C7.3,43.2,7.9,43,8.6,43c0-0.1,0-0.1,0.1-0.1c1.3-0.2,2.8-0.5,4-0.7c0.5,0.1,1.4-0.2,2-0.1
			c-0.1,0.3-0.5,0.5-1,0.6c0.5-0.1,1-0.1,1.5-0.1c0.4,0,1-0.2,1.2-0.2c0,0,0,0.1,0.1,0.1c-0.1,0,0.3-0.1,0.3-0.1
			c0.2-0.1,0.2-0.1,0.4-0.1c0.3,0,0.3,0,0.5,0c1-0.1,2-0.3,3.1-0.4c0.1,0,0.3,0,0.3,0c0.1,0,0,0.1,0.2,0.1c0.1,0,0-0.1,0.1-0.1
			c0.4,0,0.9-0.1,1.3-0.1c1-0.1,2.2-0.2,3-0.3c0.2,0,0,0.1,0.2,0.1c1.4-0.1,3-0.2,4.5-0.3c0.1,0,0,0.1,0.2,0.1
			c0.2,0,0.2-0.1,0.3-0.1c0.1,0,0.2,0,0.3,0.1c1.8-0.1,3.6-0.3,5.4-0.5c1.7-0.2,3.4-0.3,5-0.5c1.3-0.1,2.5-0.3,3.6-0.3
			c1.5-0.2,2.8-0.3,4.3-0.4c1-0.1,2.2-0.1,3-0.2c0.1,0,0.3-0.1,0.5-0.1c0.3,0,0.5,0,0.8,0c0.7,0,1.4-0.2,2.1-0.2
			c0.8,0,1.6-0.1,2.3-0.1c0.4,0,0.9-0.1,1.3-0.2c0.3,0,0.6,0,0.9,0c0.8,0,1.7-0.2,2.5-0.2c1.1,0,2.2,0,3.2-0.2
			c1.2,0,2.6-0.1,3.8-0.2c0.9,0.1,1.9-0.1,2.9-0.1c0.1,0,0.2,0,0.3,0c1.6,0.1,3.3-0.3,4.6-0.2c0.5-0.1,0.9,0,1.3,0
			c0.5,0,0.9-0.1,1.4-0.1c0.2,0,0.3,0,0.4,0c0.5,0,0.9-0.1,1.4-0.1c0.8-0.1,1.6,0.1,2.5,0c0.7,0.1,1.7,0.1,2.5,0
			c1.3,0.1,2.7-0.1,4-0.1c0.5,0,0.9,0.1,1.3,0c0.5,0.1,1.1,0,1.6,0c0.6,0,1.2,0.1,1.8,0.1c0.9,0,1.9-0.1,2.6,0.1
			c0.3,0.5,0.9-0.3,1.5-0.2c0.4,0.1,0.3,0.3,0.5,0.5c0.3,0.1,0.6,0,0.9,0C102,38.4,102.3,38.6,102.8,38.6z M15.4,38.1
			C15.4,38.1,15.4,38.1,15.4,38.1C15.5,37.9,15.7,38.1,15.4,38.1z M15.3,38.2c-0.4,0.1-1,0.3-1.3,0.2c-0.1,0,0.1,0.1,0,0.2
			c-0.2,0-0.4-0.1-0.7,0c0-0.2,0.6-0.2,0.6-0.3c0.2,0,0.4,0,0.4-0.1c0.5,0,0.6-0.1,0.9-0.1C15.2,38.1,15.3,38,15.3,38.2z"/>
	</g>
</g>
</svg>
