<?xml version="1.0" encoding="utf-8"?>
<!-- Generator: Adobe Illustrator 22.1.0, SVG Export Plug-In . SVG Version: 6.00 Build 0)  -->
<svg version="1.1" id="Layer_1" xmlns="http://www.w3.org/2000/svg" xmlns:xlink="http://www.w3.org/1999/xlink" x="0px" y="0px"
	 viewBox="0 0 52.6 11.8" style="enable-background:new 0 0 52.6 11.8;" xml:space="preserve">
<style type="text/css">
	.st0{fill:#FAFAFA;}
</style>
<g>
	<g>
		<path class="st0" d="M7,4.6c0-1.3-0.5-2.5-1.9-2.5C3.2,2.2,3,4.6,3,6c0,1.6,0.2,3.6,2.2,3.6c1.3,0,1.8-1.1,2-2.2l2.6,0.2
			c-0.3,2.6-2.1,4.2-4.7,4.2C1.7,11.8,0,9,0,5.9C0,2.7,1.7,0,5.2,0C8,0,9.5,1.7,9.8,4.4L7,4.6z"/>
		<path class="st0" d="M19.7,9.4v2.3h-7.3V0.2H15v9.2H19.7z"/>
		<path class="st0" d="M22.4,10c-0.8-1.2-1.2-2.7-1.2-4.1c0-3,1.5-5.9,4.9-5.9c1.5,0,2.7,0.5,3.7,1.8C30.5,2.9,31,4.5,31,5.9
			c0,1.3-0.4,2.9-1.1,4c-0.9,1.3-2.2,1.9-3.8,1.9C24.5,11.8,23.3,11.3,22.4,10z M24.3,3.5C24.1,4.2,24,5.2,24,5.9
			c0,1.4,0.2,3.7,2.1,3.7c0.9,0,1.4-0.5,1.7-1.3c0.3-0.7,0.4-1.7,0.4-2.4c0-0.8-0.1-1.8-0.4-2.6S27,2.2,26.1,2.2
			C25.2,2.2,24.7,2.7,24.3,3.5z"/>
		<path class="st0" d="M39.3,3.5c-0.3-1-1-1.4-2-1.4c-0.7,0-1.6,0.2-1.6,1.1c0,0.8,1,1,1.7,1.2c0.9,0.2,2.2,0.4,3,1
			C41.3,6,41.9,7,41.9,8.1s-0.5,2.2-1.4,2.9c-0.9,0.7-2.2,0.9-3.3,0.9c-2.2,0-4.1-0.9-4.6-3.2L35,8.1c0.3,1.2,1.2,1.6,2.4,1.6
			c0.8,0,1.8-0.3,1.8-1.2s-1.3-1.1-2-1.3c-2-0.4-4.1-1-4.1-3.5c0-1.1,0.4-2,1.2-2.7c0.9-0.8,1.9-1,3-1c2,0,3.7,0.7,4.4,2.7L39.3,3.5
			z"/>
		<path class="st0" d="M47.1,2.4v2.3h4.4v2.2h-4.4v2.5h5.5v2.2h-8.2V0.2h8.2v2.2H47.1z"/>
	</g>
</g>
</svg>
