<?xml version="1.0" encoding="utf-8"?>
<!-- Generator: Adobe Illustrator 22.1.0, SVG Export Plug-In . SVG Version: 6.00 Build 0)  -->
<svg version="1.1" id="Layer_1" xmlns="http://www.w3.org/2000/svg" xmlns:xlink="http://www.w3.org/1999/xlink" x="0px" y="0px"
	 viewBox="0 0 59.4 66.1" style="enable-background:new 0 0 59.4 66.1;" xml:space="preserve">
<style type="text/css">
	.st0{fill:#313536;}
	.st1{fill:#231F20;}
	.st2{enable-background:new    ;}
	.st3{fill:#E9C77E;}
	.st4{fill:#F0D5A7;}
	.st5{fill:#353030;}
	.st6{fill:#FAFAFA;}
	.st7{fill:none;}
	.st8{opacity:0.5;fill:#221F1F;enable-background:new    ;}
	.st9{fill:#FFFFFF;}
</style>
<g>
	<g>
		<g class="st2">
			<path class="st1" d="M21.1,56c0.1-0.1,0.2-0.1,0.5,0c0.2,0.1,0.4,0.1,0.5,0.2c0.6-0.1,1.2,0,1.7,0.2c0.5,0.5,0.9,0.8,1,0.9
				c0.1,0.1,0.3,0.3,0.5,0.6c0.4,0.3,0.7,0.7,1,1.1c0.3,0.4,0.4,0.8,0.2,1.4c-0.2,0.5-0.3,0.9-0.3,1.2c0,0.2,0,0.5-0.1,0.7
				c-0.1,0.3-0.4,0.6-0.8,0.9c-0.1,0.6-0.4,1-0.9,1.2c-0.5,0.2-1.2,0.4-1.9,0.6c-0.2,0.1-0.3,0.1-0.5,0.2c-0.2,0.1-0.3,0.1-0.4,0.1
				c-0.6,0.1-1.2-0.1-1.7-0.5c-0.5-0.4-1-0.7-1.5-1c-0.7-1-1.2-2.1-1.3-3.3c-0.1-0.7,0-1.3,0.1-1.8c0.1-0.5,0.3-1.1,0.5-1.6
				C19.1,56.9,20.2,56.5,21.1,56z M34,6.2c-2.4,0.5-4.6,1.1-6.6,1.8c-2.1,0.7-4,1.5-5.8,2.5c-0.2,0.3-0.5,0.5-0.9,0.6
				c-0.4,0.1-0.6,0.3-0.6,0.7c-0.1,0.3-0.2,0.6-0.3,0.9c0,0.3-0.2,0.5-0.5,0.6c-0.1,0.4-0.1,0.7-0.2,0.8C19.1,14,19,14.1,19,14.3
				c-0.1,0.4-0.2,0.6-0.2,0.7c-0.1,0.1-0.1,0.2-0.2,0.4c-0.1,0.4-0.2,0.7-0.3,0.9c-0.2,0.2-0.3,0.4-0.3,0.6c0,0.3,0,0.6,0,1.1
				c0.1,0.5,0.2,0.8,0.3,1.1c0.1,0.3,0.3,0.6,0.6,0.9c0.2,0.3,0.5,0.5,0.8,0.6c0.4,0,0.8,0.1,1.3,0.1c0.4,0,0.8,0.1,1.3,0.2
				c0.6,0.2,1.1,0.2,1.4,0.1c0.3-0.1,0.5-0.2,0.7-0.3c0.8-0.4,1.6-0.9,2.5-1.4c0.9-0.5,1.6-1,2.1-1.6c0.1-0.4,0.3-0.9,0.4-1.3
				c0.2-0.4,0.2-0.9,0.1-1.5c0-0.4-0.1-0.7-0.2-1.1c-0.1-0.4-0.2-0.7-0.2-1.1c0.5-0.2,0.7-0.3,0.8-0.2c0.1,0.1,0.2,0.2,0.3,0.2
				c0.6,0.6,1.1,1.4,1.6,2.3c0.5,0.9,0.8,1.8,0.9,2.6c0.1,0.4,0.1,0.8,0,1.4c-0.1,0.5-0.2,0.9-0.3,1.2c-0.1,0.2-0.2,0.3-0.4,0.5
				c-0.2,0.2-0.4,0.3-0.6,0.5c-0.6,0.5-1,0.8-1.2,0.9c-0.2,0.1-0.3,0.3-0.3,0.5c-1.3,0.8-2.5,1.5-3.8,2.2c-1.3,0.7-2.6,1.4-3.9,2
				c-0.4,0-0.7-0.1-1.1,0c-0.3,0-0.7,0-0.9,0.1c-0.5,0-1.1-0.2-1.8-0.4c-0.6-0.2-1.2-0.4-1.7-0.7c-0.4-0.2-0.9-0.5-1.2-1.1
				c-0.4-0.6-0.7-1.1-1-1.5c-0.2-0.4-0.5-0.8-0.7-1.2c-0.2-0.4-0.4-0.8-0.6-1.3c-0.1-0.4-0.2-0.9-0.3-1.5c-0.1-0.5-0.2-1-0.3-1.5
				c-0.4-1.5-0.5-2.7-0.4-3.7c0.1-0.5,0.2-0.9,0.2-1c0-0.1,0-0.3,0-0.4c0.1-0.7,0.3-1.2,0.6-1.6c0.3-0.4,0.7-0.8,1.1-1.2
				c0.4-0.4,0.9-0.7,1.4-1c0.5-0.3,0.9-0.7,1.3-1c0.5-0.2,0.9-0.4,1.2-0.5c0.3-0.1,0.6-0.3,0.7-0.6c0.3-0.1,0.5-0.2,0.8-0.3
				c0.3-0.1,0.6-0.2,0.8-0.3c0.6-0.4,1.2-0.8,1.7-1.2c0.5-0.4,1.2-0.8,1.9-1.2c0.6-0.3,1.2-0.6,1.9-0.8c0.7-0.3,1.4-0.6,1.9-0.8
				c0.2-0.3,0.4-0.5,0.8-0.5C28.7,1.2,29,1.1,29.5,1c0.4-0.1,0.7-0.2,1-0.3c0.3-0.1,0.6,0,0.9,0.2c0.4-0.2,0.9-0.3,1.4-0.3
				c0.5,0,0.9-0.1,1.3-0.2c0.4-0.2,0.6-0.2,0.8-0.2c0.2,0,0.4,0,0.5,0c0.1,0,0.3,0,0.4-0.1C36,0,36.1,0,36.3,0c0.6,0,1.1,0,1.5,0.1
				c0.5,0,1,0.1,1.7,0.1c0.6,0,1,0,1.4,0c0.4,0,0.8,0.1,1.3,0.2c0.2,0.1,0.4,0.1,0.6,0.1c0.2,0,0.4,0.1,0.5,0.2
				c0.1,0.1,0.3,0.3,0.6,0.4c0.2,0.2,0.4,0.3,0.6,0.4c0.4,0.3,0.8,0.5,1.1,0.7c0.3,0.2,0.7,0.4,1,0.8c0.3,0.4,0.6,0.6,0.7,0.8
				c0.1,0.1,0.3,0.3,0.4,0.4c0.2,0.3,0.5,0.6,0.7,1c0.5,0.6,1.1,1.2,1.6,1.7c0.6,0.6,0.9,1.3,1,2.1c0.3,0.5,0.5,1.1,0.5,1.6
				c0,0.5,0.1,1.1,0.3,1.8c0.2,0.7,0.3,1.3,0.1,1.6c-0.2,0.4-0.3,0.7-0.4,1.1c-0.1,0.6-0.2,1-0.3,1.3c-0.1,0.3-0.2,0.5-0.3,0.8
				c0,0.5,0,1-0.1,1.4c-0.1,0.4-0.3,0.8-0.5,1.2c-0.4,0.7-0.6,1.2-0.9,1.5c-0.2,0.3-0.5,0.6-0.9,0.9c-0.2,0.4-0.5,0.8-0.9,1.1
				c-0.4,0.3-0.8,0.6-1.3,0.9c-0.2,0.2-0.5,0.3-0.9,0.5c-0.3,0.1-0.7,0.3-1,0.5c-0.3,0.2-0.6,0.5-0.9,0.7c-0.3,0.3-0.5,0.6-0.7,0.8
				c-0.3,0.2-0.6,0.4-0.9,0.6c-0.3,0.2-0.6,0.4-0.9,0.6c-0.4,0.2-0.8,0.4-1,0.6c-0.3,0.2-0.6,0.4-0.9,0.7c-0.4,0.3-0.7,0.5-1.1,0.8
				c-0.3,0.2-0.7,0.5-1.1,0.8c-0.7,0.5-1.5,1-2.3,1.5c-0.8,0.5-1.5,1.1-2.1,1.7c-0.4,0.4-0.8,0.8-1.2,1.2c-0.4,0.4-0.8,0.8-1.2,1.1
				c-0.3,0.5-0.5,0.8-0.5,0.9c0,0.1,0,0.3,0,0.5c-0.3,0.8-0.5,1.4-0.6,2c-0.2,0.6-0.3,1.1-0.5,1.7c-0.1,0.5-0.2,1.1-0.2,1.8
				c0,0.6-0.1,1.2-0.1,1.8c0,0.3-0.1,0.5-0.1,0.8c0,0.3-0.1,0.6-0.2,0.9c0,0.7-0.1,1.2-0.2,1.6c0,0.3-0.1,0.8-0.1,1.3
				c0,0.5-0.3,0.8-0.7,0.8c0,0.2-0.1,0.4-0.2,0.5c-0.1,0.1-0.3,0.2-0.3,0.3c-0.6,0.1-1.1,0.3-1.6,0.7c-0.5,0.3-1.2,0.4-2,0.3
				c-0.3,0.3-0.6,0.4-1,0.5c-0.4-0.1-0.6-0.2-0.8-0.3c-0.1-0.1-0.3-0.1-0.6,0c-0.6-0.3-1-0.7-1.1-1.3c-0.2-0.6-0.1-1.1,0.1-1.5
				c0.3-1.6,0.6-3,0.9-4.1c0.3-1.2,0.7-2.3,1.3-3.4c0.1-0.2,0.1-0.3,0.2-0.5c0.1-0.1,0.2-0.3,0.2-0.5c0-0.3,0-0.6-0.1-0.9
				c-0.1-0.3,0-0.6,0.1-0.8c0.1-1.2,0.4-2.2,0.8-3c0.4-0.9,0.7-1.9,0.9-3c0.1-0.1,0.2-0.2,0.2-0.4c0-0.2,0.1-0.3,0.2-0.4
				c0-0.4,0-0.6,0-0.7c0.1-0.1,0.1-0.2,0.1-0.3c0.7-0.6,1.6-1,2.7-1.2c1.1-0.2,2-0.5,2.9-0.9c0.8-0.6,1.4-1.1,1.9-1.4
				c0.5-0.3,0.9-0.7,1.3-1.1c0.5-0.4,0.9-0.9,1.4-1.3c0.4-0.4,0.9-0.8,1.3-1.2c0.9-0.9,1.8-1.9,2.7-2.9c0.9-1,1.7-2.1,2.4-3.2
				c0.2-0.3,0.3-0.6,0.4-1c0.1-0.4,0.3-0.8,0.4-1.2c0.1-0.6,0.2-1.4,0.1-2.3c-0.1-0.8-0.2-1.5-0.4-2.3c-0.2-0.8-0.5-1.5-1.2-2.1
				c-0.6-0.3-0.9-0.6-1.1-0.7c-0.2-0.2-0.3-0.3-0.5-0.4C37.5,8.2,37,8,36.9,7.9c-0.1-0.1-0.3-0.1-0.4-0.2c-0.1-0.1-0.3-0.2-0.5-0.2
				c-0.2,0-0.4-0.1-0.6-0.2c-0.1-0.1-0.3-0.2-0.4-0.2C34.9,7,34.7,7,34.5,6.9L34,6.2z"/>
		</g>
	</g>
</g>
</svg>
