<?xml version="1.0" encoding="utf-8"?>
<!-- Generator: Adobe Illustrator 22.1.0, SVG Export Plug-In . SVG Version: 6.00 Build 0)  -->
<svg version="1.1" id="Layer_1" xmlns="http://www.w3.org/2000/svg" xmlns:xlink="http://www.w3.org/1999/xlink" x="0px" y="0px"
	 viewBox="0 0 110.5 18.4" style="enable-background:new 0 0 110.5 18.4;" xml:space="preserve">
<style type="text/css">
	.st0{fill-rule:evenodd;clip-rule:evenodd;fill:#313536;}
	.st1{fill:#231F20;}
	.st2{fill:#F0D5A7;}
	.st3{fill:#353030;}
	.st4{fill-rule:evenodd;clip-rule:evenodd;fill:#231F20;}
	.st5{fill:#FAFAFA;}
	.st6{fill:none;}
	.st7{fill-rule:evenodd;clip-rule:evenodd;fill:#F0D5A7;}
	.st8{opacity:0.5;fill:#221F1F;}
	.st9{fill-rule:evenodd;clip-rule:evenodd;fill:#E9C77E;}
	.st10{fill:#FFFFFF;}
</style>
<g>
	<g>
		<path class="st3" d="M17.1,3.6c0,2.2-0.1,4.5-0.1,6.7c0,4.2,0.1,6.3,0.1,7c0,0.3,0,1.2-0.5,1.2c-0.2,0-0.5-0.2-1.2-1l-5.1-5.8
			c-5-5.6-5.4-6-5.5-6c0,0-0.1,0.1-0.1,0.1c-0.2,2.9-0.3,5.8-0.3,8.8v0.7c0,1.3,0.1,1.5,1.1,1.6c0.3,0,1.3,0.1,1.5,0.2
			c0.1,0,0.3,0.1,0.3,0.6c0,0.3-0.1,0.5-0.4,0.5c-0.1,0-1.4-0.1-3-0.1c-1.6,0-2.9,0.1-3,0.1c-0.3,0-0.5-0.2-0.5-0.5
			c0-0.1,0-0.5,0.4-0.6c0.5-0.2,1.7,0,2.1-0.8c0.1-0.3,0.1-0.2,0.7-11.6V4.3v0c0-0.2,0-0.4-0.8-1.1C2.5,3,1.8,2.3,0.4,2.2
			C0.2,2.2,0,2.1,0,1.6C0,1.1,0.2,1,0.5,1h3c0.5,0,0.7,0.1,1,0.5l3.9,4.5l2.3,2.5c4.5,4.9,4.7,5.1,4.9,5.1c0.1,0,0.2-0.1,0.2-0.2
			c0-0.9,0-1.8,0-2.7c0-2.5-0.1-5-0.2-7.4c0-1.1-0.5-1.1-1.6-1.2c-0.2,0-0.5-0.1-0.5-0.5c0-0.2,0.2-0.6,0.7-0.6
			C14.4,1,15.1,1,16.5,1C17.9,1,18.6,1,18.8,1c0.3,0,0.5,0.1,0.5,0.6C19.4,2.8,17.1,1.2,17.1,3.6z"/>
		<path class="st3" d="M36.3,18.4c-2.4,0-4.9-1-6.6-2.7c-1.8-1.7-2.8-4.2-2.9-6.7C26.8,4.1,31,0,36,0c5.3,0,9.2,4.4,9.2,9.5
			C45.2,14.7,41.1,18.4,36.3,18.4z M36.2,17c2.8,0,6.5-1.9,6.5-7.1c0-2.4-0.7-5.2-2.7-7c-1.2-1.1-2.8-1.7-4.5-1.7
			c-3.1,0-6.4,2.1-6.4,7C29.2,12.6,31.5,17,36.2,17z"/>
		<path class="st3" d="M61.4,17.8c-1.8,0-3.3,0.1-3.4,0.1c-0.4,0-0.5-0.3-0.5-0.6c0-0.6,0.3-0.5,1.8-0.7c0.7-0.1,0.8-0.4,0.8-0.9
			V3.2c0-0.3,0-0.8-0.7-0.8h-3.7c-0.7,0-0.8,0.1-0.9,0.5c-1,2-1,2.3-1.5,2.3c-0.3,0-0.5-0.3-0.5-0.6v0c0-0.1,0-0.2,0.7-3.4
			c0.1-0.3,0.3-0.4,0.5-0.4h14.4C68.9,0.8,69,1,69,1.4c0.5,2.5,0.6,3,0.6,3.2c0,0.3-0.2,0.5-0.5,0.5c-0.3,0-0.5-0.3-0.6-0.5
			c-1.2-2-1.1-2.2-1.9-2.2h-3.6c-0.5,0-0.5,0.3-0.5,0.7v13c0,0.6,0.3,0.5,2.3,0.7c0.4,0,0.4,0.2,0.4,0.7c0,0.2-0.1,0.5-0.4,0.5
			C64.7,18,63.2,17.8,61.4,17.8z"/>
		<path class="st3" d="M88.5,5.8v4.6c0,0.3,0,0.7-0.7,0.7c-0.6,0-0.7-0.3-0.7-0.5V9.2c0-0.5-0.3-0.5-0.6-0.5h-3.4
			c-0.6,0-1.2,0-1.2,1v5.7c0,0.4,0.1,0.8,0.8,0.9c0.8,0.1,1.5,0.2,2.3,0.2c0.8,0,3.1-0.1,3.6-0.5c0.4-0.3,1.3-2.4,1.7-2.7
			c0.1,0,0.2-0.1,0.2-0.1c0.2,0,0.4,0.1,0.4,0.6v0c0,0.1,0,0.2-0.8,3.5c-0.1,0.4-0.2,0.5-0.7,0.5h-8.5c-1.9,0-2.6,0.3-3.1,0.3
			c-0.5,0-0.6-0.6-0.6-0.7c0-0.4,0.2-0.4,1.9-1.1c0.5-0.2,0.5-0.4,0.5-1V2.5c0-0.4-0.1-0.4-0.7-0.5c-1-0.1-1.6,0-1.6-0.7
			c0-0.5,0.2-0.5,0.5-0.5h11.4c0.3,0,0.5,0.1,0.5,0.4c0.2,1.1,0.7,3.2,0.7,3.3c0,0.1-0.1,0.4-0.5,0.4s-0.6-0.3-0.7-0.4
			C88,2.1,88.1,2,87.4,2h-4.7C82,2,81.9,2.5,81.9,3v3.7c0,0.2,0,0.5,0.5,0.5h3.8c0.4,0,0.9,0,0.9-0.8V5.7c0-0.2,0.1-0.5,0.7-0.5
			C88.5,5.1,88.5,5.6,88.5,5.8z"/>
		<path class="st3" d="M104,0.9c2,0,2.9,1,3.2,1c0.4,0,0.4-1,1-1c0.2,0,0.4,0.2,0.4,0.5c0,0.2-0.1,0.8-0.1,2.1c0,1.2,0.1,1.8,0.1,2
			c0,0.2-0.2,0.4-0.4,0.4h0c-0.8,0-0.5-0.9-1.7-2.3c-0.7-0.7-1.6-1.4-2.7-1.4c-1.4,0-2.4,1-2.4,2.3c0,0.9,0.5,1.7,1.3,2.3
			c1.3,1,3.1,0.9,4.7,1.6c1.8,0.8,3.1,2.4,3.1,4.6c0,2.9-2.4,5.3-5.4,5.3c-1.4,0-2.8-0.5-3.8-1.4c-0.2-0.2-0.4-0.3-0.8-0.3
			c-0.2,0-0.4,0.1-0.6,0.1c-0.3,0-0.4-0.2-0.4-0.4c0-0.3,0.3-1.2,0.6-4c0-0.3,0.1-0.5,0.5-0.5c0.5,0,0.5,0.2,0.7,1.4
			c0.2,1.7-0.1,1.1,0.6,2.1c0.6,0.8,1.7,1.6,3.2,1.6c2,0,3.6-1.5,3.6-3.4c0-1.1-0.5-2.1-1.4-2.7c-1.4-1-3-1-4.7-1.6
			c-2-0.8-2.9-2.4-2.9-4C99.6,2.8,101.4,0.9,104,0.9z"/>
	</g>
</g>
</svg>
