<?xml version="1.0" encoding="utf-8"?>
<!-- Generator: Adobe Illustrator 22.1.0, SVG Export Plug-In . SVG Version: 6.00 Build 0)  -->
<svg version="1.1" id="Layer_1" xmlns="http://www.w3.org/2000/svg" xmlns:xlink="http://www.w3.org/1999/xlink" x="0px" y="0px"
	 viewBox="0 0 55.8 11.7" style="enable-background:new 0 0 55.8 11.7;" xml:space="preserve">
<style type="text/css">
	.st0{fill:#313536;}
	.st1{fill:#231F20;}
	.st2{enable-background:new    ;}
	.st3{opacity:0.3;fill:#231F20;}
	.st4{fill:#F0D5A7;}
	.st5{fill:#353030;}
	.st6{fill:#FAFAFA;}
	.st7{fill:none;}
	.st8{opacity:0.5;fill:#221F1F;enable-background:new    ;}
	.st9{fill:#E9C77E;}
	.st10{fill:#FFFFFF;}
</style>
<g>
	<g class="st2">
		<path class="st1" d="M0.3,2.5c1.4-0.4,3-1,3.9-2.3h1.9v9.4h3.2v2.1H0V9.6h3.5V3.1L0.3,4.8V2.5z"/>
		<path class="st3" d="M31.2,6.4v1.8H14.5V6.4H31.2z"/>
		<path class="st3" d="M37.2,2.5c1.4-0.4,3-1,3.9-2.3H43v9.4h3.2v2.1h-9.3V9.6h3.5V3.1l-3.2,1.7V2.5z"/>
		<path class="st3" d="M55.6,11.7H47V9.4l0.9-0.6l3.4-2.6c0.8-0.7,1.6-1.4,1.6-2.6c0-0.9-0.7-1.5-1.6-1.5c-1.3,0-1.9,1-2,2.2L47,3.8
			c0.5-2.4,2-3.8,4.5-3.8c1.1,0,2,0.2,2.8,0.9c0.9,0.7,1.3,1.6,1.3,2.7C55.6,5,55,6,53.9,6.9c-1,0.9-2.1,1.6-3.3,2.2l-0.4,0.2h5.5
			L55.6,11.7z"/>
	</g>
</g>
</svg>
