<?xml version="1.0" encoding="utf-8"?>
<!-- Generator: Adobe Illustrator 22.1.0, SVG Export Plug-In . SVG Version: 6.00 Build 0)  -->
<svg version="1.1" id="Layer_1" xmlns="http://www.w3.org/2000/svg" xmlns:xlink="http://www.w3.org/1999/xlink" x="0px" y="0px"
	 viewBox="0 0 115.5 46.2" style="enable-background:new 0 0 115.5 46.2;" xml:space="preserve">
<style type="text/css">
	.st0{fill-rule:evenodd;clip-rule:evenodd;fill:#313536;}
	.st1{fill:#231F20;}
	.st2{fill:#F0D5A7;}
	.st3{fill:#353030;}
	.st4{fill:#FAFAFA;}
	.st5{fill:none;}
	.st6{fill-rule:evenodd;clip-rule:evenodd;fill:#F0D5A7;}
	.st7{opacity:0.5;fill:#221F1F;}
	.st8{fill-rule:evenodd;clip-rule:evenodd;fill:#E9C77E;}
	.st9{fill:#FFFFFF;}
</style>
<g>
	<g>
		<path class="st4" d="M21.2,1.1c-0.6-0.2-2.2-0.1-2.4,0.7c-0.2,0.7-0.1,1.6,0.2,2.2c0.4,0.5,0.5,0.7,0.8,1c0.5,0.5,1.1,0.9,1.4,1.3
			c0.4,0.4,0.8,0.6,1.2,1c1.1,1.1,1.4,1.1,1.9,2.3c0.7,1.5,1.1,4.7-1.3,6.2c-1.7,1-3.3,0.8-4.3,0.4c-0.4-0.2-0.6-0.2-1.2-0.8
			c-0.4-0.4-0.4-0.3-0.7-0.9c-0.3-0.6-0.3-0.8-0.4-1.3c-0.1-0.4-0.2-0.7-0.5-1c-0.2,0.2-0.3,0.5-0.6,0.5c-0.3,0-0.4-0.2-0.3-0.5
			c0.4-0.6,0.7-1.4,1.1-2c0.1-0.3,0.3-0.5,0.6-0.6c0.4-0.1,0.7,0.1,0.6,0.5c-0.2,0.5-0.9,1.1-0.4,2.1c0.3,0.8,0.6,2,1.1,2.4
			c0.7,0.6,1.9,0.8,2.9,0.4c0.8-0.4,0.9-0.6,1.2-1.5c0.1-0.4,0.1-1.3,0-2c-0.2-1.1-1.5-2.2-2.2-3c-0.6-0.6-1-1.2-1.7-1.9
			c-0.7-0.7-1-1.4-1.1-2.3c-0.1-0.7-0.1-1.5,0.1-2.2c0.2-0.6,0.3-1.1,1-1.7c0.6-0.5,1.4-0.6,2.7-0.5c0.4,0,1.1,0.3,1.5,0.4
			c0.3,0.1,0.7,0.5,0.9,0.7c0.1-0.3,0.1-0.5,0.5-0.5s0.3,0.8,0.3,1c-0.1,0.7,0.1,1-0.1,1.5c-0.1,0.2-0.4,0.3-0.7,0.2
			c-0.3-0.2-0.3-0.5-0.3-0.9c0-0.4-0.2-0.6-0.5-0.9C21.8,1.3,21,1.1,21.2,1.1z"/>
		<path class="st4" d="M31.6,7.6C32,7.6,32.1,8,31.7,8.2C31.3,8.6,31.1,8.3,31,9c-0.3,1.2-0.2,1.4-0.5,2.6c-0.1,0.7-0.2,1.2-0.3,1.8
			c-0.1,0.4-0.3,1.6,0,1.8c0.3,0.3,0.9-1.3,1.2-1.2c0.7,0.3-1,2.2-1.8,2.5c-2.8,0.9-1.9-2.5-1.7-4c0.2-1,0.2-1.4,0.4-2.6
			c0.1-0.5,0.1-0.7,0.2-1.2c-0.4-0.1-1.4,0-1.3-0.5c-0.1-0.5,0.4-0.5,0.7-0.6c1.1-0.2,1-0.3,1.6-1.8c0.4-1.3,0.7-1.1,2-1.1
			C32.2,4.7,30.6,7.9,31.6,7.6z"/>
		<path class="st4" d="M40.8,9.7c-0.1,0.6-0.2,1.1-0.3,1.6c-0.1,0.5-0.2,1.1-0.2,1.7c0,0.1,0,0.6-0.1,0.9c-0.1,0.5-0.1,0.9,0,1.3
			c0.5,0.2,0.4-1.3,1-1.7c0.5-0.3,0.1,1.1,0.1,1.2c-0.2,0.7-0.5,1.3-1.3,1.5c-0.3,0.1-0.5,0.1-0.7,0.1c-0.2,0-0.5-0.1-0.7-0.3
			c-0.3-0.4-0.2-0.2-0.3-0.6c0,0-0.1-0.3-0.1-0.3c-0.2,0.2-0.3,0.3-0.5,0.5c-0.3,0.3-0.6,0.5-0.9,0.5c-0.8,0.1-1.4-0.2-1.8-0.6
			c-0.9-0.8-0.8-2.4-0.6-3.5c0.1-0.5,0.1-1.1,0.3-1.7c0.3-0.8,0.5-1.2,1-1.9c0.4-0.5,1-1,1.7-1c0.7,0,1.4,0.4,1.6,1.1
			c0.1-0.3,0.1-0.7,0.2-1c0-0.2,0.2-0.3,0.4-0.3c0.4-0.1,0.7,0,1.1,0c0.3,0,0.8,0,0.8,0.2C41.3,7.6,40.9,9,40.8,9.7z M37.3,8.3
			c-0.4,0.2-0.7,0.6-0.8,1c-0.1,0.5-0.1,0.8-0.2,1.3c0,0.5-0.2,1-0.2,1.5c0,0.3-0.1,0.9-0.1,1.2c0,0.5,0,1.2,0.2,1.7
			c0.2,0.4,0.6,0.4,1,0.1c0.6-0.5,0.9-1.2,1.1-2c0-0.4,0.1-0.7,0.1-1.2c0-0.2,0-0.7,0.1-1.1c0-0.3,0-0.7,0-0.8c0-0.3,0.1-0.4,0-0.6
			c-0.1-0.2-0.1-0.5-0.2-0.7C38,8.4,37.8,8.1,37.3,8.3z"/>
		<path class="st4" d="M48.5,7.5c0.8-0.2,1.9,0.7,1.9,1.8c-0.1,2-2.9,2.6-2.4,0.6c0.2-0.5,1.3-1.5,0.4-1.6c-0.9-0.1-1.6,1-1.8,1.7
			c-0.3,1.8-0.2,3.3-0.3,5.1c-0.1,1.1,0,1.2-1.2,1.1c-1-0.1-1.1,0.4-1-0.8c0.1-0.8,0.1-1,0.2-1.7c0.1-1,0.1-1.5,0.3-2.7
			c0.4-2.5,0-3.6-0.4-2.5c-0.6,0.8-1.6,0.6-1.1-0.6c1.4-1.7,2.3-1.9,3.4,0.7C47.3,8,47.6,7.7,48.5,7.5z"/>
		<path class="st4" d="M56.4,7.6c0.3-0.1,0.4,0.4,0.1,0.6c-0.4,0.4-0.6,0.1-0.8,0.8c-0.3,1.2-0.2,1.4-0.5,2.6
			c-0.1,0.7-0.2,1.2-0.3,1.8c-0.1,0.4-0.3,1.6,0,1.8c0.3,0.3,0.9-1.3,1.2-1.2c0.7,0.3-1,2.2-1.8,2.5c-2.8,0.9-1.9-2.5-1.7-4
			c0.2-1,0.2-1.4,0.4-2.6c0.1-0.5,0.1-0.7,0.2-1.2c-0.4-0.1-1.4,0-1.3-0.5c-0.1-0.5,0.4-0.5,0.7-0.6c1.1-0.2,1-0.3,1.6-1.8
			c0.4-1.3,0.7-1.1,2-1.1C56.9,4.7,55.4,7.9,56.4,7.6z"/>
		<path class="st4" d="M69.6,11c0.1,1.3,0.1,2.5-0.5,3.6c-0.5,0.8-1.2,1.4-2.2,1.7c-0.6,0.2-1.2,0.2-1.8,0c-0.5-0.1-1-0.3-1.3-0.7
			c-0.3-0.4-0.4-0.6-0.5-1.1c-0.1-0.3-0.2-0.8-0.2-1.1c0-0.3,0-0.7,0.1-1c0.1-0.5,0.2-1,0.4-1.5c0.1-0.2,0.1-0.3,0.3-0.6
			c0.1-0.1,0.3-0.6,0.4-0.8c0.6-0.9,1.1-1.3,2.1-1.6c0.4-0.2,0.9-0.1,1.3,0.1c0.1,0,0.8,0.3,1.4,1.2C69.3,9.7,69.5,10.4,69.6,11z
			 M65.7,15.6c0.5,0.1,0.8,0,1.1-0.2c0.5-0.3,0.5-0.9,0.6-1.4c0.1-0.7,0.2-1.5,0.2-2.2c0-0.8,0-1.9-0.3-2.6
			c-0.3-0.5-0.7-0.9-1.1-0.4c-0.4,0.4-0.4,1.4-0.5,1.9c-0.2,0.7-0.2,1.4-0.3,2.1c-0.1,0.8-0.2,1.7,0,2.5
			C65.4,15.4,65.5,15.5,65.7,15.6z"/>
		<path class="st4" d="M78.4,10.4c0.1-0.5,0.4-2.8-0.8-2.1c-0.9,0.6,0.8,1.6,0.3,2.3c-0.8,1.2-1.7-0.5-1.7-1.2
			c0-1.2,1.2-2.2,2.3-1.6c1,0.5,1,1.8,0.9,2.8c-0.2,1.4-0.9,2.5-1.6,3.6c-0.7,1-1.6,1.7-2.7,2c-0.5,0.2-1.1,0.3-1.6,0.2
			c-0.8-0.1-1.1-0.4-1.1-1.1c0.1-1.2,0.3-2.4,0.3-3.6c0-1,0.4-2.7-0.3-3.4C72.3,8,71.9,8.3,71.9,8c0-0.3,0.6-0.4,0.9-0.4
			c0.9,0,1.7,0.3,1.8,1.3c0.2,1.1,0.1,1.8,0,3c-0.1,1.3-0.4,2.4-0.4,3.6C76.5,15.5,78.1,12.2,78.4,10.4z"/>
		<path class="st4" d="M82.1,9.4C82.8,8,84,7.3,85.5,7.6c1.6,0.4,1.7,2.2,1.5,3.8c-0.2,1.4-2.3,1.9-3.4,2c-0.4,0.4-0.2,1.2,0,1.7
			c0.4,0.7,1.6,0.1,2.1-0.3c0.7-0.5,1-1.1,1.2-1.9c0.2-0.9,1-0.7,0.7,0.2c-0.5,1.6-1.3,2.9-3,3.3c-1.4,0.3-3.2-0.5-3.4-2.1
			C81,11.9,81.3,11,82.1,9.4z M84.4,8.4c-0.6,0.5-0.7,1.7-0.8,2.5c0,0.3-0.1,0.7-0.1,1.1c0,0.5,1,0.3,1.3,0.2
			c0.8-0.1,0.9-2.4,0.9-3.1C85.6,8.5,85.1,7.8,84.4,8.4z"/>
		<path class="st4" d="M94.9,7.5c0.8-0.2,1.9,0.7,1.9,1.8c-0.1,2-2.9,2.6-2.4,0.6c0.2-0.5,1.3-1.5,0.4-1.6c-0.9-0.1-1.6,1-1.8,1.7
			c-0.3,1.8-0.2,3.3-0.3,5.1c-0.1,1.1,0,1.2-1.2,1.1c-1-0.1-1.1,0.4-1-0.8c0.1-0.8,0.1-1,0.2-1.7c0.1-1,0.1-1.5,0.3-2.7
			c0.4-2.5,0-3.6-0.4-2.5C89.9,9.4,89,9.1,89.5,8c1.4-1.7,2.3-1.9,3.4,0.7C93.7,8,94,7.7,94.9,7.5z"/>
		<path class="st4" d="M99.5,14.9c0.3,0.2,0.6,0.3,0.5,0.9c0,0.4-0.1,0.3-0.3,0.5c-0.3,0.3-0.8,0.3-1.1,0c-0.3-0.2-0.3-0.5-0.3-0.8
			C98.2,14.9,99.1,14.6,99.5,14.9z M104.8,4.9c-0.2,0.7-1.2,1.5-1.7,1.9c-0.4,0.3-0.8,0.5-1.2,0.8c-0.1,0.4-0.3,0.6-0.4,0.9
			c-0.1,0.3-0.3,1-0.4,1.4c-0.3,1.3-0.3,2-0.6,3.1c0,0.2,0,0.6-0.3,0.7c-0.3,0.1-0.4,0-0.6,0.1c-0.3,0-0.9,0.2-1.2,0
			c-0.3-0.1-0.1-1.7,0-2c0.2-1.2,0.3-2.1,0.6-3.2c0.1-0.5,0.2-0.7,0.3-1.2c0.1-0.2,0-0.4,0.1-0.8c0-0.1,0.1-0.4,0.3-0.6
			c0.2-0.2,0.4-0.5,0.6-0.7c0.4-0.3,0.7-0.5,1.1-0.8c0.4-0.3,0.8-0.8,1.1-1.2c0.3-0.4,0.6-1.3,0.2-1.7c-0.3-0.3-0.7-0.3-1.1-0.2
			c-0.2,0-1.2,0.5-0.8,0.8c0.3,0.3,0.2,0.4,0,0.8c-0.2,0.3-0.5,0.3-0.9,0.3c-0.6-0.1-1-0.4-0.8-1.1c0.1-0.6,0.6-1.3,1.1-1.7
			c0.8-0.7,2.1-0.8,3-0.5c0.3,0.2,1.1,0.6,1.6,1.4C104.8,1.9,105.5,2.5,104.8,4.9z"/>
	</g>
	<g>
		<path class="st5" d="M115.5,28.6c-9.7-0.1-19.3,0.1-28.9,0.4c-9.6,0.3-19.2,0.7-28.8,1.3c-9.6,0.6-19.2,1.2-28.8,2.2
			c-2.4,0.2-4.8,0.5-7.2,0.7c-2.4,0.3-4.8,0.5-7.2,0.9L11,34.6l-3.6,0.6c-2.4,0.3-4.9,0.9-7.4,1.4l2.3,9.5c2.2-0.4,4.4-1,6.7-1.3
			l3.4-0.6l3.5-0.5c2.3-0.3,4.7-0.6,7-0.9c2.3-0.3,4.7-0.5,7.1-0.7c9.4-0.9,18.9-1.6,28.4-2.1c9.5-0.5,19-1,28.5-1.3
			c9.5-0.3,19-0.5,28.4-0.4L115.5,28.6z"/>
		<path class="st6" d="M24.6,41.9c-0.1,0-0.2,0.1-0.3,0.1C24.4,42,24.5,41.9,24.6,41.9z"/>
		<path class="st6" d="M19.4,35.8c-0.1,0-0.4,0.1-0.4,0C19.2,35.8,19.2,35.8,19.4,35.8z"/>
		<path class="st6" d="M18.8,35.7c0,0.1-0.2,0-0.3,0.1C18.5,35.7,18.8,35.7,18.8,35.7z"/>
		<path class="st6" d="M17.6,36.9c-0.1,0-0.3,0.1-0.3,0.1C17.2,36.9,17.5,36.9,17.6,36.9z"/>
		<path class="st6" d="M16.8,35.9c-0.1,0.1-0.3,0.1-0.6,0.1C16.3,36,16.6,36,16.8,35.9z"/>
		<path class="st6" d="M15.7,41.4c-0.3,0-0.9,0.2-1.1,0.1C15,41.5,15.4,41.3,15.7,41.4z"/>
		<path class="st6" d="M14.6,39.2c-0.4,0.2-1.1,0.1-1.5,0.3c-0.1-0.1,0.7-0.1,0.8-0.2c0.1,0,0.2,0,0.3,0
			C14.4,39.2,14.5,39.2,14.6,39.2z"/>
		<path class="st6" d="M10,39.5c0,0.1,0,0.1-0.1,0.1c0,0-0.1,0-0.1-0.1L10,39.5z"/>
		<path class="st6" d="M8.2,40.7c-0.3,0.2-1,0.3-1.4,0.3c0,0,0,0.1-0.1,0.1c-0.2,0.1-0.7,0.1-0.2,0C7,40.8,7.5,40.8,8.2,40.7z"/>
		<path class="st6" d="M7.7,39.5c-0.1,0-0.2,0.1-0.3,0.1C7.4,39.5,7.7,39.5,7.7,39.5z"/>
		<path class="st6" d="M7.8,42.7c0,0.1-0.3,0.1-0.4,0.1C7.5,42.7,7.7,42.6,7.8,42.7z"/>
		<path class="st6" d="M7.4,40c-0.1,0.1-0.4,0.1-0.5,0.2C6.8,40.1,7.3,40,7.4,40z"/>
		<path class="st6" d="M7.2,39.7c-0.1,0.1-0.4,0.1-0.6,0.2C6.7,39.7,7,39.7,7.2,39.7z"/>
		<path class="st6" d="M7.4,43.3c0,0.1-0.2,0.1-0.3,0.1C7.1,43.4,7.3,43.4,7.4,43.3z"/>
		<path class="st6" d="M7.1,42.8c-0.1,0.1-0.7,0.2-1,0.2C6.5,42.9,6.8,42.8,7.1,42.8z"/>
		<path class="st6" d="M6.5,39.8C6.2,40,5.9,40,5.6,40C5.9,39.9,6.2,39.9,6.5,39.8z"/>
		<path class="st6" d="M6,41.1c-0.1,0.1-0.2,0.1-0.4,0.1C5.6,41.1,5.9,41.1,6,41.1z"/>
		<path class="st6" d="M5.6,40.9C5.4,41,5.3,41,5.2,41C5.2,40.9,5.4,40.9,5.6,40.9z"/>
		<path class="st6" d="M5.1,40.7c0,0.1-0.4,0.2-0.3,0c0.1,0,0.1,0,0.1,0.1C5,40.8,4.9,40.7,5.1,40.7z"/>
		<path class="st6" d="M4.4,42.7C4.6,42.6,5.1,42.6,4.4,42.7L4.4,42.7z"/>
		<path class="st6" d="M4.1,43.7c-0.2,0.1-0.4,0.1-0.6,0.1C3.6,43.8,4,43.7,4.1,43.7z"/>
		<path class="st6" d="M4,43.9c0.1,0.1-0.3,0.1-0.2,0L4,43.9z"/>
		<path class="st6" d="M3.8,45.2c-0.1,0.1-0.2,0.1-0.3,0.1C3.5,45.2,3.7,45.2,3.8,45.2z"/>
		<path class="st6" d="M2.5,45.3C2.1,45.5,1.9,45.5,2.5,45.3L2.5,45.3z"/>
		<path class="st6" d="M13.2,43.5c-0.1,0-0.2,0.1-0.2,0.1c-0.2-0.1-0.4,0-0.6,0C12.5,43.5,12.8,43.6,13.2,43.5z"/>
		<path class="st6" d="M7.4,42.3c-0.1,0-0.1,0-0.2,0c0,0,0,0,0-0.1c-0.2,0-0.4,0.1-0.6,0.1c0,0,0,0,0-0.1c-0.3,0.2-0.6,0-1.2,0.2
			C6,42.2,7.3,42.1,7.7,42c-0.1,0.1-0.5,0.1-0.5,0.2C7.2,42.3,7.5,42.2,7.4,42.3z"/>
		<path class="st6" d="M6.5,40.1C6.5,40.2,6.5,40.2,6.5,40.1c0,0.1-0.2,0.1-0.2,0.1C6.3,40.1,7,40.1,6.5,40.1z"/>
		<path class="st6" d="M2.9,41.1L2.9,41.1c-0.3,0-0.8,0.1-1.1,0.1c0.4-0.1,1.2-0.1,1.4-0.3c0.1,0,0.2,0,0.3,0
			c0.8-0.3,1.8-0.4,2.7-0.6c-0.4,0.3-1.3,0.2-1.7,0.5c-0.1,0,0,0,0,0C4.1,40.8,3.4,40.9,2.9,41.1z"/>
		<path class="st6" d="M3.9,44.1c-0.1,0.1-0.2,0.1-0.3,0.2C3.6,44.2,3.8,44,3.9,44.1z"/>
		<path class="st6" d="M102.8,38.5c0.2,0,0.5-0.1,0.7-0.1c0.5,0,1,0.1,1.6,0c0.5,0,0.9-0.2,1.4-0.2c0.4,0,0.5-0.1,0.7-0.1
			c0.7-0.1,1.3-0.1,1.6-0.3c0.5-0.2,1.2-0.3,1.6-0.4c0.1,0,0.2,0,0.2,0c1.1-0.4,1.8-1,3.2-1.3c0.1-0.1,0.2-0.3,0.4-0.5
			c0.1-0.1,0.3-0.1,0.4-0.2c0.3-0.3,0-0.7,0.6-0.9c0-0.1-0.1-0.1-0.1-0.1c0-0.6-0.2-1.1,0-1.6c-0.4-0.3-0.3-0.6-0.5-0.9
			c-0.2-0.2-0.5-0.3-0.7-0.5c-0.2-0.2-0.5-0.3-0.7-0.5c0-0.2-0.3-0.2-0.4-0.4c-0.4-0.1-0.7-0.3-1.1-0.4c0-0.1-0.1-0.1-0.1-0.2
			c-0.8-0.3-1.7-0.7-2.8-0.8c-0.1,0-0.3,0-0.5,0c-0.8,0-2.2,0-2.6-0.3c-0.2,0-0.2,0-0.3,0c-0.1-0.1-0.6-0.3-0.9-0.3
			c-0.1,0-0.4,0.2-0.7,0.2c-0.4,0-0.9-0.2-1.3-0.1c-0.2,0-0.4,0.2-0.6,0.2c-0.5,0.1-1.5,0-1.9,0c-0.3,0-0.5-0.1-0.7-0.1
			c-0.2,0-0.4,0.2-0.4,0.3c-0.6,0.4-2.3,0.1-3.3,0.3c-0.7-0.1-1.4,0.1-2.1,0.1c-0.1,0-0.3,0-0.4,0c-0.2,0-0.6,0.1-0.9,0.1
			c-0.5,0.1-1,0.1-1.4,0.1c-0.7-0.2-1.1,0.1-1.7,0.1c-0.2,0-0.4-0.1-0.6-0.1c-0.2,0-0.4,0.1-0.6,0.1c-0.2,0-0.4-0.1-0.6-0.1
			c-0.2,0-0.3,0.1-0.4,0.1c-0.2,0-0.3-0.1-0.4,0c-0.2,0-0.4,0.1-0.6,0.1c-0.7,0.1-1.4,0-2.1,0.2c-1.2-0.1-2.2,0.2-3.6,0.1
			c-0.3,0.1-0.6,0.1-1,0.1c-0.1,0-0.1,0.1-0.2,0.1c-0.7,0-1.5,0.2-2.2,0.1c0,0-0.1,0.1-0.1,0.1c-1-0.1-2.3,0-3.1,0.1
			c-0.6-0.1-1.3,0.1-2.1,0.1c-0.4,0-0.7,0-1.1,0c-0.7,0.1-1.5,0.1-2.2,0.1c-0.2,0-0.4,0.1-0.6,0.1c-0.3,0-0.7,0-1,0
			c-1.4,0.2-2.9,0.2-4.2,0.3c-0.4,0-0.7,0.1-1.1,0.2c-0.7,0.1-1.4,0-2.1,0.1c-0.2,0-0.3,0.1-0.5,0.1c-0.4,0-0.8,0-1.2,0.1
			c-1.1,0.1-2.1,0.3-3.2,0.2c-1.3,0.2-3.2,0.3-4.6,0.4c-0.3,0.2-0.7,0.1-1,0.1c-1.1,0.1-2.4,0.4-3.5,0.4c-4.7,0.6-9.6,0.9-14.2,1.5
			c-0.4-0.1-0.9,0.1-1.2,0.2c-0.1-0.1-0.3,0-0.5,0c-0.6,0.2-1.3,0.2-2,0.3c-0.2,0.2-0.6,0.1-0.9,0.2c-0.1-0.1,0.2-0.1-0.1-0.1
			c-0.4,0.3-2.1,0.4-2.8,0.5c0.1,0,0.1,0,0,0c-0.2-0.1-0.2,0.1-0.4,0.1c-1.3,0.2-2.2,0.6-3.3,0.8c-0.1,0-0.5-0.1-0.7,0
			c0.2,0,0.5,0,0.5,0.1c-0.3,0-0.8,0.1-1,0.2c-0.4,0.1-0.6,0-1,0.2c-0.1,0,0.1,0.1-0.1,0.1c-0.6,0-0.9,0.2-1.4,0.2
			c-0.1,0.1-0.7,0.2-0.9,0.2c-0.2,0.1,0.2,0.1,0.1,0.1c-0.5,0.1-0.9,0.2-1.3,0.2c-0.1,0.1-0.2,0.1-0.3,0.2c-0.1,0,0-0.1-0.2-0.1
			c-0.2,0.1,0.1,0.1,0.1,0.2c-0.2,0.1-0.2,0.1-0.3,0.2c-0.3,0-0.5,0.1-0.8,0.2c-0.3,0.1-0.6,0.1-0.9,0.2c-0.2,0.1-0.3,0.2-0.6,0.2
			c-0.2,0-0.4,0-0.7,0c-0.1,0,0.1,0.1-0.1,0.1c-0.9,0.2-1.8,0.4-2.5,0.6c1-0.4,1.8-0.3,2.7-0.6c0.2,0.1,0.4-0.1,0.6,0
			c0.1-0.1-0.2-0.1,0-0.1c0.1,0,0.1,0,0.2,0c-0.1,0.1,0.1,0.1,0.2,0.2c0.8-0.1,1.4-0.3,2-0.4c0.1,0-0.1-0.1,0-0.1
			c0.3-0.1,0.4-0.1,0.7-0.1c0.1,0.1,0.3,0.1,0.2,0.2c-0.9,0.1-2.1,0.4-3.2,0.6c-0.3,0.1-0.7,0-0.8,0.2c0.5-0.1,0.9,0,1.3-0.1
			c0.5-0.1,1.1-0.3,1.6-0.3c0.1,0,0.2,0,0.4,0c0.1,0,0.3-0.1,0.4-0.1c0.1,0,0.1,0,0.3,0c0.2,0,0.4-0.1,0.6-0.2
			c0.4-0.1,0.8,0,1.3-0.1c0.1,0,0.1,0.1,0,0.2c-0.5,0.1-0.6,0.1-1.2,0.2c0.1,0,0.1,0,0.1,0.1c-0.2,0-0.2,0-0.3,0.1
			c0.4-0.1,0.4,0.1,0.3,0.2c-1,0.1-2.3,0.4-3.1,0.4c-0.1,0.1-0.1,0.1-0.3,0.2c-0.9,0.2-2,0.3-3,0.5c1.2,0,2.4-0.3,3.7-0.6
			c0.1,0,0,0.1,0.2,0.1c0.6-0.1,1.2-0.2,1.7-0.3c0.2,0.1,0.4,0.2,0.6,0.2c1.4-0.3,2.5,0,3.8-0.2c0,0.1,0.1,0.1,0.2,0.1
			c-0.1,0.1-0.2,0.2-0.3,0.2c-0.2,0-0.4,0.1-0.6,0.1c-1.1,0.4-2.7,0.4-4.1,0.7c-0.2,0.1,0,0.2,0.1,0.3c0.7,0,1.3-0.3,2-0.2
			c0.3,0.2,0.1,0.5-0.5,0.6c-0.9,0.1-2.5,0.3-3.1,0.4c-1.3,0.3-2.6,0.5-4,0.8c-0.7,0.1-1.3,0.2-2,0.4c-0.6,0.2-1.3,0.3-2,0.5
			c0.7-0.1,1.4-0.3,2.1-0.5c0.7-0.1,1.4-0.3,2.1-0.3c0-0.1,0-0.1,0.1-0.1c1.3-0.2,2.8-0.5,4-0.7c0.5,0.1,1.4-0.2,2-0.1
			c-0.1,0.3-0.5,0.5-1,0.6c0.5-0.1,1-0.1,1.5-0.1c0.4,0,1-0.2,1.2-0.2c0,0,0,0.1,0.1,0.1c-0.1,0,0.3-0.1,0.3-0.1
			c0.2-0.1,0.2-0.1,0.4-0.1c0.3,0,0.3,0,0.5,0c1-0.1,2-0.3,3.1-0.4c0.1,0,0.3,0,0.3,0c0.1,0,0,0.1,0.2,0.1c0.1,0,0-0.1,0.1-0.1
			c0.4,0,0.9-0.1,1.3-0.1c1-0.1,2.2-0.2,3-0.3c0.2,0,0,0.1,0.2,0.1c1.4-0.1,3-0.2,4.5-0.3c0.1,0,0,0.1,0.2,0.1
			c0.2,0,0.2-0.1,0.3-0.1c0.1,0,0.2,0,0.3,0.1c1.8-0.1,3.6-0.3,5.4-0.5c1.7-0.2,3.4-0.3,5-0.5c1.3-0.1,2.5-0.3,3.6-0.3
			c1.5-0.2,2.8-0.3,4.3-0.4c1-0.1,2.2-0.1,3-0.2c0.1,0,0.3-0.1,0.5-0.1c0.3,0,0.5,0,0.8,0c0.7,0,1.4-0.2,2.1-0.2
			c0.8,0,1.6-0.1,2.3-0.1c0.4,0,0.9-0.1,1.3-0.2c0.3,0,0.6,0,0.9,0c0.8,0,1.7-0.2,2.5-0.2c1.1,0,2.2,0,3.2-0.2
			c1.2,0,2.6-0.1,3.8-0.2c0.9,0.1,1.9-0.1,2.9-0.1c0.1,0,0.2,0,0.3,0c1.6,0.1,3.3-0.3,4.6-0.2c0.5-0.1,0.9,0,1.3,0
			c0.5,0,0.9-0.1,1.4-0.1c0.2,0,0.3,0,0.4,0c0.5,0,0.9-0.1,1.4-0.1c0.8-0.1,1.6,0.1,2.5,0c0.7,0.1,1.7,0.1,2.5,0
			c1.3,0.1,2.7-0.1,4-0.1c0.5,0,0.9,0.1,1.3,0c0.5,0.1,1.1,0,1.6,0c0.6,0,1.2,0.1,1.8,0.1c0.9,0,1.9-0.1,2.6,0.1
			c0.3,0.5,0.9-0.3,1.5-0.2c0.4,0.1,0.3,0.3,0.5,0.5c0.3,0.1,0.6,0,0.9,0C102,38.2,102.3,38.5,102.8,38.5z M15.4,38
			C15.4,37.9,15.4,37.9,15.4,38C15.5,37.8,15.7,37.9,15.4,38z M15.3,38c-0.4,0.1-1,0.3-1.3,0.2c-0.1,0,0.1,0.1,0,0.2
			c-0.2,0-0.4-0.1-0.7,0c0-0.2,0.6-0.2,0.6-0.3c0.2,0,0.4,0,0.4-0.1c0.5,0,0.6-0.1,0.9-0.1C15.2,37.9,15.3,37.9,15.3,38z"/>
	</g>
</g>
</svg>
