<?xml version="1.0" encoding="utf-8"?>
<!-- Generator: Adobe Illustrator 22.1.0, SVG Export Plug-In . SVG Version: 6.00 Build 0)  -->
<svg version="1.1" id="Layer_1" xmlns="http://www.w3.org/2000/svg" xmlns:xlink="http://www.w3.org/1999/xlink" x="0px" y="0px"
	 viewBox="0 0 117.6 11.8" style="enable-background:new 0 0 117.6 11.8;" xml:space="preserve">
<style type="text/css">
	.st0{fill:#313536;}
	.st1{fill:#231F20;}
	.st2{enable-background:new    ;}
	.st3{fill:#E9C77E;}
	.st4{fill:#F0D5A7;}
	.st5{fill:#353030;}
	.st6{fill:#FAFAFA;}
	.st7{fill:none;}
	.st8{opacity:0.5;fill:#221F1F;enable-background:new    ;}
	.st9{fill:#FFFFFF;}
</style>
<g>
	<g class="st2">
		<path class="st3" d="M6.4,11.7H3.5L0,0.2h2.9l2.3,8.2l2.4-8.2h2.3L6.4,11.7z"/>
		<path class="st3" d="M14.5,11.7h-2.7V0.2h2.7V11.7z"/>
		<path class="st3" d="M20.4,2.4v2.3h4.4v2.2h-4.4v2.5h5.5v2.2h-8.2V0.2h8.2v2.2H20.4z"/>
		<path class="st3" d="M39.2,11.7h-2.6l-1.9-7.6h0l-1.8,7.6h-2.6l-3-11.5H30l1.8,7.7h0l1.9-7.7h2.5l1.9,7.7h0l0.1-0.5l1.7-7.2h2.2
			L39.2,11.7z"/>
		<path class="st3" d="M52.8,11.7h-2.7V0.2h2.7V11.7z"/>
		<path class="st3" d="M64.7,11.7h-2.3L58,3.9H58v7.7h-2.1V0.2h2.9l3.8,6.8h0V0.2h2.1V11.7z"/>
		<path class="st3" d="M76.3,2.4V5h4.4v2.2h-4.4v4.5h-2.7V0.2h8.2v2.2H76.3z"/>
		<path class="st3" d="M86.3,11.7h-2.7V0.2h2.7V11.7z"/>
		<path class="st3" d="M96.6,9.4v2.3h-7.3V0.2H92v9.2H96.6z"/>
		<path class="st3" d="M101.3,2.4v2.3h4.4v2.2h-4.4v2.5h5.5v2.2h-8.2V0.2h8.2v2.2H101.3z"/>
		<path class="st3" d="M115,3.5c-0.3-1-1-1.4-2-1.4c-0.7,0-1.6,0.2-1.6,1.1c0,0.8,1,1,1.7,1.2c0.9,0.2,2.2,0.4,3,1
			c0.9,0.6,1.5,1.6,1.5,2.7c0,1.1-0.5,2.2-1.4,2.9c-0.9,0.7-2.2,0.9-3.3,0.9c-2.2,0-4.1-0.9-4.6-3.2l2.5-0.6
			c0.3,1.2,1.2,1.6,2.4,1.6c0.8,0,1.8-0.3,1.8-1.2s-1.3-1.1-2-1.3c-2-0.4-4.1-1-4.1-3.5c0-1.1,0.4-2,1.2-2.7
			c0.8-0.7,1.8-0.9,2.9-0.9c2,0,3.7,0.7,4.4,2.7L115,3.5z"/>
	</g>
</g>
</svg>
