<?xml version="1.0" encoding="utf-8"?>
<!-- Generator: Adobe Illustrator 22.1.0, SVG Export Plug-In . SVG Version: 6.00 Build 0)  -->
<svg version="1.1" id="Layer_1" xmlns="http://www.w3.org/2000/svg" xmlns:xlink="http://www.w3.org/1999/xlink" x="0px" y="0px"
	 viewBox="0 0 144.7 11.8" style="enable-background:new 0 0 144.7 11.8;" xml:space="preserve">
<style type="text/css">
	.st0{fill-rule:evenodd;clip-rule:evenodd;fill:#313536;}
	.st1{fill:#231F20;}
	.st2{fill:#F0D5A7;}
	.st3{fill:#353030;}
	.st4{fill-rule:evenodd;clip-rule:evenodd;fill:#231F20;}
	.st5{fill:#FAFAFA;}
	.st6{fill:none;}
	.st7{fill-rule:evenodd;clip-rule:evenodd;fill:#F0D5A7;}
	.st8{opacity:0.5;fill:#221F1F;}
	.st9{fill-rule:evenodd;clip-rule:evenodd;fill:#E9C77E;}
	.st10{fill:#FFFFFF;}
</style>
<g>
	<g>
		<path class="st1" d="M6.4,11.7H3.5L0,0.2h2.9l2.3,8.2l2.4-8.2h2.3L6.4,11.7z"/>
		<path class="st1" d="M14.5,11.7h-2.7V0.2h2.7V11.7z"/>
		<path class="st1" d="M20.4,2.4v2.3h4.4v2.2h-4.4v2.5h5.5v2.2h-8.2V0.2h8.2v2.2H20.4z"/>
		<path class="st1" d="M39.2,11.7h-2.6l-1.9-7.6h0l-1.8,7.6h-2.6l-3-11.5H30l1.8,7.7h0l1.9-7.7h2.5l1.9,7.7h0l0.1-0.5l1.7-7.2h2.2
			L39.2,11.7z"/>
		<path class="st1" d="M56.5,4.6c0-1.3-0.5-2.5-1.9-2.5c-1.9,0-2.1,2.5-2.1,3.9c0,1.6,0.2,3.6,2.2,3.6c1.3,0,1.8-1.1,2-2.2l2.6,0.2
			c-0.3,2.6-2.1,4.2-4.7,4.2c-3.4,0-5.1-2.8-5.1-5.9c0-3.2,1.7-5.9,5.2-5.9c2.9,0,4.4,1.7,4.7,4.4L56.5,4.6z"/>
		<path class="st1" d="M71.4,11.7h-2.9l-0.7-2.4h-3.7l-0.7,2.4H61l3.7-11.5h3.1L71.4,11.7z M67.2,7.2l-1.2-4l-1.2,4H67.2z"/>
		<path class="st1" d="M79.3,3.5c-0.3-1-1-1.4-2-1.4c-0.7,0-1.6,0.2-1.6,1.1c0,0.8,1,1,1.7,1.2c0.9,0.2,2.2,0.4,3,1
			c0.9,0.6,1.5,1.6,1.5,2.7c0,1.1-0.5,2.2-1.4,2.9c-0.9,0.7-2.2,0.9-3.3,0.9c-2.2,0-4.1-0.9-4.6-3.2L75,8.1c0.3,1.2,1.2,1.6,2.4,1.6
			c0.8,0,1.8-0.3,1.8-1.2s-1.3-1.1-2-1.3c-2-0.4-4.1-1-4.1-3.5c0-1.1,0.4-2,1.2-2.7C75.2,0.2,76.2,0,77.2,0c2,0,3.7,0.7,4.4,2.7
			L79.3,3.5z"/>
		<path class="st1" d="M87.1,2.4v2.3h4.4v2.2h-4.4v2.5h5.5v2.2h-8.2V0.2h8.2v2.2H87.1z"/>
		<path class="st1" d="M103.5,2.4V5h4.4v2.2h-4.4v4.5h-2.7V0.2h8.2v2.2H103.5z"/>
		<path class="st1" d="M113.4,11.7h-2.7V0.2h2.7V11.7z"/>
		<path class="st1" d="M123.8,9.4v2.3h-7.3V0.2h2.7v9.2H123.8z"/>
		<path class="st1" d="M128.5,2.4v2.3h4.4v2.2h-4.4v2.5h5.5v2.2h-8.2V0.2h8.2v2.2H128.5z"/>
		<path class="st1" d="M142.1,3.5c-0.3-1-1-1.4-2-1.4c-0.7,0-1.6,0.2-1.6,1.1c0,0.8,1,1,1.7,1.2c0.9,0.2,2.2,0.4,3,1
			c0.9,0.6,1.5,1.6,1.5,2.7c0,1.1-0.5,2.2-1.4,2.9c-0.9,0.7-2.2,0.9-3.3,0.9c-2.2,0-4.1-0.9-4.6-3.2l2.5-0.6
			c0.3,1.2,1.2,1.6,2.4,1.6c0.8,0,1.8-0.3,1.8-1.2s-1.3-1.1-2-1.3c-2-0.4-4.1-1-4.1-3.5c0-1.1,0.4-2,1.2-2.7C138,0.2,139,0,140.1,0
			c2,0,3.7,0.7,4.4,2.7L142.1,3.5z"/>
	</g>
</g>
</svg>
