<?xml version="1.0" encoding="utf-8"?>
<!-- Generator: Adobe Illustrator 22.1.0, SVG Export Plug-In . SVG Version: 6.00 Build 0)  -->
<svg version="1.1" id="Layer_1" xmlns="http://www.w3.org/2000/svg" xmlns:xlink="http://www.w3.org/1999/xlink" x="0px" y="0px"
	 viewBox="0 0 202 319.1" style="enable-background:new 0 0 202 319.1;" xml:space="preserve">
<style type="text/css">
	.st0{fill-rule:evenodd;clip-rule:evenodd;fill:#313536;}
	.st1{fill:#231F20;}
	.st2{fill:#F0D5A7;}
	.st3{fill:#353030;}
	.st4{fill-rule:evenodd;clip-rule:evenodd;fill:#231F20;}
	.st5{fill:#FAFAFA;}
	.st6{fill:none;}
	.st7{fill-rule:evenodd;clip-rule:evenodd;fill:#F0D5A7;}
	.st8{opacity:0.5;fill:#221F1F;}
	.st9{fill-rule:evenodd;clip-rule:evenodd;fill:#E9C77E;}
	.st10{fill:#FFFFFF;}
</style>
<path class="st1" d="M201,319.1H1c-0.6,0-1-0.4-1-1V1c0-0.6,0.4-1,1-1h200c0.6,0,1,0.4,1,1v317.1C202,318.7,201.6,319.1,201,319.1z
	 M2,317.1h198V2H2V317.1z"/>
<path class="st1" d="M201,27.1H1c-0.3,0-0.5-0.2-0.5-0.5s0.2-0.5,0.5-0.5h200c0.3,0,0.5,0.2,0.5,0.5S201.3,27.1,201,27.1z"/>
<path class="st1" d="M201,51.3H1c-0.3,0-0.5-0.2-0.5-0.5s0.2-0.5,0.5-0.5h200c0.3,0,0.5,0.2,0.5,0.5S201.3,51.3,201,51.3z"/>
<path class="st1" d="M201,75.6H1c-0.3,0-0.5-0.2-0.5-0.5s0.2-0.5,0.5-0.5h200c0.3,0,0.5,0.2,0.5,0.5S201.3,75.6,201,75.6z"/>
<path class="st1" d="M201,99.9H1c-0.3,0-0.5-0.2-0.5-0.5s0.2-0.5,0.5-0.5h200c0.3,0,0.5,0.2,0.5,0.5S201.3,99.9,201,99.9z"/>
<path class="st1" d="M201,124.2H1c-0.3,0-0.5-0.2-0.5-0.5s0.2-0.5,0.5-0.5h200c0.3,0,0.5,0.2,0.5,0.5S201.3,124.2,201,124.2z"/>
<path class="st1" d="M201,148.5H1c-0.3,0-0.5-0.2-0.5-0.5s0.2-0.5,0.5-0.5h200c0.3,0,0.5,0.2,0.5,0.5S201.3,148.5,201,148.5z"/>
<path class="st1" d="M201,172.7H1c-0.3,0-0.5-0.2-0.5-0.5s0.2-0.5,0.5-0.5h200c0.3,0,0.5,0.2,0.5,0.5S201.3,172.7,201,172.7z"/>
<path class="st1" d="M201,197H1c-0.3,0-0.5-0.2-0.5-0.5S0.7,196,1,196h200c0.3,0,0.5,0.2,0.5,0.5S201.3,197,201,197z"/>
<path class="st1" d="M201,221.3H1c-0.3,0-0.5-0.2-0.5-0.5s0.2-0.5,0.5-0.5h200c0.3,0,0.5,0.2,0.5,0.5S201.3,221.3,201,221.3z"/>
<path class="st1" d="M201,245.6H1c-0.3,0-0.5-0.2-0.5-0.5s0.2-0.5,0.5-0.5h200c0.3,0,0.5,0.2,0.5,0.5S201.3,245.6,201,245.6z"/>
<path class="st1" d="M201,269.8H1c-0.3,0-0.5-0.2-0.5-0.5s0.2-0.5,0.5-0.5h200c0.3,0,0.5,0.2,0.5,0.5S201.3,269.8,201,269.8z"/>
<path class="st1" d="M201,294.1H1c-0.3,0-0.5-0.2-0.5-0.5s0.2-0.5,0.5-0.5h200c0.3,0,0.5,0.2,0.5,0.5S201.3,294.1,201,294.1z"/>
<path class="st1" d="M135.7,318.6c-0.3,0-0.5-0.2-0.5-0.5V1c0-0.3,0.2-0.5,0.5-0.5s0.5,0.2,0.5,0.5v317.1
	C136.2,318.4,135.9,318.6,135.7,318.6z"/>
</svg>
